<mxfile host="app.diagrams.net" agent="Mozilla/5.0 (Windows NT 10.0; Win64; x64) AppleWebKit/537.36 (KHTML, like Gecko) Chrome/141.0.0.0 Safari/537.36" version="28.2.7" pages="5">
  <diagram name="Caso de uso" id="tlU48s2WsU2dKEw_Oe5l">
    <mxGraphModel dx="1182" dy="655" grid="1" gridSize="10" guides="1" tooltips="1" connect="1" arrows="1" fold="1" page="1" pageScale="1" pageWidth="827" pageHeight="1169" math="0" shadow="0">
      <root>
        <mxCell id="0" />
        <mxCell id="1" parent="0" />
        <mxCell id="vN3kP4pHd-1gidfyCN6H-2" style="rounded=0;orthogonalLoop=1;jettySize=auto;html=1;entryX=0;entryY=0.5;entryDx=0;entryDy=0;endArrow=none;endFill=0;" edge="1" parent="1" target="vN3kP4pHd-1gidfyCN6H-1">
          <mxGeometry relative="1" as="geometry">
            <mxPoint x="200" y="280" as="sourcePoint" />
          </mxGeometry>
        </mxCell>
        <mxCell id="bLASmsxA6q1UtcwoNBWZ-2" value="Paramedico" style="shape=umlActor;verticalLabelPosition=bottom;verticalAlign=top;html=1;outlineConnect=0;" parent="1" vertex="1">
          <mxGeometry x="160" y="260" width="30" height="60" as="geometry" />
        </mxCell>
        <mxCell id="bLASmsxA6q1UtcwoNBWZ-9" style="rounded=0;orthogonalLoop=1;jettySize=auto;html=1;dashed=1;exitX=1;exitY=0;exitDx=0;exitDy=0;entryX=0;entryY=0.5;entryDx=0;entryDy=0;" parent="1" source="6U4AAA-lf9R21xQM8rmU-2" target="6U4AAA-lf9R21xQM8rmU-1" edge="1">
          <mxGeometry relative="1" as="geometry">
            <mxPoint x="430" y="410" as="sourcePoint" />
            <mxPoint x="500.0000000000002" y="410" as="targetPoint" />
          </mxGeometry>
        </mxCell>
        <mxCell id="6U4AAA-lf9R21xQM8rmU-7" value="&lt;font style=&quot;font-size: 7px;&quot;&gt;&amp;lt;&amp;lt;include&amp;gt;&amp;gt;&lt;/font&gt;" style="edgeLabel;html=1;align=center;verticalAlign=middle;resizable=0;points=[];" parent="bLASmsxA6q1UtcwoNBWZ-9" vertex="1" connectable="0">
          <mxGeometry x="-0.0434" y="1" relative="1" as="geometry">
            <mxPoint as="offset" />
          </mxGeometry>
        </mxCell>
        <mxCell id="bLASmsxA6q1UtcwoNBWZ-23" style="rounded=0;orthogonalLoop=1;jettySize=auto;html=1;entryX=1;entryY=0.5;entryDx=0;entryDy=0;endArrow=none;endFill=0;" parent="1" target="bLASmsxA6q1UtcwoNBWZ-24" edge="1">
          <mxGeometry relative="1" as="geometry">
            <mxPoint x="720" y="379.9999999999999" as="targetPoint" />
            <mxPoint x="720" y="380" as="sourcePoint" />
          </mxGeometry>
        </mxCell>
        <mxCell id="vN3kP4pHd-1gidfyCN6H-3" style="rounded=0;orthogonalLoop=1;jettySize=auto;html=1;entryX=1;entryY=0.5;entryDx=0;entryDy=0;endArrow=none;endFill=0;" edge="1" parent="1" target="vN3kP4pHd-1gidfyCN6H-1">
          <mxGeometry relative="1" as="geometry">
            <mxPoint x="720" y="370" as="sourcePoint" />
          </mxGeometry>
        </mxCell>
        <mxCell id="bLASmsxA6q1UtcwoNBWZ-16" value="Coordinador&lt;div&gt;de urgencias&lt;/div&gt;" style="shape=umlActor;verticalLabelPosition=bottom;verticalAlign=top;html=1;outlineConnect=0;" parent="1" vertex="1">
          <mxGeometry x="730" y="350" width="30" height="60" as="geometry" />
        </mxCell>
        <mxCell id="6U4AAA-lf9R21xQM8rmU-16" style="rounded=0;orthogonalLoop=1;jettySize=auto;html=1;entryX=1;entryY=0;entryDx=0;entryDy=0;dashed=1;" parent="1" source="bLASmsxA6q1UtcwoNBWZ-24" target="6U4AAA-lf9R21xQM8rmU-1" edge="1">
          <mxGeometry relative="1" as="geometry" />
        </mxCell>
        <mxCell id="6U4AAA-lf9R21xQM8rmU-17" value="&lt;font style=&quot;font-size: 7px;&quot;&gt;&amp;lt;&amp;lt;include&amp;gt;&amp;gt;&lt;/font&gt;" style="edgeLabel;html=1;align=center;verticalAlign=middle;resizable=0;points=[];" parent="6U4AAA-lf9R21xQM8rmU-16" vertex="1" connectable="0">
          <mxGeometry x="-0.0956" relative="1" as="geometry">
            <mxPoint x="1" y="-4" as="offset" />
          </mxGeometry>
        </mxCell>
        <mxCell id="bLASmsxA6q1UtcwoNBWZ-24" value="Modificar&lt;div&gt;fichas de pacientes&lt;/div&gt;" style="ellipse;whiteSpace=wrap;html=1;fillColor=#FFFFFF;gradientColor=#F1F1F1;strokeColor=#050505;fontSize=10;" parent="1" vertex="1">
          <mxGeometry x="560" y="330" width="100" height="80" as="geometry" />
        </mxCell>
        <mxCell id="6U4AAA-lf9R21xQM8rmU-12" style="rounded=0;orthogonalLoop=1;jettySize=auto;html=1;entryX=0.5;entryY=0;entryDx=0;entryDy=0;dashed=1;exitX=0.75;exitY=0.958;exitDx=0;exitDy=0;exitPerimeter=0;" parent="1" source="6U4AAA-lf9R21xQM8rmU-1" target="6U4AAA-lf9R21xQM8rmU-10" edge="1">
          <mxGeometry relative="1" as="geometry" />
        </mxCell>
        <mxCell id="6U4AAA-lf9R21xQM8rmU-15" value="&lt;font style=&quot;font-size: 7px;&quot;&gt;&amp;lt;&amp;lt;include&amp;gt;&amp;gt;&lt;/font&gt;" style="edgeLabel;html=1;align=center;verticalAlign=middle;resizable=0;points=[];" parent="6U4AAA-lf9R21xQM8rmU-12" vertex="1" connectable="0">
          <mxGeometry x="-0.1852" relative="1" as="geometry">
            <mxPoint x="3" y="-3" as="offset" />
          </mxGeometry>
        </mxCell>
        <mxCell id="6U4AAA-lf9R21xQM8rmU-1" value="Login" style="ellipse;whiteSpace=wrap;html=1;fillColor=#FFFFFF;gradientColor=#F1F1F1;strokeColor=#050505;fontSize=10;" parent="1" vertex="1">
          <mxGeometry x="410" y="320" width="60" height="40" as="geometry" />
        </mxCell>
        <mxCell id="6U4AAA-lf9R21xQM8rmU-3" value="" style="rounded=0;orthogonalLoop=1;jettySize=auto;html=1;exitX=0.5;exitY=0;exitDx=0;exitDy=0;endArrow=none;endFill=0;" parent="1" source="6U4AAA-lf9R21xQM8rmU-2" edge="1">
          <mxGeometry relative="1" as="geometry">
            <mxPoint x="200" y="290" as="targetPoint" />
          </mxGeometry>
        </mxCell>
        <mxCell id="6U4AAA-lf9R21xQM8rmU-2" value="Rellenar de formulario de pacientes" style="ellipse;whiteSpace=wrap;html=1;fillColor=#FFFFFF;gradientColor=#F1F1F1;strokeColor=#050505;fontSize=10;" parent="1" vertex="1">
          <mxGeometry x="210" y="340" width="110" height="60" as="geometry" />
        </mxCell>
        <mxCell id="6U4AAA-lf9R21xQM8rmU-10" value="contraseÃ±a" style="ellipse;whiteSpace=wrap;html=1;fillColor=#FFFFFF;gradientColor=#F1F1F1;strokeColor=#050505;fontSize=10;" parent="1" vertex="1">
          <mxGeometry x="440" y="390" width="70" height="40" as="geometry" />
        </mxCell>
        <mxCell id="p02RN6oJ43iDcdZr5VjU-3" value="rut" style="ellipse;whiteSpace=wrap;html=1;fillColor=#FFFFFF;gradientColor=#F1F1F1;strokeColor=#050505;fontSize=10;" parent="1" vertex="1">
          <mxGeometry x="380" y="390" width="50" height="40" as="geometry" />
        </mxCell>
        <mxCell id="p02RN6oJ43iDcdZr5VjU-50" style="rounded=0;orthogonalLoop=1;jettySize=auto;html=1;dashed=1;entryX=0.5;entryY=0;entryDx=0;entryDy=0;exitX=0.23;exitY=0.9;exitDx=0;exitDy=0;exitPerimeter=0;" parent="1" source="6U4AAA-lf9R21xQM8rmU-1" target="p02RN6oJ43iDcdZr5VjU-3" edge="1">
          <mxGeometry relative="1" as="geometry">
            <mxPoint x="400" y="360" as="sourcePoint" />
            <mxPoint x="656" y="430" as="targetPoint" />
          </mxGeometry>
        </mxCell>
        <mxCell id="p02RN6oJ43iDcdZr5VjU-51" value="&lt;font style=&quot;font-size: 7px;&quot;&gt;&amp;lt;&amp;lt;include&amp;gt;&amp;gt;&lt;/font&gt;" style="edgeLabel;html=1;align=center;verticalAlign=middle;resizable=0;points=[];" parent="p02RN6oJ43iDcdZr5VjU-50" vertex="1" connectable="0">
          <mxGeometry x="-0.0434" y="1" relative="1" as="geometry">
            <mxPoint y="-6" as="offset" />
          </mxGeometry>
        </mxCell>
        <mxCell id="vN3kP4pHd-1gidfyCN6H-5" style="edgeStyle=orthogonalEdgeStyle;rounded=0;orthogonalLoop=1;jettySize=auto;html=1;entryX=0.5;entryY=0;entryDx=0;entryDy=0;dashed=1;" edge="1" parent="1" source="vN3kP4pHd-1gidfyCN6H-1" target="6U4AAA-lf9R21xQM8rmU-1">
          <mxGeometry relative="1" as="geometry" />
        </mxCell>
        <mxCell id="vN3kP4pHd-1gidfyCN6H-6" value="&lt;span style=&quot;font-size: 7px;&quot;&gt;&amp;lt;&amp;lt;include&amp;gt;&amp;gt;&lt;/span&gt;" style="edgeLabel;html=1;align=center;verticalAlign=middle;resizable=0;points=[];" vertex="1" connectable="0" parent="vN3kP4pHd-1gidfyCN6H-5">
          <mxGeometry x="-0.2286" y="-1" relative="1" as="geometry">
            <mxPoint as="offset" />
          </mxGeometry>
        </mxCell>
        <mxCell id="vN3kP4pHd-1gidfyCN6H-74" style="rounded=0;orthogonalLoop=1;jettySize=auto;html=1;entryX=0.5;entryY=1;entryDx=0;entryDy=0;endArrow=classic;endFill=1;dashed=1;" edge="1" parent="1" source="vN3kP4pHd-1gidfyCN6H-1" target="vN3kP4pHd-1gidfyCN6H-8">
          <mxGeometry relative="1" as="geometry" />
        </mxCell>
        <mxCell id="vN3kP4pHd-1gidfyCN6H-75" value="&lt;span style=&quot;font-size: 7px;&quot;&gt;&amp;lt;&amp;lt;extend&amp;gt;&amp;gt;&lt;/span&gt;" style="edgeLabel;html=1;align=center;verticalAlign=middle;resizable=0;points=[];" vertex="1" connectable="0" parent="vN3kP4pHd-1gidfyCN6H-74">
          <mxGeometry x="-0.2267" y="1" relative="1" as="geometry">
            <mxPoint y="-1" as="offset" />
          </mxGeometry>
        </mxCell>
        <mxCell id="vN3kP4pHd-1gidfyCN6H-1" value="Ver listado de fichas mas recientes" style="ellipse;whiteSpace=wrap;html=1;fillColor=#FFFFFF;gradientColor=#F1F1F1;strokeColor=#050505;fontSize=10;" vertex="1" parent="1">
          <mxGeometry x="390" y="230" width="100" height="50" as="geometry" />
        </mxCell>
        <mxCell id="vN3kP4pHd-1gidfyCN6H-77" style="rounded=0;orthogonalLoop=1;jettySize=auto;html=1;endArrow=none;endFill=0;" edge="1" parent="1" source="vN3kP4pHd-1gidfyCN6H-7">
          <mxGeometry relative="1" as="geometry">
            <mxPoint x="719.9999999999998" y="390" as="targetPoint" />
          </mxGeometry>
        </mxCell>
        <mxCell id="Vu_-6fpMWB3TCORpC9Rd-5" style="rounded=0;orthogonalLoop=1;jettySize=auto;html=1;exitX=0.5;exitY=1;exitDx=0;exitDy=0;entryX=0.5;entryY=0;entryDx=0;entryDy=0;dashed=1;" edge="1" parent="1" source="vN3kP4pHd-1gidfyCN6H-7" target="Vu_-6fpMWB3TCORpC9Rd-3">
          <mxGeometry relative="1" as="geometry" />
        </mxCell>
        <mxCell id="Vu_-6fpMWB3TCORpC9Rd-12" value="&lt;span style=&quot;font-size: 7px;&quot;&gt;&amp;lt;&amp;lt;extend&amp;gt;&amp;gt;&lt;/span&gt;" style="edgeLabel;html=1;align=center;verticalAlign=middle;resizable=0;points=[];spacing=2;" vertex="1" connectable="0" parent="Vu_-6fpMWB3TCORpC9Rd-5">
          <mxGeometry x="-0.0285" y="1" relative="1" as="geometry">
            <mxPoint as="offset" />
          </mxGeometry>
        </mxCell>
        <mxCell id="Vu_-6fpMWB3TCORpC9Rd-7" style="rounded=0;orthogonalLoop=1;jettySize=auto;html=1;entryX=0.5;entryY=0;entryDx=0;entryDy=0;dashed=1;exitX=0.5;exitY=1;exitDx=0;exitDy=0;" edge="1" parent="1" source="vN3kP4pHd-1gidfyCN6H-7" target="Vu_-6fpMWB3TCORpC9Rd-1">
          <mxGeometry relative="1" as="geometry" />
        </mxCell>
        <mxCell id="Vu_-6fpMWB3TCORpC9Rd-14" value="&lt;span style=&quot;font-size: 7px;&quot;&gt;&amp;lt;&amp;lt;extend&amp;gt;&amp;gt;&lt;/span&gt;" style="edgeLabel;html=1;align=center;verticalAlign=middle;resizable=0;points=[];spacing=2;" vertex="1" connectable="0" parent="Vu_-6fpMWB3TCORpC9Rd-7">
          <mxGeometry x="-0.0771" y="-1" relative="1" as="geometry">
            <mxPoint as="offset" />
          </mxGeometry>
        </mxCell>
        <mxCell id="vN3kP4pHd-1gidfyCN6H-7" value="Exportar fichas" style="ellipse;whiteSpace=wrap;html=1;fillColor=#FFFFFF;gradientColor=#F1F1F1;strokeColor=#050505;fontSize=10;" vertex="1" parent="1">
          <mxGeometry x="570" y="420" width="80" height="40" as="geometry" />
        </mxCell>
        <mxCell id="vN3kP4pHd-1gidfyCN6H-8" value="Ver datos de ficha individual" style="ellipse;whiteSpace=wrap;html=1;fillColor=#FFFFFF;gradientColor=#F1F1F1;strokeColor=#050505;fontSize=10;" vertex="1" parent="1">
          <mxGeometry x="390" y="130" width="100" height="50" as="geometry" />
        </mxCell>
        <mxCell id="vN3kP4pHd-1gidfyCN6H-29" value="&lt;span style=&quot;color: light-dark(rgb(0, 0, 0), rgb(255, 255, 255)); background-color: transparent; font-size: 6px;&quot;&gt;&amp;nbsp;ing.&lt;/span&gt;&lt;span style=&quot;color: light-dark(rgb(0, 0, 0), rgb(255, 255, 255)); background-color: transparent; font-size: 6px;&quot;&gt;&amp;nbsp;&lt;/span&gt;Prevision" style="ellipse;whiteSpace=wrap;html=1;fillColor=#FFFFFF;gradientColor=#F1F1F1;strokeColor=#050505;fontSize=10;" vertex="1" parent="1">
          <mxGeometry x="200" y="655" width="60" height="30" as="geometry" />
        </mxCell>
        <mxCell id="vN3kP4pHd-1gidfyCN6H-30" value="&lt;div&gt;&lt;span style=&quot;background-color: transparent; color: light-dark(rgb(0, 0, 0), rgb(255, 255, 255)); font-size: 6px;&quot;&gt;&amp;nbsp;ing.&lt;/span&gt;&lt;span style=&quot;background-color: transparent; color: light-dark(rgb(0, 0, 0), rgb(255, 255, 255)); font-size: 6px;&quot;&gt;&amp;nbsp;&lt;/span&gt;AzÃºcar&lt;/div&gt;&lt;div&gt;Sangre&amp;nbsp;&lt;/div&gt;" style="ellipse;whiteSpace=wrap;html=1;fillColor=#FFFFFF;gradientColor=#F1F1F1;strokeColor=#050505;fontSize=10;" vertex="1" parent="1">
          <mxGeometry x="150" y="675" width="60" height="35" as="geometry" />
        </mxCell>
        <mxCell id="vN3kP4pHd-1gidfyCN6H-31" value="&lt;div&gt;&lt;span style=&quot;font-size: 6px; background-color: transparent; color: light-dark(rgb(0, 0, 0), rgb(255, 255, 255));&quot;&gt;&amp;nbsp;ing.&lt;/span&gt;&lt;span style=&quot;font-size: 6px; background-color: transparent; color: light-dark(rgb(0, 0, 0), rgb(255, 255, 255));&quot;&gt;&amp;nbsp;&lt;/span&gt;Genero&lt;/div&gt;" style="ellipse;whiteSpace=wrap;html=1;fillColor=#FFFFFF;gradientColor=#F1F1F1;strokeColor=#050505;fontSize=10;" vertex="1" parent="1">
          <mxGeometry x="40" y="632.5" width="50" height="30" as="geometry" />
        </mxCell>
        <mxCell id="vN3kP4pHd-1gidfyCN6H-32" value="&lt;div&gt;&lt;span style=&quot;font-size: 6px; background-color: transparent; color: light-dark(rgb(0, 0, 0), rgb(255, 255, 255));&quot;&gt;&amp;nbsp;ing.&lt;/span&gt;&lt;span style=&quot;font-size: 6px; background-color: transparent; color: light-dark(rgb(0, 0, 0), rgb(255, 255, 255));&quot;&gt;&amp;nbsp;&lt;/span&gt;Edad&lt;/div&gt;" style="ellipse;whiteSpace=wrap;html=1;fillColor=#FFFFFF;gradientColor=#F1F1F1;strokeColor=#050505;fontSize=10;" vertex="1" parent="1">
          <mxGeometry x="85" y="660" width="50" height="30" as="geometry" />
        </mxCell>
        <mxCell id="vN3kP4pHd-1gidfyCN6H-33" value="&lt;div&gt;&lt;span style=&quot;font-size: 6px; background-color: transparent; color: light-dark(rgb(0, 0, 0), rgb(255, 255, 255));&quot;&gt;&amp;nbsp;ing.&lt;/span&gt;&lt;span style=&quot;font-size: 6px; background-color: transparent; color: light-dark(rgb(0, 0, 0), rgb(255, 255, 255));&quot;&gt;&amp;nbsp;&lt;/span&gt;Telefono&lt;/div&gt;" style="ellipse;whiteSpace=wrap;html=1;fillColor=#FFFFFF;gradientColor=#F1F1F1;strokeColor=#050505;fontSize=10;" vertex="1" parent="1">
          <mxGeometry x="130" y="635" width="60" height="30" as="geometry" />
        </mxCell>
        <mxCell id="vN3kP4pHd-1gidfyCN6H-34" value="&lt;span style=&quot;color: light-dark(rgb(0, 0, 0), rgb(255, 255, 255)); background-color: transparent; font-size: 6px;&quot;&gt;ing.&lt;/span&gt;&lt;span style=&quot;color: light-dark(rgb(0, 0, 0), rgb(255, 255, 255)); background-color: transparent; font-size: 6px;&quot;&gt;&amp;nbsp;&lt;/span&gt;Comobilidades" style="ellipse;whiteSpace=wrap;html=1;fillColor=#FFFFFF;gradientColor=#F1F1F1;strokeColor=#050505;fontSize=10;" vertex="1" parent="1">
          <mxGeometry x="220" y="695" width="85" height="30" as="geometry" />
        </mxCell>
        <mxCell id="vN3kP4pHd-1gidfyCN6H-35" value="&lt;div&gt;&lt;span style=&quot;background-color: transparent; color: light-dark(rgb(0, 0, 0), rgb(255, 255, 255)); font-size: 6px;&quot;&gt;ing.&lt;/span&gt;&lt;span style=&quot;background-color: transparent; color: light-dark(rgb(0, 0, 0), rgb(255, 255, 255)); font-size: 6px;&quot;&gt;&amp;nbsp;&lt;/span&gt;Funcionalidad&lt;/div&gt;" style="ellipse;whiteSpace=wrap;html=1;fillColor=#FFFFFF;gradientColor=#F1F1F1;strokeColor=#050505;fontSize=10;" vertex="1" parent="1">
          <mxGeometry x="310" y="695" width="80" height="30" as="geometry" />
        </mxCell>
        <mxCell id="vN3kP4pHd-1gidfyCN6H-36" value="&lt;span style=&quot;color: light-dark(rgb(0, 0, 0), rgb(255, 255, 255)); background-color: transparent; font-size: 6px;&quot;&gt;ing.&lt;/span&gt;&lt;span style=&quot;color: light-dark(rgb(0, 0, 0), rgb(255, 255, 255)); background-color: transparent; font-size: 6px;&quot;&gt;&amp;nbsp;&lt;/span&gt;Derivacion" style="ellipse;whiteSpace=wrap;html=1;fillColor=#FFFFFF;gradientColor=#F1F1F1;strokeColor=#050505;fontSize=10;" vertex="1" parent="1">
          <mxGeometry x="270" y="665" width="70" height="30" as="geometry" />
        </mxCell>
        <mxCell id="vN3kP4pHd-1gidfyCN6H-37" value="&lt;span style=&quot;color: light-dark(rgb(0, 0, 0), rgb(255, 255, 255)); background-color: transparent; font-size: 6px;&quot;&gt;ing.&lt;/span&gt;&lt;span style=&quot;color: light-dark(rgb(0, 0, 0), rgb(255, 255, 255)); background-color: transparent; font-size: 6px;&quot;&gt;&amp;nbsp;&lt;/span&gt;Evaluacion" style="ellipse;whiteSpace=wrap;html=1;fillColor=#FFFFFF;gradientColor=#F1F1F1;strokeColor=#050505;fontSize=10;" vertex="1" parent="1">
          <mxGeometry x="350" y="665" width="62.5" height="30" as="geometry" />
        </mxCell>
        <mxCell id="vN3kP4pHd-1gidfyCN6H-38" value="&lt;span style=&quot;color: light-dark(rgb(0, 0, 0), rgb(255, 255, 255)); background-color: transparent; font-size: 6px;&quot;&gt;ing.&lt;/span&gt;&lt;span style=&quot;color: light-dark(rgb(0, 0, 0), rgb(255, 255, 255)); background-color: transparent; font-size: 6px;&quot;&gt;&amp;nbsp;&lt;/span&gt;Alergia" style="ellipse;whiteSpace=wrap;html=1;fillColor=#FFFFFF;gradientColor=#F1F1F1;strokeColor=#050505;fontSize=10;" vertex="1" parent="1">
          <mxGeometry x="402.5" y="695" width="50" height="30" as="geometry" />
        </mxCell>
        <mxCell id="vN3kP4pHd-1gidfyCN6H-39" value="&lt;span style=&quot;color: light-dark(rgb(0, 0, 0), rgb(255, 255, 255)); background-color: transparent; font-size: 6px;&quot;&gt;ing.&lt;/span&gt;&lt;span style=&quot;color: light-dark(rgb(0, 0, 0), rgb(255, 255, 255)); background-color: transparent; font-size: 6px;&quot;&gt;&amp;nbsp;&lt;/span&gt;Motivo" style="ellipse;whiteSpace=wrap;html=1;fillColor=#FFFFFF;gradientColor=#F1F1F1;strokeColor=#050505;fontSize=10;" vertex="1" parent="1">
          <mxGeometry x="422.5" y="655" width="50" height="30" as="geometry" />
        </mxCell>
        <mxCell id="vN3kP4pHd-1gidfyCN6H-40" value="&lt;div&gt;&lt;span style=&quot;background-color: transparent; color: light-dark(rgb(0, 0, 0), rgb(255, 255, 255)); font-size: 6px;&quot;&gt;ing.&lt;/span&gt;&lt;span style=&quot;background-color: transparent; color: light-dark(rgb(0, 0, 0), rgb(255, 255, 255)); font-size: 6px;&quot;&gt;&amp;nbsp;&lt;/span&gt;F/C&lt;/div&gt;" style="ellipse;whiteSpace=wrap;html=1;fillColor=#FFFFFF;gradientColor=#F1F1F1;strokeColor=#050505;fontSize=10;" vertex="1" parent="1">
          <mxGeometry x="487.5" y="635" width="50" height="30" as="geometry" />
        </mxCell>
        <mxCell id="vN3kP4pHd-1gidfyCN6H-41" value="&lt;div&gt;&lt;span style=&quot;background-color: transparent; color: light-dark(rgb(0, 0, 0), rgb(255, 255, 255)); font-size: 6px;&quot;&gt;ing.&lt;/span&gt;&lt;span style=&quot;background-color: transparent; color: light-dark(rgb(0, 0, 0), rgb(255, 255, 255)); font-size: 6px;&quot;&gt;&amp;nbsp;&lt;/span&gt;Temperatura&lt;/div&gt;" style="ellipse;whiteSpace=wrap;html=1;fillColor=#FFFFFF;gradientColor=#F1F1F1;strokeColor=#050505;fontSize=10;" vertex="1" parent="1">
          <mxGeometry x="467.5" y="680" width="70" height="30" as="geometry" />
        </mxCell>
        <mxCell id="vN3kP4pHd-1gidfyCN6H-42" value="&lt;span style=&quot;color: light-dark(rgb(0, 0, 0), rgb(255, 255, 255)); background-color: transparent; font-size: 6px;&quot;&gt;ing.&lt;/span&gt;&lt;span style=&quot;color: light-dark(rgb(0, 0, 0), rgb(255, 255, 255)); background-color: transparent; font-size: 6px;&quot;&gt;&amp;nbsp;&lt;/span&gt;Observaciones" style="ellipse;whiteSpace=wrap;html=1;fillColor=#FFFFFF;gradientColor=#F1F1F1;strokeColor=#050505;fontSize=10;" vertex="1" parent="1">
          <mxGeometry x="530" y="655" width="82.5" height="30" as="geometry" />
        </mxCell>
        <mxCell id="vN3kP4pHd-1gidfyCN6H-43" style="rounded=0;orthogonalLoop=1;jettySize=auto;html=1;dashed=1;exitX=0.5;exitY=1;exitDx=0;exitDy=0;entryX=0.5;entryY=0;entryDx=0;entryDy=0;" edge="1" parent="1" source="vN3kP4pHd-1gidfyCN6H-79" target="vN3kP4pHd-1gidfyCN6H-29">
          <mxGeometry relative="1" as="geometry">
            <mxPoint x="320" y="485" as="sourcePoint" />
            <mxPoint x="576" y="445" as="targetPoint" />
          </mxGeometry>
        </mxCell>
        <mxCell id="vN3kP4pHd-1gidfyCN6H-44" value="&lt;font style=&quot;font-size: 7px;&quot;&gt;&amp;lt;&amp;lt;include&amp;gt;&amp;gt;&lt;/font&gt;" style="edgeLabel;html=1;align=center;verticalAlign=middle;resizable=0;points=[];" vertex="1" connectable="0" parent="vN3kP4pHd-1gidfyCN6H-43">
          <mxGeometry x="-0.0434" y="1" relative="1" as="geometry">
            <mxPoint as="offset" />
          </mxGeometry>
        </mxCell>
        <mxCell id="vN3kP4pHd-1gidfyCN6H-45" style="rounded=0;orthogonalLoop=1;jettySize=auto;html=1;dashed=1;exitX=0.5;exitY=1;exitDx=0;exitDy=0;entryX=0.5;entryY=0;entryDx=0;entryDy=0;" edge="1" parent="1" source="vN3kP4pHd-1gidfyCN6H-79" target="vN3kP4pHd-1gidfyCN6H-30">
          <mxGeometry relative="1" as="geometry">
            <mxPoint x="320" y="485" as="sourcePoint" />
            <mxPoint x="546" y="525" as="targetPoint" />
          </mxGeometry>
        </mxCell>
        <mxCell id="vN3kP4pHd-1gidfyCN6H-46" value="&lt;font style=&quot;font-size: 7px;&quot;&gt;&amp;lt;&amp;lt;include&amp;gt;&amp;gt;&lt;/font&gt;" style="edgeLabel;html=1;align=center;verticalAlign=middle;resizable=0;points=[];" vertex="1" connectable="0" parent="vN3kP4pHd-1gidfyCN6H-45">
          <mxGeometry x="-0.0434" y="1" relative="1" as="geometry">
            <mxPoint as="offset" />
          </mxGeometry>
        </mxCell>
        <mxCell id="vN3kP4pHd-1gidfyCN6H-47" style="rounded=0;orthogonalLoop=1;jettySize=auto;html=1;dashed=1;entryX=0.5;entryY=0;entryDx=0;entryDy=0;exitX=0.5;exitY=1;exitDx=0;exitDy=0;" edge="1" parent="1" source="vN3kP4pHd-1gidfyCN6H-78" target="vN3kP4pHd-1gidfyCN6H-32">
          <mxGeometry relative="1" as="geometry">
            <mxPoint x="270" y="490" as="sourcePoint" />
            <mxPoint x="381" y="540" as="targetPoint" />
          </mxGeometry>
        </mxCell>
        <mxCell id="vN3kP4pHd-1gidfyCN6H-48" value="&lt;font style=&quot;font-size: 7px;&quot;&gt;&amp;lt;&amp;lt;include&amp;gt;&amp;gt;&lt;/font&gt;" style="edgeLabel;html=1;align=center;verticalAlign=middle;resizable=0;points=[];" vertex="1" connectable="0" parent="vN3kP4pHd-1gidfyCN6H-47">
          <mxGeometry x="-0.0434" y="1" relative="1" as="geometry">
            <mxPoint as="offset" />
          </mxGeometry>
        </mxCell>
        <mxCell id="vN3kP4pHd-1gidfyCN6H-49" style="rounded=0;orthogonalLoop=1;jettySize=auto;html=1;dashed=1;entryX=0.5;entryY=0;entryDx=0;entryDy=0;exitX=0.5;exitY=1;exitDx=0;exitDy=0;" edge="1" parent="1" source="vN3kP4pHd-1gidfyCN6H-79" target="vN3kP4pHd-1gidfyCN6H-34">
          <mxGeometry relative="1" as="geometry">
            <mxPoint x="320" y="485" as="sourcePoint" />
            <mxPoint x="551" y="605" as="targetPoint" />
          </mxGeometry>
        </mxCell>
        <mxCell id="vN3kP4pHd-1gidfyCN6H-50" value="&lt;font style=&quot;font-size: 7px;&quot;&gt;&amp;lt;&amp;lt;include&amp;gt;&amp;gt;&lt;/font&gt;" style="edgeLabel;html=1;align=center;verticalAlign=middle;resizable=0;points=[];" vertex="1" connectable="0" parent="vN3kP4pHd-1gidfyCN6H-49">
          <mxGeometry x="-0.0434" y="1" relative="1" as="geometry">
            <mxPoint as="offset" />
          </mxGeometry>
        </mxCell>
        <mxCell id="vN3kP4pHd-1gidfyCN6H-51" style="rounded=0;orthogonalLoop=1;jettySize=auto;html=1;dashed=1;exitX=0.5;exitY=1;exitDx=0;exitDy=0;entryX=0.5;entryY=0;entryDx=0;entryDy=0;" edge="1" parent="1" source="vN3kP4pHd-1gidfyCN6H-78" target="vN3kP4pHd-1gidfyCN6H-33">
          <mxGeometry relative="1" as="geometry">
            <mxPoint x="270" y="490" as="sourcePoint" />
            <mxPoint x="381" y="630" as="targetPoint" />
          </mxGeometry>
        </mxCell>
        <mxCell id="vN3kP4pHd-1gidfyCN6H-52" value="&lt;font style=&quot;font-size: 7px;&quot;&gt;&amp;lt;&amp;lt;include&amp;gt;&amp;gt;&lt;/font&gt;" style="edgeLabel;html=1;align=center;verticalAlign=middle;resizable=0;points=[];" vertex="1" connectable="0" parent="vN3kP4pHd-1gidfyCN6H-51">
          <mxGeometry x="-0.0434" y="1" relative="1" as="geometry">
            <mxPoint as="offset" />
          </mxGeometry>
        </mxCell>
        <mxCell id="vN3kP4pHd-1gidfyCN6H-53" style="rounded=0;orthogonalLoop=1;jettySize=auto;html=1;dashed=1;exitX=0.5;exitY=1;exitDx=0;exitDy=0;entryX=0.5;entryY=0;entryDx=0;entryDy=0;" edge="1" parent="1" source="vN3kP4pHd-1gidfyCN6H-79" target="vN3kP4pHd-1gidfyCN6H-36">
          <mxGeometry relative="1" as="geometry">
            <mxPoint x="320" y="485" as="sourcePoint" />
            <mxPoint x="486" y="645" as="targetPoint" />
          </mxGeometry>
        </mxCell>
        <mxCell id="vN3kP4pHd-1gidfyCN6H-54" value="&lt;font style=&quot;font-size: 7px;&quot;&gt;&amp;lt;&amp;lt;include&amp;gt;&amp;gt;&lt;/font&gt;" style="edgeLabel;html=1;align=center;verticalAlign=middle;resizable=0;points=[];" vertex="1" connectable="0" parent="vN3kP4pHd-1gidfyCN6H-53">
          <mxGeometry x="-0.0434" y="1" relative="1" as="geometry">
            <mxPoint as="offset" />
          </mxGeometry>
        </mxCell>
        <mxCell id="vN3kP4pHd-1gidfyCN6H-55" style="rounded=0;orthogonalLoop=1;jettySize=auto;html=1;dashed=1;entryX=0.5;entryY=0;entryDx=0;entryDy=0;exitX=0.5;exitY=1;exitDx=0;exitDy=0;" edge="1" parent="1" source="vN3kP4pHd-1gidfyCN6H-79" target="vN3kP4pHd-1gidfyCN6H-35">
          <mxGeometry relative="1" as="geometry">
            <mxPoint x="320" y="485" as="sourcePoint" />
            <mxPoint x="536" y="605" as="targetPoint" />
          </mxGeometry>
        </mxCell>
        <mxCell id="vN3kP4pHd-1gidfyCN6H-56" value="&lt;font style=&quot;font-size: 7px;&quot;&gt;&amp;lt;&amp;lt;include&amp;gt;&amp;gt;&lt;/font&gt;" style="edgeLabel;html=1;align=center;verticalAlign=middle;resizable=0;points=[];" vertex="1" connectable="0" parent="vN3kP4pHd-1gidfyCN6H-55">
          <mxGeometry x="-0.0434" y="1" relative="1" as="geometry">
            <mxPoint as="offset" />
          </mxGeometry>
        </mxCell>
        <mxCell id="vN3kP4pHd-1gidfyCN6H-57" style="rounded=0;orthogonalLoop=1;jettySize=auto;html=1;dashed=1;exitX=0.5;exitY=1;exitDx=0;exitDy=0;entryX=0.5;entryY=0;entryDx=0;entryDy=0;" edge="1" parent="1" source="vN3kP4pHd-1gidfyCN6H-79" target="vN3kP4pHd-1gidfyCN6H-37">
          <mxGeometry relative="1" as="geometry">
            <mxPoint x="320" y="485" as="sourcePoint" />
            <mxPoint x="486" y="675" as="targetPoint" />
          </mxGeometry>
        </mxCell>
        <mxCell id="vN3kP4pHd-1gidfyCN6H-58" value="&lt;font style=&quot;font-size: 7px;&quot;&gt;&amp;lt;&amp;lt;include&amp;gt;&amp;gt;&lt;/font&gt;" style="edgeLabel;html=1;align=center;verticalAlign=middle;resizable=0;points=[];" vertex="1" connectable="0" parent="vN3kP4pHd-1gidfyCN6H-57">
          <mxGeometry x="-0.0434" y="1" relative="1" as="geometry">
            <mxPoint as="offset" />
          </mxGeometry>
        </mxCell>
        <mxCell id="vN3kP4pHd-1gidfyCN6H-59" style="rounded=0;orthogonalLoop=1;jettySize=auto;html=1;dashed=1;exitX=0.5;exitY=1;exitDx=0;exitDy=0;entryX=0.5;entryY=0;entryDx=0;entryDy=0;" edge="1" parent="1" source="vN3kP4pHd-1gidfyCN6H-79" target="vN3kP4pHd-1gidfyCN6H-38">
          <mxGeometry relative="1" as="geometry">
            <mxPoint x="320" y="485" as="sourcePoint" />
            <mxPoint x="440" y="695.0000000000002" as="targetPoint" />
          </mxGeometry>
        </mxCell>
        <mxCell id="vN3kP4pHd-1gidfyCN6H-60" value="&lt;font style=&quot;font-size: 7px;&quot;&gt;&amp;lt;&amp;lt;include&amp;gt;&amp;gt;&lt;/font&gt;" style="edgeLabel;html=1;align=center;verticalAlign=middle;resizable=0;points=[];" vertex="1" connectable="0" parent="vN3kP4pHd-1gidfyCN6H-59">
          <mxGeometry x="-0.0434" y="1" relative="1" as="geometry">
            <mxPoint as="offset" />
          </mxGeometry>
        </mxCell>
        <mxCell id="vN3kP4pHd-1gidfyCN6H-61" style="rounded=0;orthogonalLoop=1;jettySize=auto;html=1;dashed=1;exitX=0.5;exitY=1;exitDx=0;exitDy=0;entryX=0.5;entryY=0;entryDx=0;entryDy=0;" edge="1" parent="1" source="vN3kP4pHd-1gidfyCN6H-79" target="vN3kP4pHd-1gidfyCN6H-39">
          <mxGeometry relative="1" as="geometry">
            <mxPoint x="320" y="485" as="sourcePoint" />
            <mxPoint x="586" y="635" as="targetPoint" />
          </mxGeometry>
        </mxCell>
        <mxCell id="vN3kP4pHd-1gidfyCN6H-62" value="&lt;font style=&quot;font-size: 7px;&quot;&gt;&amp;lt;&amp;lt;include&amp;gt;&amp;gt;&lt;/font&gt;" style="edgeLabel;html=1;align=center;verticalAlign=middle;resizable=0;points=[];" vertex="1" connectable="0" parent="vN3kP4pHd-1gidfyCN6H-61">
          <mxGeometry x="-0.0434" y="1" relative="1" as="geometry">
            <mxPoint x="2" y="2" as="offset" />
          </mxGeometry>
        </mxCell>
        <mxCell id="vN3kP4pHd-1gidfyCN6H-63" style="rounded=0;orthogonalLoop=1;jettySize=auto;html=1;dashed=1;entryX=0.5;entryY=0;entryDx=0;entryDy=0;exitX=0.5;exitY=1;exitDx=0;exitDy=0;" edge="1" parent="1" source="vN3kP4pHd-1gidfyCN6H-79" target="vN3kP4pHd-1gidfyCN6H-41">
          <mxGeometry relative="1" as="geometry">
            <mxPoint x="320" y="485" as="sourcePoint" />
            <mxPoint x="666" y="635" as="targetPoint" />
          </mxGeometry>
        </mxCell>
        <mxCell id="vN3kP4pHd-1gidfyCN6H-64" value="&lt;font style=&quot;font-size: 7px;&quot;&gt;&amp;lt;&amp;lt;include&amp;gt;&amp;gt;&lt;/font&gt;" style="edgeLabel;html=1;align=center;verticalAlign=middle;resizable=0;points=[];" vertex="1" connectable="0" parent="vN3kP4pHd-1gidfyCN6H-63">
          <mxGeometry x="-0.0434" y="1" relative="1" as="geometry">
            <mxPoint as="offset" />
          </mxGeometry>
        </mxCell>
        <mxCell id="vN3kP4pHd-1gidfyCN6H-65" style="rounded=0;orthogonalLoop=1;jettySize=auto;html=1;dashed=1;exitX=0.5;exitY=1;exitDx=0;exitDy=0;entryX=0.5;entryY=0;entryDx=0;entryDy=0;" edge="1" parent="1" source="vN3kP4pHd-1gidfyCN6H-79" target="vN3kP4pHd-1gidfyCN6H-40">
          <mxGeometry relative="1" as="geometry">
            <mxPoint x="320" y="485" as="sourcePoint" />
            <mxPoint x="656" y="665" as="targetPoint" />
          </mxGeometry>
        </mxCell>
        <mxCell id="vN3kP4pHd-1gidfyCN6H-66" value="&lt;font style=&quot;font-size: 7px;&quot;&gt;&amp;lt;&amp;lt;include&amp;gt;&amp;gt;&lt;/font&gt;" style="edgeLabel;html=1;align=center;verticalAlign=middle;resizable=0;points=[];" vertex="1" connectable="0" parent="vN3kP4pHd-1gidfyCN6H-65">
          <mxGeometry x="-0.0434" y="1" relative="1" as="geometry">
            <mxPoint as="offset" />
          </mxGeometry>
        </mxCell>
        <mxCell id="vN3kP4pHd-1gidfyCN6H-67" style="rounded=0;orthogonalLoop=1;jettySize=auto;html=1;dashed=1;exitX=0.5;exitY=1;exitDx=0;exitDy=0;entryX=0.5;entryY=0;entryDx=0;entryDy=0;" edge="1" parent="1" source="vN3kP4pHd-1gidfyCN6H-79" target="vN3kP4pHd-1gidfyCN6H-42">
          <mxGeometry relative="1" as="geometry">
            <mxPoint x="320" y="485" as="sourcePoint" />
            <mxPoint x="706" y="645" as="targetPoint" />
          </mxGeometry>
        </mxCell>
        <mxCell id="vN3kP4pHd-1gidfyCN6H-68" value="&lt;font style=&quot;font-size: 7px;&quot;&gt;&amp;lt;&amp;lt;include&amp;gt;&amp;gt;&lt;/font&gt;" style="edgeLabel;html=1;align=center;verticalAlign=middle;resizable=0;points=[];" vertex="1" connectable="0" parent="vN3kP4pHd-1gidfyCN6H-67">
          <mxGeometry x="-0.0434" y="1" relative="1" as="geometry">
            <mxPoint as="offset" />
          </mxGeometry>
        </mxCell>
        <mxCell id="vN3kP4pHd-1gidfyCN6H-69" style="rounded=0;orthogonalLoop=1;jettySize=auto;html=1;dashed=1;exitX=0.5;exitY=1;exitDx=0;exitDy=0;entryX=1;entryY=0;entryDx=0;entryDy=0;" edge="1" parent="1" source="vN3kP4pHd-1gidfyCN6H-78" target="vN3kP4pHd-1gidfyCN6H-31">
          <mxGeometry relative="1" as="geometry">
            <mxPoint x="270" y="490" as="sourcePoint" />
            <mxPoint x="601" y="530" as="targetPoint" />
          </mxGeometry>
        </mxCell>
        <mxCell id="vN3kP4pHd-1gidfyCN6H-70" value="&lt;font style=&quot;font-size: 7px;&quot;&gt;&amp;lt;&amp;lt;include&amp;gt;&amp;gt;&lt;/font&gt;" style="edgeLabel;html=1;align=center;verticalAlign=middle;resizable=0;points=[];" vertex="1" connectable="0" parent="vN3kP4pHd-1gidfyCN6H-69">
          <mxGeometry x="-0.0434" y="1" relative="1" as="geometry">
            <mxPoint as="offset" />
          </mxGeometry>
        </mxCell>
        <mxCell id="vN3kP4pHd-1gidfyCN6H-71" style="edgeStyle=orthogonalEdgeStyle;rounded=0;orthogonalLoop=1;jettySize=auto;html=1;exitX=0.5;exitY=1;exitDx=0;exitDy=0;" edge="1" parent="1" source="vN3kP4pHd-1gidfyCN6H-40" target="vN3kP4pHd-1gidfyCN6H-40">
          <mxGeometry relative="1" as="geometry" />
        </mxCell>
        <mxCell id="vN3kP4pHd-1gidfyCN6H-78" value="Rellenar datos de paciente" style="ellipse;whiteSpace=wrap;html=1;fillColor=#FFFFFF;gradientColor=#F1F1F1;strokeColor=#050505;fontSize=10;" vertex="1" parent="1">
          <mxGeometry x="160" y="435" width="90" height="50" as="geometry" />
        </mxCell>
        <mxCell id="vN3kP4pHd-1gidfyCN6H-79" value="Rellenar antecedentes medicos" style="ellipse;whiteSpace=wrap;html=1;fillColor=#FFFFFF;gradientColor=#F1F1F1;strokeColor=#050505;fontSize=10;" vertex="1" parent="1">
          <mxGeometry x="270" y="440" width="90" height="50" as="geometry" />
        </mxCell>
        <mxCell id="vN3kP4pHd-1gidfyCN6H-82" style="rounded=0;orthogonalLoop=1;jettySize=auto;html=1;dashed=1;exitX=0.5;exitY=1;exitDx=0;exitDy=0;entryX=0.5;entryY=0;entryDx=0;entryDy=0;" edge="1" parent="1" source="6U4AAA-lf9R21xQM8rmU-2" target="vN3kP4pHd-1gidfyCN6H-79">
          <mxGeometry relative="1" as="geometry">
            <mxPoint x="230" y="419" as="sourcePoint" />
            <mxPoint x="336" y="410" as="targetPoint" />
          </mxGeometry>
        </mxCell>
        <mxCell id="vN3kP4pHd-1gidfyCN6H-83" value="&lt;font style=&quot;font-size: 7px;&quot;&gt;&amp;lt;&amp;lt;include&amp;gt;&amp;gt;&lt;/font&gt;" style="edgeLabel;html=1;align=center;verticalAlign=middle;resizable=0;points=[];" vertex="1" connectable="0" parent="vN3kP4pHd-1gidfyCN6H-82">
          <mxGeometry x="-0.0434" y="1" relative="1" as="geometry">
            <mxPoint as="offset" />
          </mxGeometry>
        </mxCell>
        <mxCell id="vN3kP4pHd-1gidfyCN6H-84" style="rounded=0;orthogonalLoop=1;jettySize=auto;html=1;dashed=1;exitX=0.5;exitY=1;exitDx=0;exitDy=0;entryX=0.5;entryY=0;entryDx=0;entryDy=0;" edge="1" parent="1" source="6U4AAA-lf9R21xQM8rmU-2" target="vN3kP4pHd-1gidfyCN6H-78">
          <mxGeometry relative="1" as="geometry">
            <mxPoint x="230" y="419" as="sourcePoint" />
            <mxPoint x="336" y="410" as="targetPoint" />
          </mxGeometry>
        </mxCell>
        <mxCell id="vN3kP4pHd-1gidfyCN6H-85" value="&lt;font style=&quot;font-size: 7px;&quot;&gt;&amp;lt;&amp;lt;include&amp;gt;&amp;gt;&lt;/font&gt;" style="edgeLabel;html=1;align=center;verticalAlign=middle;resizable=0;points=[];" vertex="1" connectable="0" parent="vN3kP4pHd-1gidfyCN6H-84">
          <mxGeometry x="-0.0434" y="1" relative="1" as="geometry">
            <mxPoint as="offset" />
          </mxGeometry>
        </mxCell>
        <mxCell id="vN3kP4pHd-1gidfyCN6H-88" value="&lt;div&gt;&lt;span style=&quot;font-size: 6px; background-color: transparent; color: light-dark(rgb(0, 0, 0), rgb(255, 255, 255));&quot;&gt;&amp;nbsp;ing.&lt;/span&gt;&lt;span style=&quot;font-size: 6px; background-color: transparent; color: light-dark(rgb(0, 0, 0), rgb(255, 255, 255));&quot;&gt;&amp;nbsp;&lt;/span&gt;Nombre&lt;/div&gt;" style="ellipse;whiteSpace=wrap;html=1;fillColor=#FFFFFF;gradientColor=#F1F1F1;strokeColor=#050505;fontSize=10;" vertex="1" parent="1">
          <mxGeometry x="60" y="597.5" width="50" height="30" as="geometry" />
        </mxCell>
        <mxCell id="vN3kP4pHd-1gidfyCN6H-89" style="rounded=0;orthogonalLoop=1;jettySize=auto;html=1;dashed=1;exitX=0.5;exitY=1;exitDx=0;exitDy=0;entryX=0.5;entryY=0;entryDx=0;entryDy=0;" edge="1" parent="1" target="vN3kP4pHd-1gidfyCN6H-88" source="vN3kP4pHd-1gidfyCN6H-78">
          <mxGeometry relative="1" as="geometry">
            <mxPoint x="102.5" y="435" as="sourcePoint" />
            <mxPoint x="278.5" y="580" as="targetPoint" />
          </mxGeometry>
        </mxCell>
        <mxCell id="vN3kP4pHd-1gidfyCN6H-90" value="&lt;font style=&quot;font-size: 7px;&quot;&gt;&amp;lt;&amp;lt;include&amp;gt;&amp;gt;&lt;/font&gt;" style="edgeLabel;html=1;align=center;verticalAlign=middle;resizable=0;points=[];" vertex="1" connectable="0" parent="vN3kP4pHd-1gidfyCN6H-89">
          <mxGeometry x="-0.0434" y="1" relative="1" as="geometry">
            <mxPoint as="offset" />
          </mxGeometry>
        </mxCell>
        <mxCell id="vN3kP4pHd-1gidfyCN6H-94" value="&lt;font style=&quot;font-size: 6px;&quot;&gt;&amp;nbsp;ing. &lt;/font&gt;rut" style="ellipse;whiteSpace=wrap;html=1;fillColor=#FFFFFF;gradientColor=#F1F1F1;strokeColor=#050505;fontSize=10;" vertex="1" parent="1">
          <mxGeometry x="20" y="567.5" width="50" height="30" as="geometry" />
        </mxCell>
        <mxCell id="vN3kP4pHd-1gidfyCN6H-95" style="rounded=0;orthogonalLoop=1;jettySize=auto;html=1;dashed=1;exitX=0.5;exitY=1;exitDx=0;exitDy=0;entryX=0.5;entryY=0;entryDx=0;entryDy=0;" edge="1" parent="1" target="vN3kP4pHd-1gidfyCN6H-94" source="vN3kP4pHd-1gidfyCN6H-78">
          <mxGeometry relative="1" as="geometry">
            <mxPoint x="102.5" y="400" as="sourcePoint" />
            <mxPoint x="278.5" y="545" as="targetPoint" />
          </mxGeometry>
        </mxCell>
        <mxCell id="vN3kP4pHd-1gidfyCN6H-96" value="&lt;font style=&quot;font-size: 7px;&quot;&gt;&amp;lt;&amp;lt;include&amp;gt;&amp;gt;&lt;/font&gt;" style="edgeLabel;html=1;align=center;verticalAlign=middle;resizable=0;points=[];" vertex="1" connectable="0" parent="vN3kP4pHd-1gidfyCN6H-95">
          <mxGeometry x="-0.0434" y="1" relative="1" as="geometry">
            <mxPoint as="offset" />
          </mxGeometry>
        </mxCell>
        <mxCell id="vN3kP4pHd-1gidfyCN6H-99" value="&lt;span style=&quot;color: light-dark(rgb(0, 0, 0), rgb(255, 255, 255)); background-color: transparent; font-size: 6px;&quot;&gt;ing.&lt;/span&gt;&lt;span style=&quot;color: light-dark(rgb(0, 0, 0), rgb(255, 255, 255)); background-color: transparent; font-size: 6px;&quot;&gt;&amp;nbsp;&lt;/span&gt;Tipo Sangre" style="ellipse;whiteSpace=wrap;html=1;fillColor=#FFFFFF;gradientColor=#F1F1F1;strokeColor=#050505;fontSize=10;" vertex="1" parent="1">
          <mxGeometry x="550" y="610" width="70" height="30" as="geometry" />
        </mxCell>
        <mxCell id="vN3kP4pHd-1gidfyCN6H-100" style="rounded=0;orthogonalLoop=1;jettySize=auto;html=1;dashed=1;exitX=0.5;exitY=1;exitDx=0;exitDy=0;entryX=0.5;entryY=0;entryDx=0;entryDy=0;" edge="1" parent="1" source="vN3kP4pHd-1gidfyCN6H-79" target="vN3kP4pHd-1gidfyCN6H-99">
          <mxGeometry relative="1" as="geometry">
            <mxPoint x="480" y="570" as="sourcePoint" />
            <mxPoint x="698" y="705" as="targetPoint" />
          </mxGeometry>
        </mxCell>
        <mxCell id="vN3kP4pHd-1gidfyCN6H-101" value="&lt;font style=&quot;font-size: 7px;&quot;&gt;&amp;lt;&amp;lt;include&amp;gt;&amp;gt;&lt;/font&gt;" style="edgeLabel;html=1;align=center;verticalAlign=middle;resizable=0;points=[];" vertex="1" connectable="0" parent="vN3kP4pHd-1gidfyCN6H-100">
          <mxGeometry x="-0.0434" y="1" relative="1" as="geometry">
            <mxPoint as="offset" />
          </mxGeometry>
        </mxCell>
        <mxCell id="Vu_-6fpMWB3TCORpC9Rd-1" value="Exportar en excel" style="ellipse;whiteSpace=wrap;html=1;fillColor=#FFFFFF;gradientColor=#F1F1F1;strokeColor=#050505;fontSize=10;" vertex="1" parent="1">
          <mxGeometry x="620" y="500" width="80" height="40" as="geometry" />
        </mxCell>
        <mxCell id="Vu_-6fpMWB3TCORpC9Rd-3" value="Exportar pdf" style="ellipse;whiteSpace=wrap;html=1;fillColor=#FFFFFF;gradientColor=#F1F1F1;strokeColor=#050505;fontSize=10;" vertex="1" parent="1">
          <mxGeometry x="520" y="500" width="80" height="40" as="geometry" />
        </mxCell>
      </root>
    </mxGraphModel>
  </diagram>
  <diagram id="G5EK50WYAFNhMdVRnCrR" name="Secuencia">
    <mxGraphModel dx="1426" dy="750" grid="1" gridSize="10" guides="1" tooltips="1" connect="1" arrows="1" fold="1" page="1" pageScale="1" pageWidth="827" pageHeight="1169" math="0" shadow="0">
      <root>
        <mxCell id="0" />
        <mxCell id="1" parent="0" />
        <mxCell id="kjp3VHHz3tLaPo_W6ad_-1" value="Paramedico" style="shape=umlActor;verticalLabelPosition=bottom;verticalAlign=top;html=1;outlineConnect=0;" parent="1" vertex="1">
          <mxGeometry x="90" y="200" width="20" height="40" as="geometry" />
        </mxCell>
        <mxCell id="kjp3VHHz3tLaPo_W6ad_-3" value="" style="endArrow=none;html=1;rounded=0;" parent="1" edge="1">
          <mxGeometry width="50" height="50" relative="1" as="geometry">
            <mxPoint x="100" y="720" as="sourcePoint" />
            <mxPoint x="100" y="280" as="targetPoint" />
          </mxGeometry>
        </mxCell>
        <mxCell id="kjp3VHHz3tLaPo_W6ad_-2" value="" style="endArrow=none;html=1;rounded=0;shape=flexArrow;fillColor=light-dark(#ffffff, #1a1a1a);gradientColor=light-dark(#f0f0f0, #535353);strokeColor=#000000;" parent="1" edge="1">
          <mxGeometry width="50" height="50" relative="1" as="geometry">
            <mxPoint x="100" y="530" as="sourcePoint" />
            <mxPoint x="100" y="310" as="targetPoint" />
          </mxGeometry>
        </mxCell>
        <mxCell id="kjp3VHHz3tLaPo_W6ad_-8" value="" style="endArrow=none;html=1;rounded=0;" parent="1" edge="1">
          <mxGeometry width="50" height="50" relative="1" as="geometry">
            <mxPoint x="420" y="720" as="sourcePoint" />
            <mxPoint x="420" y="280" as="targetPoint" />
            <Array as="points">
              <mxPoint x="420" y="400" />
            </Array>
          </mxGeometry>
        </mxCell>
        <mxCell id="kjp3VHHz3tLaPo_W6ad_-13" value="Coordinador&lt;div&gt;de urgencias&lt;/div&gt;" style="shape=umlActor;verticalLabelPosition=bottom;verticalAlign=top;html=1;outlineConnect=0;" parent="1" vertex="1">
          <mxGeometry x="730" y="200" width="20" height="40" as="geometry" />
        </mxCell>
        <mxCell id="kjp3VHHz3tLaPo_W6ad_-14" value="" style="endArrow=none;html=1;rounded=0;" parent="1" source="fkWQTK0O395qIvkpwu9k-3" edge="1">
          <mxGeometry width="50" height="50" relative="1" as="geometry">
            <mxPoint x="740" y="680" as="sourcePoint" />
            <mxPoint x="740" y="280" as="targetPoint" />
          </mxGeometry>
        </mxCell>
        <mxCell id="kjp3VHHz3tLaPo_W6ad_-15" value="" style="endArrow=none;html=1;rounded=0;shape=flexArrow;fillColor=light-dark(#ffffff, #1a1a1a);gradientColor=light-dark(#f0f0f0, #535353);strokeColor=#000000;" parent="1" edge="1">
          <mxGeometry width="50" height="50" relative="1" as="geometry">
            <mxPoint x="740" y="690" as="sourcePoint" />
            <mxPoint x="740" y="350" as="targetPoint" />
          </mxGeometry>
        </mxCell>
        <mxCell id="4Sc3ec-6qv8xjf8Ng-Rm-3" value="" style="endArrow=classic;html=1;rounded=0;" parent="1" edge="1">
          <mxGeometry width="50" height="50" relative="1" as="geometry">
            <mxPoint x="110" y="320" as="sourcePoint" />
            <mxPoint x="250" y="320" as="targetPoint" />
          </mxGeometry>
        </mxCell>
        <mxCell id="4Sc3ec-6qv8xjf8Ng-Rm-27" value="Inicio&lt;div&gt;de sesion&lt;/div&gt;" style="edgeLabel;html=1;align=center;verticalAlign=middle;resizable=0;points=[];fontSize=9;" parent="4Sc3ec-6qv8xjf8Ng-Rm-3" vertex="1" connectable="0">
          <mxGeometry x="-0.0923" y="1" relative="1" as="geometry">
            <mxPoint x="6" as="offset" />
          </mxGeometry>
        </mxCell>
        <mxCell id="4Sc3ec-6qv8xjf8Ng-Rm-9" value="" style="endArrow=none;html=1;rounded=0;" parent="1" edge="1">
          <mxGeometry width="50" height="50" relative="1" as="geometry">
            <mxPoint x="260" y="720" as="sourcePoint" />
            <mxPoint x="260" y="280" as="targetPoint" />
          </mxGeometry>
        </mxCell>
        <mxCell id="4Sc3ec-6qv8xjf8Ng-Rm-10" value="" style="endArrow=none;html=1;rounded=0;shape=flexArrow;fillColor=light-dark(#ffffff, #1a1a1a);gradientColor=light-dark(#f0f0f0, #535353);strokeColor=#000000;" parent="1" edge="1">
          <mxGeometry width="50" height="50" relative="1" as="geometry">
            <mxPoint x="260" y="370" as="sourcePoint" />
            <mxPoint x="260" y="310" as="targetPoint" />
          </mxGeometry>
        </mxCell>
        <mxCell id="4Sc3ec-6qv8xjf8Ng-Rm-17" value="" style="group" parent="1" vertex="1" connectable="0">
          <mxGeometry x="230" y="200" width="60" height="70" as="geometry" />
        </mxCell>
        <mxCell id="4Sc3ec-6qv8xjf8Ng-Rm-15" value="" style="shape=note;size=20;whiteSpace=wrap;html=1;" parent="4Sc3ec-6qv8xjf8Ng-Rm-17" vertex="1">
          <mxGeometry x="10" width="40" height="40" as="geometry" />
        </mxCell>
        <mxCell id="4Sc3ec-6qv8xjf8Ng-Rm-16" value="&lt;div&gt;&lt;font style=&quot;font-size: 9px;&quot;&gt;(Interfaz)&lt;/font&gt;&lt;/div&gt;Formulario" style="text;html=1;align=center;verticalAlign=middle;whiteSpace=wrap;rounded=0;" parent="4Sc3ec-6qv8xjf8Ng-Rm-17" vertex="1">
          <mxGeometry y="40" width="60" height="30" as="geometry" />
        </mxCell>
        <mxCell id="4Sc3ec-6qv8xjf8Ng-Rm-21" value="" style="endArrow=none;html=1;rounded=0;" parent="1" edge="1">
          <mxGeometry width="50" height="50" relative="1" as="geometry">
            <mxPoint x="580" y="720" as="sourcePoint" />
            <mxPoint x="580" y="280" as="targetPoint" />
          </mxGeometry>
        </mxCell>
        <mxCell id="4Sc3ec-6qv8xjf8Ng-Rm-22" value="" style="endArrow=none;html=1;rounded=0;shape=flexArrow;fillColor=light-dark(#ffffff, #1a1a1a);gradientColor=light-dark(#f0f0f0, #535353);strokeColor=#000000;" parent="1" edge="1">
          <mxGeometry width="50" height="50" relative="1" as="geometry">
            <mxPoint x="420" y="450" as="sourcePoint" />
            <mxPoint x="420" y="390" as="targetPoint" />
          </mxGeometry>
        </mxCell>
        <mxCell id="4Sc3ec-6qv8xjf8Ng-Rm-28" value="" style="endArrow=classic;dashed=1;html=1;rounded=0;endFill=1;" parent="1" edge="1">
          <mxGeometry width="50" height="50" relative="1" as="geometry">
            <mxPoint x="250" y="360" as="sourcePoint" />
            <mxPoint x="110" y="360" as="targetPoint" />
          </mxGeometry>
        </mxCell>
        <mxCell id="4Sc3ec-6qv8xjf8Ng-Rm-29" value="Acceso&lt;div&gt;al formulario&lt;/div&gt;" style="edgeLabel;html=1;align=center;verticalAlign=middle;resizable=0;points=[];fontSize=9;" parent="4Sc3ec-6qv8xjf8Ng-Rm-28" vertex="1" connectable="0">
          <mxGeometry x="0.0167" y="-2" relative="1" as="geometry">
            <mxPoint x="6" as="offset" />
          </mxGeometry>
        </mxCell>
        <mxCell id="4Sc3ec-6qv8xjf8Ng-Rm-30" value="" style="endArrow=classic;html=1;rounded=0;" parent="1" edge="1">
          <mxGeometry width="50" height="50" relative="1" as="geometry">
            <mxPoint x="110" y="480" as="sourcePoint" />
            <mxPoint x="250" y="480" as="targetPoint" />
          </mxGeometry>
        </mxCell>
        <mxCell id="4Sc3ec-6qv8xjf8Ng-Rm-31" value="Ingreso de&amp;nbsp;&amp;nbsp;&lt;span style=&quot;background-color: light-dark(#ffffff, var(--ge-dark-color, #121212)); color: light-dark(rgb(0, 0, 0), rgb(255, 255, 255));&quot;&gt;datos&lt;/span&gt;&lt;div&gt;&lt;span style=&quot;background-color: light-dark(#ffffff, var(--ge-dark-color, #121212)); color: light-dark(rgb(0, 0, 0), rgb(255, 255, 255));&quot;&gt;del paciente&lt;/span&gt;&lt;/div&gt;" style="edgeLabel;html=1;align=center;verticalAlign=middle;resizable=0;points=[];fontSize=9;" parent="4Sc3ec-6qv8xjf8Ng-Rm-30" vertex="1" connectable="0">
          <mxGeometry x="-0.0923" y="1" relative="1" as="geometry">
            <mxPoint x="6" as="offset" />
          </mxGeometry>
        </mxCell>
        <mxCell id="4Sc3ec-6qv8xjf8Ng-Rm-32" value="" style="endArrow=classic;html=1;rounded=0;" parent="1" edge="1">
          <mxGeometry width="50" height="50" relative="1" as="geometry">
            <mxPoint x="270" y="480" as="sourcePoint" />
            <mxPoint x="410" y="480" as="targetPoint" />
          </mxGeometry>
        </mxCell>
        <mxCell id="4Sc3ec-6qv8xjf8Ng-Rm-33" value="Envio de datos&lt;div&gt;a la BD&lt;/div&gt;" style="edgeLabel;html=1;align=center;verticalAlign=middle;resizable=0;points=[];fontSize=9;" parent="4Sc3ec-6qv8xjf8Ng-Rm-32" vertex="1" connectable="0">
          <mxGeometry x="-0.0923" y="1" relative="1" as="geometry">
            <mxPoint x="6" as="offset" />
          </mxGeometry>
        </mxCell>
        <mxCell id="4Sc3ec-6qv8xjf8Ng-Rm-35" value="" style="endArrow=classic;html=1;rounded=0;edgeStyle=orthogonalEdgeStyle;" parent="1" edge="1">
          <mxGeometry width="50" height="50" relative="1" as="geometry">
            <mxPoint x="430" y="480" as="sourcePoint" />
            <mxPoint x="430" y="520" as="targetPoint" />
            <Array as="points">
              <mxPoint x="480" y="480" />
              <mxPoint x="480" y="520" />
            </Array>
          </mxGeometry>
        </mxCell>
        <mxCell id="4Sc3ec-6qv8xjf8Ng-Rm-36" value="Comprobacion&lt;div&gt;de datos&lt;/div&gt;" style="edgeLabel;html=1;align=center;verticalAlign=middle;resizable=0;points=[];fontSize=9;" parent="4Sc3ec-6qv8xjf8Ng-Rm-35" vertex="1" connectable="0">
          <mxGeometry x="-0.0222" y="-1" relative="1" as="geometry">
            <mxPoint x="1" as="offset" />
          </mxGeometry>
        </mxCell>
        <mxCell id="4Sc3ec-6qv8xjf8Ng-Rm-37" value="" style="endArrow=classic;dashed=1;html=1;rounded=0;endFill=1;" parent="1" edge="1">
          <mxGeometry width="50" height="50" relative="1" as="geometry">
            <mxPoint x="410" y="520" as="sourcePoint" />
            <mxPoint x="270" y="520" as="targetPoint" />
          </mxGeometry>
        </mxCell>
        <mxCell id="4Sc3ec-6qv8xjf8Ng-Rm-38" value="Enviar resultado&lt;div&gt;de comprobacion&lt;/div&gt;" style="edgeLabel;html=1;align=center;verticalAlign=middle;resizable=0;points=[];fontSize=9;" parent="4Sc3ec-6qv8xjf8Ng-Rm-37" vertex="1" connectable="0">
          <mxGeometry x="0.0167" y="-2" relative="1" as="geometry">
            <mxPoint as="offset" />
          </mxGeometry>
        </mxCell>
        <mxCell id="4Sc3ec-6qv8xjf8Ng-Rm-40" value="" style="endArrow=classic;dashed=1;html=1;rounded=0;endFill=1;" parent="1" edge="1">
          <mxGeometry width="50" height="50" relative="1" as="geometry">
            <mxPoint x="250" y="520" as="sourcePoint" />
            <mxPoint x="110" y="520" as="targetPoint" />
          </mxGeometry>
        </mxCell>
        <mxCell id="4Sc3ec-6qv8xjf8Ng-Rm-41" value="Mostrar resultado&lt;div&gt;de comprobacion&lt;/div&gt;" style="edgeLabel;html=1;align=center;verticalAlign=middle;resizable=0;points=[];fontSize=9;" parent="4Sc3ec-6qv8xjf8Ng-Rm-40" vertex="1" connectable="0">
          <mxGeometry x="0.0167" y="-2" relative="1" as="geometry">
            <mxPoint as="offset" />
          </mxGeometry>
        </mxCell>
        <mxCell id="4Sc3ec-6qv8xjf8Ng-Rm-46" value="" style="endArrow=none;html=1;rounded=0;shape=flexArrow;fillColor=light-dark(#ffffff, #1a1a1a);gradientColor=light-dark(#f0f0f0, #535353);strokeColor=#000000;" parent="1" edge="1">
          <mxGeometry width="50" height="50" relative="1" as="geometry">
            <mxPoint x="260" y="530" as="sourcePoint" />
            <mxPoint x="259.77" y="470" as="targetPoint" />
          </mxGeometry>
        </mxCell>
        <mxCell id="4Sc3ec-6qv8xjf8Ng-Rm-47" value="" style="endArrow=none;html=1;rounded=0;shape=flexArrow;fillColor=light-dark(#ffffff, #1a1a1a);gradientColor=light-dark(#f0f0f0, #535353);strokeColor=#000000;" parent="1" edge="1">
          <mxGeometry width="50" height="50" relative="1" as="geometry">
            <mxPoint x="420" y="570" as="sourcePoint" />
            <mxPoint x="420" y="470" as="targetPoint" />
          </mxGeometry>
        </mxCell>
        <mxCell id="4Sc3ec-6qv8xjf8Ng-Rm-51" value="" style="endArrow=classic;html=1;rounded=0;" parent="1" edge="1">
          <mxGeometry width="50" height="50" relative="1" as="geometry">
            <mxPoint x="730" y="400" as="sourcePoint" />
            <mxPoint x="590" y="400" as="targetPoint" />
          </mxGeometry>
        </mxCell>
        <mxCell id="4Sc3ec-6qv8xjf8Ng-Rm-52" value="Inicio&lt;div&gt;de sesion&lt;/div&gt;" style="edgeLabel;html=1;align=center;verticalAlign=middle;resizable=0;points=[];fontSize=9;" parent="4Sc3ec-6qv8xjf8Ng-Rm-51" vertex="1" connectable="0">
          <mxGeometry x="-0.0923" y="1" relative="1" as="geometry">
            <mxPoint x="-7" as="offset" />
          </mxGeometry>
        </mxCell>
        <mxCell id="4Sc3ec-6qv8xjf8Ng-Rm-54" value="" style="endArrow=classic;dashed=1;html=1;rounded=0;endFill=1;" parent="1" edge="1">
          <mxGeometry width="50" height="50" relative="1" as="geometry">
            <mxPoint x="590" y="440" as="sourcePoint" />
            <mxPoint x="730" y="440" as="targetPoint" />
          </mxGeometry>
        </mxCell>
        <mxCell id="4Sc3ec-6qv8xjf8Ng-Rm-55" value="Acceso&lt;div&gt;al listado de fichas&lt;/div&gt;" style="edgeLabel;html=1;align=center;verticalAlign=middle;resizable=0;points=[];fontSize=9;" parent="4Sc3ec-6qv8xjf8Ng-Rm-54" vertex="1" connectable="0">
          <mxGeometry x="0.0167" y="-2" relative="1" as="geometry">
            <mxPoint x="-1" as="offset" />
          </mxGeometry>
        </mxCell>
        <mxCell id="FoTmNfhUvuEGVstSip7y-3" value="" style="endArrow=none;html=1;rounded=0;shape=flexArrow;fillColor=light-dark(#ffffff, #1a1a1a);gradientColor=light-dark(#f0f0f0, #535353);strokeColor=#000000;" parent="1" edge="1">
          <mxGeometry width="50" height="50" relative="1" as="geometry">
            <mxPoint x="580" y="570" as="sourcePoint" />
            <mxPoint x="580" y="550" as="targetPoint" />
          </mxGeometry>
        </mxCell>
        <mxCell id="FoTmNfhUvuEGVstSip7y-6" value="" style="endArrow=classic;dashed=1;html=1;rounded=0;endFill=1;" parent="1" edge="1">
          <mxGeometry width="50" height="50" relative="1" as="geometry">
            <mxPoint x="430" y="560" as="sourcePoint" />
            <mxPoint x="571.1428571428571" y="560" as="targetPoint" />
          </mxGeometry>
        </mxCell>
        <mxCell id="FoTmNfhUvuEGVstSip7y-7" value="Alertar sobre nuevos&lt;div&gt;formularios&lt;/div&gt;" style="edgeLabel;html=1;align=center;verticalAlign=middle;resizable=0;points=[];fontSize=9;" parent="FoTmNfhUvuEGVstSip7y-6" vertex="1" connectable="0">
          <mxGeometry x="0.0167" y="-2" relative="1" as="geometry">
            <mxPoint as="offset" />
          </mxGeometry>
        </mxCell>
        <mxCell id="FoTmNfhUvuEGVstSip7y-8" value="" style="endArrow=classic;dashed=1;html=1;rounded=0;endFill=1;" parent="1" edge="1">
          <mxGeometry width="50" height="50" relative="1" as="geometry">
            <mxPoint x="590" y="560" as="sourcePoint" />
            <mxPoint x="730" y="560" as="targetPoint" />
          </mxGeometry>
        </mxCell>
        <mxCell id="FoTmNfhUvuEGVstSip7y-9" value="Reproducir&lt;div&gt;Notificacion&lt;/div&gt;" style="edgeLabel;html=1;align=center;verticalAlign=middle;resizable=0;points=[];fontSize=9;" parent="FoTmNfhUvuEGVstSip7y-8" vertex="1" connectable="0">
          <mxGeometry x="0.0167" y="-2" relative="1" as="geometry">
            <mxPoint x="-1" as="offset" />
          </mxGeometry>
        </mxCell>
        <mxCell id="FoTmNfhUvuEGVstSip7y-10" value="" style="endArrow=none;html=1;rounded=0;shape=flexArrow;fillColor=light-dark(#ffffff, #1a1a1a);gradientColor=light-dark(#f0f0f0, #535353);strokeColor=#000000;" parent="1" edge="1">
          <mxGeometry width="50" height="50" relative="1" as="geometry">
            <mxPoint x="580" y="685" as="sourcePoint" />
            <mxPoint x="580" y="625" as="targetPoint" />
          </mxGeometry>
        </mxCell>
        <mxCell id="FoTmNfhUvuEGVstSip7y-11" value="" style="endArrow=classic;html=1;rounded=0;" parent="1" edge="1">
          <mxGeometry width="50" height="50" relative="1" as="geometry">
            <mxPoint x="730" y="635" as="sourcePoint" />
            <mxPoint x="590" y="635" as="targetPoint" />
          </mxGeometry>
        </mxCell>
        <mxCell id="FoTmNfhUvuEGVstSip7y-12" value="Consultar ficha" style="edgeLabel;html=1;align=center;verticalAlign=middle;resizable=0;points=[];fontSize=9;" parent="FoTmNfhUvuEGVstSip7y-11" vertex="1" connectable="0">
          <mxGeometry x="-0.0923" y="1" relative="1" as="geometry">
            <mxPoint x="-7" as="offset" />
          </mxGeometry>
        </mxCell>
        <mxCell id="FoTmNfhUvuEGVstSip7y-13" value="" style="endArrow=classic;dashed=1;html=1;rounded=0;endFill=1;" parent="1" edge="1">
          <mxGeometry width="50" height="50" relative="1" as="geometry">
            <mxPoint x="590" y="675" as="sourcePoint" />
            <mxPoint x="730" y="675" as="targetPoint" />
          </mxGeometry>
        </mxCell>
        <mxCell id="FoTmNfhUvuEGVstSip7y-14" value="Mostrar Ficha&lt;div&gt;de Paciente&lt;/div&gt;" style="edgeLabel;html=1;align=center;verticalAlign=middle;resizable=0;points=[];fontSize=9;" parent="FoTmNfhUvuEGVstSip7y-13" vertex="1" connectable="0">
          <mxGeometry x="0.0167" y="-2" relative="1" as="geometry">
            <mxPoint x="-1" as="offset" />
          </mxGeometry>
        </mxCell>
        <mxCell id="iMPOjNZv3il-x0fv1yPr-1" value="" style="endArrow=none;html=1;rounded=0;shape=flexArrow;fillColor=light-dark(#ffffff, #1a1a1a);gradientColor=light-dark(#f0f0f0, #535353);strokeColor=#000000;" parent="1" edge="1">
          <mxGeometry width="50" height="50" relative="1" as="geometry">
            <mxPoint x="420" y="684" as="sourcePoint" />
            <mxPoint x="420" y="624" as="targetPoint" />
          </mxGeometry>
        </mxCell>
        <mxCell id="iMPOjNZv3il-x0fv1yPr-2" value="" style="endArrow=classic;html=1;rounded=0;" parent="1" edge="1">
          <mxGeometry width="50" height="50" relative="1" as="geometry">
            <mxPoint x="570" y="634" as="sourcePoint" />
            <mxPoint x="430" y="634" as="targetPoint" />
          </mxGeometry>
        </mxCell>
        <mxCell id="iMPOjNZv3il-x0fv1yPr-3" value="Preguntar por&amp;nbsp;&lt;span style=&quot;background-color: light-dark(#ffffff, var(--ge-dark-color, #121212)); color: light-dark(rgb(0, 0, 0), rgb(255, 255, 255));&quot;&gt;datos&lt;/span&gt;&lt;div&gt;&lt;span style=&quot;color: light-dark(rgb(0, 0, 0), rgb(255, 255, 255)); background-color: light-dark(#ffffff, var(--ge-dark-color, #121212));&quot;&gt;de&amp;nbsp;&lt;/span&gt;&lt;span style=&quot;color: light-dark(rgb(0, 0, 0), rgb(255, 255, 255)); background-color: light-dark(#ffffff, var(--ge-dark-color, #121212));&quot;&gt;ficha a la DB&lt;/span&gt;&lt;/div&gt;" style="edgeLabel;html=1;align=center;verticalAlign=middle;resizable=0;points=[];fontSize=9;" parent="iMPOjNZv3il-x0fv1yPr-2" vertex="1" connectable="0">
          <mxGeometry x="-0.0923" y="1" relative="1" as="geometry">
            <mxPoint x="-7" as="offset" />
          </mxGeometry>
        </mxCell>
        <mxCell id="iMPOjNZv3il-x0fv1yPr-4" value="" style="endArrow=classic;dashed=1;html=1;rounded=0;endFill=1;" parent="1" edge="1">
          <mxGeometry width="50" height="50" relative="1" as="geometry">
            <mxPoint x="430" y="674" as="sourcePoint" />
            <mxPoint x="570" y="674" as="targetPoint" />
          </mxGeometry>
        </mxCell>
        <mxCell id="iMPOjNZv3il-x0fv1yPr-5" value="Enviar datos de ficha" style="edgeLabel;html=1;align=center;verticalAlign=middle;resizable=0;points=[];fontSize=9;" parent="iMPOjNZv3il-x0fv1yPr-4" vertex="1" connectable="0">
          <mxGeometry x="0.0167" y="-2" relative="1" as="geometry">
            <mxPoint x="-1" as="offset" />
          </mxGeometry>
        </mxCell>
        <mxCell id="jAdWEJtVJmHa0eBxNwMs-2" value="" style="group" parent="1" vertex="1" connectable="0">
          <mxGeometry x="360" y="200" width="120" height="70" as="geometry" />
        </mxCell>
        <mxCell id="kjp3VHHz3tLaPo_W6ad_-17" value="" style="strokeWidth=1;html=1;shape=mxgraph.flowchart.database;whiteSpace=wrap;" parent="jAdWEJtVJmHa0eBxNwMs-2" vertex="1">
          <mxGeometry x="40" width="40" height="40" as="geometry" />
        </mxCell>
        <mxCell id="kjp3VHHz3tLaPo_W6ad_-19" value="Base de datos" style="text;html=1;align=center;verticalAlign=middle;whiteSpace=wrap;rounded=0;" parent="jAdWEJtVJmHa0eBxNwMs-2" vertex="1">
          <mxGeometry y="40" width="120" height="30" as="geometry" />
        </mxCell>
        <mxCell id="jAdWEJtVJmHa0eBxNwMs-3" value="" style="group" parent="1" vertex="1" connectable="0">
          <mxGeometry x="520" y="200" width="120" height="70" as="geometry" />
        </mxCell>
        <mxCell id="4Sc3ec-6qv8xjf8Ng-Rm-24" value="" style="shape=note;size=20;whiteSpace=wrap;html=1;" parent="jAdWEJtVJmHa0eBxNwMs-3" vertex="1">
          <mxGeometry x="40" width="40" height="40" as="geometry" />
        </mxCell>
        <mxCell id="4Sc3ec-6qv8xjf8Ng-Rm-25" value="&lt;div&gt;&lt;span style=&quot;font-size: 9px;&quot;&gt;(Interfaz)&lt;/span&gt;&lt;/div&gt;Vista de fichas" style="text;html=1;align=center;verticalAlign=middle;whiteSpace=wrap;rounded=0;" parent="jAdWEJtVJmHa0eBxNwMs-3" vertex="1">
          <mxGeometry y="40" width="120" height="30" as="geometry" />
        </mxCell>
        <mxCell id="fkWQTK0O395qIvkpwu9k-4" value="" style="endArrow=none;html=1;rounded=0;" parent="1" target="fkWQTK0O395qIvkpwu9k-3" edge="1">
          <mxGeometry width="50" height="50" relative="1" as="geometry">
            <mxPoint x="740" y="720" as="sourcePoint" />
            <mxPoint x="740" y="320" as="targetPoint" />
          </mxGeometry>
        </mxCell>
        <mxCell id="fkWQTK0O395qIvkpwu9k-3" value="" style="verticalLabelPosition=bottom;verticalAlign=top;html=1;shape=mxgraph.basic.x" parent="1" vertex="1">
          <mxGeometry x="730" y="700" width="20" height="15" as="geometry" />
        </mxCell>
        <mxCell id="fkWQTK0O395qIvkpwu9k-5" value="" style="endArrow=classic;html=1;rounded=0;edgeStyle=orthogonalEdgeStyle;" parent="1" edge="1">
          <mxGeometry width="50" height="50" relative="1" as="geometry">
            <mxPoint x="410" y="400" as="sourcePoint" />
            <mxPoint x="410" y="440" as="targetPoint" />
            <Array as="points">
              <mxPoint x="370" y="400" />
              <mxPoint x="370" y="440" />
            </Array>
          </mxGeometry>
        </mxCell>
        <mxCell id="fkWQTK0O395qIvkpwu9k-6" value="DigitaciÃ³n&lt;div&gt;de datos&lt;/div&gt;" style="edgeLabel;html=1;align=center;verticalAlign=middle;resizable=0;points=[];fontSize=9;" parent="fkWQTK0O395qIvkpwu9k-5" vertex="1" connectable="0">
          <mxGeometry x="-0.0222" y="-1" relative="1" as="geometry">
            <mxPoint x="1" y="1" as="offset" />
          </mxGeometry>
        </mxCell>
        <mxCell id="fkWQTK0O395qIvkpwu9k-7" value="" style="endArrow=classic;html=1;rounded=0;edgeStyle=orthogonalEdgeStyle;" parent="1" edge="1">
          <mxGeometry width="50" height="50" relative="1" as="geometry">
            <mxPoint x="430" y="320" as="sourcePoint" />
            <mxPoint x="430" y="360" as="targetPoint" />
            <Array as="points">
              <mxPoint x="480" y="320" />
              <mxPoint x="480" y="360" />
            </Array>
          </mxGeometry>
        </mxCell>
        <mxCell id="fkWQTK0O395qIvkpwu9k-8" value="Comprobacion&lt;div&gt;de datos&lt;/div&gt;" style="edgeLabel;html=1;align=center;verticalAlign=middle;resizable=0;points=[];fontSize=9;" parent="fkWQTK0O395qIvkpwu9k-7" vertex="1" connectable="0">
          <mxGeometry x="-0.0222" y="-1" relative="1" as="geometry">
            <mxPoint x="1" as="offset" />
          </mxGeometry>
        </mxCell>
        <mxCell id="fkWQTK0O395qIvkpwu9k-9" value="" style="endArrow=classic;html=1;rounded=0;" parent="1" edge="1">
          <mxGeometry width="50" height="50" relative="1" as="geometry">
            <mxPoint x="270" y="320" as="sourcePoint" />
            <mxPoint x="410" y="320" as="targetPoint" />
          </mxGeometry>
        </mxCell>
        <mxCell id="fkWQTK0O395qIvkpwu9k-10" value="DigitaciÃ³n&lt;div&gt;de datos&lt;/div&gt;" style="edgeLabel;html=1;align=center;verticalAlign=middle;resizable=0;points=[];fontSize=9;" parent="fkWQTK0O395qIvkpwu9k-9" vertex="1" connectable="0">
          <mxGeometry x="-0.0923" y="1" relative="1" as="geometry">
            <mxPoint x="6" as="offset" />
          </mxGeometry>
        </mxCell>
        <mxCell id="fkWQTK0O395qIvkpwu9k-11" value="" style="endArrow=none;html=1;rounded=0;shape=flexArrow;fillColor=light-dark(#ffffff, #1a1a1a);gradientColor=light-dark(#f0f0f0, #535353);strokeColor=#000000;" parent="1" edge="1">
          <mxGeometry width="50" height="50" relative="1" as="geometry">
            <mxPoint x="419.71" y="370" as="sourcePoint" />
            <mxPoint x="419.71" y="310" as="targetPoint" />
          </mxGeometry>
        </mxCell>
        <mxCell id="fkWQTK0O395qIvkpwu9k-12" value="" style="endArrow=classic;dashed=1;html=1;rounded=0;endFill=1;" parent="1" edge="1">
          <mxGeometry width="50" height="50" relative="1" as="geometry">
            <mxPoint x="400" y="360" as="sourcePoint" />
            <mxPoint x="270" y="360" as="targetPoint" />
          </mxGeometry>
        </mxCell>
        <mxCell id="fkWQTK0O395qIvkpwu9k-13" value="Permitir acceso&lt;div&gt;al formulario&lt;/div&gt;" style="edgeLabel;html=1;align=center;verticalAlign=middle;resizable=0;points=[];fontSize=9;" parent="fkWQTK0O395qIvkpwu9k-12" vertex="1" connectable="0">
          <mxGeometry x="0.0167" y="-2" relative="1" as="geometry">
            <mxPoint x="6" as="offset" />
          </mxGeometry>
        </mxCell>
        <mxCell id="fkWQTK0O395qIvkpwu9k-18" value="" style="endArrow=classic;html=1;rounded=0;" parent="1" edge="1">
          <mxGeometry width="50" height="50" relative="1" as="geometry">
            <mxPoint x="570" y="400" as="sourcePoint" />
            <mxPoint x="430" y="400" as="targetPoint" />
          </mxGeometry>
        </mxCell>
        <mxCell id="fkWQTK0O395qIvkpwu9k-19" value="DigitaciÃ³n&lt;div&gt;de datos&lt;/div&gt;" style="edgeLabel;html=1;align=center;verticalAlign=middle;resizable=0;points=[];fontSize=9;" parent="fkWQTK0O395qIvkpwu9k-18" vertex="1" connectable="0">
          <mxGeometry x="-0.0923" y="1" relative="1" as="geometry">
            <mxPoint x="6" as="offset" />
          </mxGeometry>
        </mxCell>
        <mxCell id="fkWQTK0O395qIvkpwu9k-20" value="" style="endArrow=none;html=1;rounded=0;shape=flexArrow;fillColor=light-dark(#ffffff, #1a1a1a);gradientColor=light-dark(#f0f0f0, #535353);strokeColor=#000000;" parent="1" edge="1">
          <mxGeometry width="50" height="50" relative="1" as="geometry">
            <mxPoint x="579.71" y="450" as="sourcePoint" />
            <mxPoint x="579.71" y="390" as="targetPoint" />
          </mxGeometry>
        </mxCell>
        <mxCell id="fkWQTK0O395qIvkpwu9k-21" value="" style="endArrow=classic;dashed=1;html=1;rounded=0;endFill=1;" parent="1" edge="1">
          <mxGeometry width="50" height="50" relative="1" as="geometry">
            <mxPoint x="430" y="440" as="sourcePoint" />
            <mxPoint x="570" y="440" as="targetPoint" />
          </mxGeometry>
        </mxCell>
        <mxCell id="fkWQTK0O395qIvkpwu9k-22" value="Permitir acceso&lt;div&gt;al formulario&lt;/div&gt;" style="edgeLabel;html=1;align=center;verticalAlign=middle;resizable=0;points=[];fontSize=9;" parent="fkWQTK0O395qIvkpwu9k-21" vertex="1" connectable="0">
          <mxGeometry x="0.0167" y="-2" relative="1" as="geometry">
            <mxPoint x="6" as="offset" />
          </mxGeometry>
        </mxCell>
      </root>
    </mxGraphModel>
  </diagram>
  <diagram id="xO6f_HMgJr-2rthEAoC0" name="Despliegue">
    <mxGraphModel dx="1773" dy="983" grid="1" gridSize="10" guides="1" tooltips="1" connect="1" arrows="1" fold="1" page="1" pageScale="1" pageWidth="827" pageHeight="1169" math="0" shadow="0">
      <root>
        <mxCell id="0" />
        <mxCell id="1" parent="0" />
        <mxCell id="GjWf8Jr7Xcxpcu32AAqg-1" value="Web server" style="verticalAlign=top;align=left;spacingTop=8;spacingLeft=2;spacingRight=12;shape=cube;size=10;direction=south;fontStyle=4;html=1;whiteSpace=wrap;fillColor=#FFFFFF;gradientColor=#EDEDED;strokeColor=#000000;gradientDirection=east;" parent="1" vertex="1">
          <mxGeometry x="360" y="230" width="120" height="210" as="geometry" />
        </mxCell>
        <mxCell id="GjWf8Jr7Xcxpcu32AAqg-2" value="Python Anywhere" style="shape=module;align=left;spacingLeft=20;align=center;verticalAlign=top;whiteSpace=wrap;html=1;" parent="1" vertex="1">
          <mxGeometry x="370" y="270" width="90" height="50" as="geometry" />
        </mxCell>
        <mxCell id="GjWf8Jr7Xcxpcu32AAqg-3" value="Servicios&lt;div&gt;views.py&lt;/div&gt;" style="shape=module;align=left;spacingLeft=20;align=center;verticalAlign=top;whiteSpace=wrap;html=1;" parent="1" vertex="1">
          <mxGeometry x="370" y="340" width="90" height="50" as="geometry" />
        </mxCell>
        <mxCell id="GjWf8Jr7Xcxpcu32AAqg-6" value="Servicios&lt;div&gt;views.py&lt;/div&gt;&lt;div&gt;&lt;br&gt;&lt;/div&gt;&lt;div&gt;index&lt;/div&gt;&lt;div&gt;loginAdmin&lt;/div&gt;&lt;div&gt;loginFuncionario&lt;/div&gt;&lt;div&gt;menuParamedico&lt;/div&gt;&lt;div&gt;menuHospital&lt;/div&gt;&lt;div&gt;verFormulario&lt;/div&gt;&lt;div&gt;verFormularios editarDatos&lt;/div&gt;&lt;div&gt;convertirPDF&lt;/div&gt;&lt;div&gt;convertirExcel&lt;/div&gt;&lt;div&gt;derivarPaciente&lt;/div&gt;" style="shape=module;align=left;spacingLeft=20;align=center;verticalAlign=top;whiteSpace=wrap;html=1;gradientDirection=east;" parent="1" vertex="1">
          <mxGeometry x="750" y="180" width="140" height="280" as="geometry" />
        </mxCell>
        <mxCell id="GjWf8Jr7Xcxpcu32AAqg-8" value="Database service" style="verticalAlign=top;align=left;spacingTop=8;spacingLeft=2;spacingRight=12;shape=cube;size=10;direction=south;fontStyle=4;html=1;whiteSpace=wrap;fillColor=#FFFFFF;gradientColor=#EDEDED;strokeColor=#000000;gradientDirection=east;" parent="1" vertex="1">
          <mxGeometry x="560" y="230" width="120" height="100" as="geometry" />
        </mxCell>
        <mxCell id="GjWf8Jr7Xcxpcu32AAqg-9" value="MySQL" style="shape=module;align=left;spacingLeft=20;align=center;verticalAlign=top;whiteSpace=wrap;html=1;" parent="1" vertex="1">
          <mxGeometry x="570" y="270" width="90" height="50" as="geometry" />
        </mxCell>
        <mxCell id="GjWf8Jr7Xcxpcu32AAqg-11" value="" style="endArrow=classic;startArrow=classic;html=1;rounded=0;edgeStyle=orthogonalEdgeStyle;" parent="1" edge="1">
          <mxGeometry width="50" height="50" relative="1" as="geometry">
            <mxPoint x="490" y="390" as="sourcePoint" />
            <mxPoint x="550" y="290" as="targetPoint" />
            <Array as="points">
              <mxPoint x="520" y="390" />
              <mxPoint x="520" y="290" />
            </Array>
          </mxGeometry>
        </mxCell>
        <mxCell id="GjWf8Jr7Xcxpcu32AAqg-12" value="&lt;div&gt;(tcp/ip)&lt;/div&gt;sqlclient&lt;div&gt;pymysql&lt;/div&gt;" style="edgeLabel;html=1;align=center;verticalAlign=middle;resizable=0;points=[];" parent="GjWf8Jr7Xcxpcu32AAqg-11" vertex="1" connectable="0">
          <mxGeometry x="-0.029" y="3" relative="1" as="geometry">
            <mxPoint y="3" as="offset" />
          </mxGeometry>
        </mxCell>
        <mxCell id="Z8AveosGcoNL473mNT2u-1" value="PC" style="verticalAlign=top;align=left;spacingTop=8;spacingLeft=2;spacingRight=12;shape=cube;size=10;direction=south;fontStyle=4;html=1;whiteSpace=wrap;fillColor=#FFFFFF;gradientColor=#EDEDED;strokeColor=#000000;gradientDirection=east;" parent="1" vertex="1">
          <mxGeometry x="160" y="80" width="120" height="210" as="geometry" />
        </mxCell>
        <mxCell id="Z8AveosGcoNL473mNT2u-2" value="Operating System" style="shape=module;align=left;spacingLeft=20;align=center;verticalAlign=top;whiteSpace=wrap;html=1;" parent="1" vertex="1">
          <mxGeometry x="170" y="120" width="90" height="50" as="geometry" />
        </mxCell>
        <mxCell id="Z8AveosGcoNL473mNT2u-3" value="Web Browser" style="shape=module;align=left;spacingLeft=20;align=center;verticalAlign=top;whiteSpace=wrap;html=1;" parent="1" vertex="1">
          <mxGeometry x="170" y="190" width="90" height="50" as="geometry" />
        </mxCell>
        <mxCell id="Z8AveosGcoNL473mNT2u-6" value="" style="endArrow=classic;startArrow=classic;html=1;rounded=0;edgeStyle=orthogonalEdgeStyle;entryX=0;entryY=0;entryDx=110;entryDy=120;entryPerimeter=0;" parent="1" edge="1" target="GjWf8Jr7Xcxpcu32AAqg-1">
          <mxGeometry width="50" height="50" relative="1" as="geometry">
            <mxPoint x="290" y="180" as="sourcePoint" />
            <mxPoint x="350" y="180" as="targetPoint" />
            <Array as="points">
              <mxPoint x="320" y="180" />
              <mxPoint x="320" y="340" />
            </Array>
          </mxGeometry>
        </mxCell>
        <mxCell id="Z8AveosGcoNL473mNT2u-7" value="&lt;div&gt;http&lt;/div&gt;" style="edgeLabel;html=1;align=center;verticalAlign=middle;resizable=0;points=[];" parent="Z8AveosGcoNL473mNT2u-6" vertex="1" connectable="0">
          <mxGeometry x="-0.029" y="3" relative="1" as="geometry">
            <mxPoint y="3" as="offset" />
          </mxGeometry>
        </mxCell>
        <mxCell id="ED9U1XdGAg4A0JJ4J_pY-1" value="Cordinador&lt;div&gt;de urgencias&lt;/div&gt;" style="shape=umlActor;verticalLabelPosition=bottom;verticalAlign=top;html=1;outlineConnect=0;" parent="1" vertex="1">
          <mxGeometry x="60" y="160" width="20" height="40" as="geometry" />
        </mxCell>
        <mxCell id="ED9U1XdGAg4A0JJ4J_pY-2" value="" style="endArrow=classic;startArrow=classic;html=1;rounded=0;edgeStyle=orthogonalEdgeStyle;" parent="1" edge="1">
          <mxGeometry width="50" height="50" relative="1" as="geometry">
            <mxPoint x="90" y="180" as="sourcePoint" />
            <mxPoint x="150" y="180" as="targetPoint" />
            <Array as="points">
              <mxPoint x="150" y="180" />
            </Array>
          </mxGeometry>
        </mxCell>
        <mxCell id="ED9U1XdGAg4A0JJ4J_pY-3" value="interfaz" style="edgeLabel;html=1;align=center;verticalAlign=middle;resizable=0;points=[];" parent="ED9U1XdGAg4A0JJ4J_pY-2" vertex="1" connectable="0">
          <mxGeometry x="-0.029" y="3" relative="1" as="geometry">
            <mxPoint y="3" as="offset" />
          </mxGeometry>
        </mxCell>
        <mxCell id="OOEXdsNYORitJk6v5Rh7-1" value="Tablet" style="verticalAlign=top;align=left;spacingTop=8;spacingLeft=2;spacingRight=12;shape=cube;size=10;direction=south;fontStyle=4;html=1;whiteSpace=wrap;fillColor=#FFFFFF;gradientColor=#EDEDED;strokeColor=#000000;gradientDirection=east;" vertex="1" parent="1">
          <mxGeometry x="160" y="350" width="120" height="210" as="geometry" />
        </mxCell>
        <mxCell id="OOEXdsNYORitJk6v5Rh7-2" value="Operating System" style="shape=module;align=left;spacingLeft=20;align=center;verticalAlign=top;whiteSpace=wrap;html=1;" vertex="1" parent="1">
          <mxGeometry x="170" y="390" width="90" height="50" as="geometry" />
        </mxCell>
        <mxCell id="OOEXdsNYORitJk6v5Rh7-3" value="Web Browser" style="shape=module;align=left;spacingLeft=20;align=center;verticalAlign=top;whiteSpace=wrap;html=1;" vertex="1" parent="1">
          <mxGeometry x="170" y="460" width="90" height="50" as="geometry" />
        </mxCell>
        <mxCell id="OOEXdsNYORitJk6v5Rh7-4" value="Paramedico" style="shape=umlActor;verticalLabelPosition=bottom;verticalAlign=top;html=1;outlineConnect=0;" vertex="1" parent="1">
          <mxGeometry x="60" y="430" width="20" height="40" as="geometry" />
        </mxCell>
        <mxCell id="OOEXdsNYORitJk6v5Rh7-5" value="" style="endArrow=classic;startArrow=classic;html=1;rounded=0;edgeStyle=orthogonalEdgeStyle;" edge="1" parent="1">
          <mxGeometry width="50" height="50" relative="1" as="geometry">
            <mxPoint x="90" y="450" as="sourcePoint" />
            <mxPoint x="150" y="450" as="targetPoint" />
            <Array as="points">
              <mxPoint x="150" y="450" />
            </Array>
          </mxGeometry>
        </mxCell>
        <mxCell id="OOEXdsNYORitJk6v5Rh7-6" value="interfaz" style="edgeLabel;html=1;align=center;verticalAlign=middle;resizable=0;points=[];" vertex="1" connectable="0" parent="OOEXdsNYORitJk6v5Rh7-5">
          <mxGeometry x="-0.029" y="3" relative="1" as="geometry">
            <mxPoint y="3" as="offset" />
          </mxGeometry>
        </mxCell>
        <mxCell id="OOEXdsNYORitJk6v5Rh7-7" style="edgeStyle=orthogonalEdgeStyle;rounded=0;orthogonalLoop=1;jettySize=auto;html=1;entryX=0;entryY=0;entryDx=110;entryDy=120;entryPerimeter=0;startArrow=classic;startFill=1;" edge="1" parent="1" target="GjWf8Jr7Xcxpcu32AAqg-1">
          <mxGeometry relative="1" as="geometry">
            <mxPoint x="290" y="450" as="sourcePoint" />
            <Array as="points">
              <mxPoint x="320" y="450" />
              <mxPoint x="320" y="340" />
            </Array>
          </mxGeometry>
        </mxCell>
        <mxCell id="OOEXdsNYORitJk6v5Rh7-8" value="http" style="edgeLabel;html=1;align=center;verticalAlign=middle;resizable=0;points=[];" vertex="1" connectable="0" parent="OOEXdsNYORitJk6v5Rh7-7">
          <mxGeometry x="0.0421" y="1" relative="1" as="geometry">
            <mxPoint as="offset" />
          </mxGeometry>
        </mxCell>
      </root>
    </mxGraphModel>
  </diagram>
  <diagram id="odO7Cqy_YwFzKJqTUVDJ" name="Clases">
    <mxGraphModel dx="1639" dy="889" grid="1" gridSize="10" guides="1" tooltips="1" connect="1" arrows="1" fold="1" page="1" pageScale="1" pageWidth="827" pageHeight="1169" math="0" shadow="0">
      <root>
        <mxCell id="0" />
        <mxCell id="1" parent="0" />
        <mxCell id="haFOG0XA0pnnrHGQ7bNb-1" value="Persona" style="swimlane;fontStyle=1;align=center;verticalAlign=top;childLayout=stackLayout;horizontal=1;startSize=26;horizontalStack=0;resizeParent=1;resizeParentMax=0;resizeLast=0;collapsible=1;marginBottom=0;whiteSpace=wrap;html=1;" parent="1" vertex="1">
          <mxGeometry x="1050" y="640" width="190" height="684" as="geometry" />
        </mxCell>
        <mxCell id="haFOG0XA0pnnrHGQ7bNb-2" value="- id: int" style="text;strokeColor=none;fillColor=none;align=left;verticalAlign=top;spacingLeft=4;spacingRight=4;overflow=hidden;rotatable=0;points=[[0,0.5],[1,0.5]];portConstraint=eastwest;whiteSpace=wrap;html=1;" parent="haFOG0XA0pnnrHGQ7bNb-1" vertex="1">
          <mxGeometry y="26" width="190" height="26" as="geometry" />
        </mxCell>
        <mxCell id="haFOG0XA0pnnrHGQ7bNb-3" value="+ nombre: str" style="text;strokeColor=none;fillColor=none;align=left;verticalAlign=top;spacingLeft=4;spacingRight=4;overflow=hidden;rotatable=0;points=[[0,0.5],[1,0.5]];portConstraint=eastwest;whiteSpace=wrap;html=1;" parent="haFOG0XA0pnnrHGQ7bNb-1" vertex="1">
          <mxGeometry y="52" width="190" height="26" as="geometry" />
        </mxCell>
        <mxCell id="haFOG0XA0pnnrHGQ7bNb-4" value="+ apellidoP: str" style="text;strokeColor=none;fillColor=none;align=left;verticalAlign=top;spacingLeft=4;spacingRight=4;overflow=hidden;rotatable=0;points=[[0,0.5],[1,0.5]];portConstraint=eastwest;whiteSpace=wrap;html=1;" parent="haFOG0XA0pnnrHGQ7bNb-1" vertex="1">
          <mxGeometry y="78" width="190" height="26" as="geometry" />
        </mxCell>
        <mxCell id="haFOG0XA0pnnrHGQ7bNb-5" value="+ apellidoM: str" style="text;strokeColor=none;fillColor=none;align=left;verticalAlign=top;spacingLeft=4;spacingRight=4;overflow=hidden;rotatable=0;points=[[0,0.5],[1,0.5]];portConstraint=eastwest;whiteSpace=wrap;html=1;" parent="haFOG0XA0pnnrHGQ7bNb-1" vertex="1">
          <mxGeometry y="104" width="190" height="26" as="geometry" />
        </mxCell>
        <mxCell id="haFOG0XA0pnnrHGQ7bNb-6" value="- rut: str" style="text;strokeColor=none;fillColor=none;align=left;verticalAlign=top;spacingLeft=4;spacingRight=4;overflow=hidden;rotatable=0;points=[[0,0.5],[1,0.5]];portConstraint=eastwest;whiteSpace=wrap;html=1;" parent="haFOG0XA0pnnrHGQ7bNb-1" vertex="1">
          <mxGeometry y="130" width="190" height="26" as="geometry" />
        </mxCell>
        <mxCell id="haFOG0XA0pnnrHGQ7bNb-7" value="+ edad: int" style="text;strokeColor=none;fillColor=none;align=left;verticalAlign=top;spacingLeft=4;spacingRight=4;overflow=hidden;rotatable=0;points=[[0,0.5],[1,0.5]];portConstraint=eastwest;whiteSpace=wrap;html=1;" parent="haFOG0XA0pnnrHGQ7bNb-1" vertex="1">
          <mxGeometry y="156" width="190" height="26" as="geometry" />
        </mxCell>
        <mxCell id="haFOG0XA0pnnrHGQ7bNb-8" value="- direcciÃ³n: str" style="text;strokeColor=none;fillColor=none;align=left;verticalAlign=top;spacingLeft=4;spacingRight=4;overflow=hidden;rotatable=0;points=[[0,0.5],[1,0.5]];portConstraint=eastwest;whiteSpace=wrap;html=1;" parent="haFOG0XA0pnnrHGQ7bNb-1" vertex="1">
          <mxGeometry y="182" width="190" height="26" as="geometry" />
        </mxCell>
        <mxCell id="haFOG0XA0pnnrHGQ7bNb-9" value="- telefono: int" style="text;strokeColor=none;fillColor=none;align=left;verticalAlign=top;spacingLeft=4;spacingRight=4;overflow=hidden;rotatable=0;points=[[0,0.5],[1,0.5]];portConstraint=eastwest;whiteSpace=wrap;html=1;" parent="haFOG0XA0pnnrHGQ7bNb-1" vertex="1">
          <mxGeometry y="208" width="190" height="26" as="geometry" />
        </mxCell>
        <mxCell id="haFOG0XA0pnnrHGQ7bNb-10" value="" style="line;strokeWidth=1;fillColor=none;align=left;verticalAlign=middle;spacingTop=-1;spacingLeft=3;spacingRight=3;rotatable=0;labelPosition=right;points=[];portConstraint=eastwest;strokeColor=inherit;" parent="haFOG0XA0pnnrHGQ7bNb-1" vertex="1">
          <mxGeometry y="234" width="190" height="8" as="geometry" />
        </mxCell>
        <mxCell id="haFOG0XA0pnnrHGQ7bNb-11" value="+ Persona()" style="text;strokeColor=none;fillColor=none;align=left;verticalAlign=top;spacingLeft=4;spacingRight=4;overflow=hidden;rotatable=0;points=[[0,0.5],[1,0.5]];portConstraint=eastwest;whiteSpace=wrap;html=1;" parent="haFOG0XA0pnnrHGQ7bNb-1" vertex="1">
          <mxGeometry y="242" width="190" height="26" as="geometry" />
        </mxCell>
        <mxCell id="haFOG0XA0pnnrHGQ7bNb-12" value="+ getId(): int" style="text;strokeColor=none;fillColor=none;align=left;verticalAlign=top;spacingLeft=4;spacingRight=4;overflow=hidden;rotatable=0;points=[[0,0.5],[1,0.5]];portConstraint=eastwest;whiteSpace=wrap;html=1;" parent="haFOG0XA0pnnrHGQ7bNb-1" vertex="1">
          <mxGeometry y="268" width="190" height="26" as="geometry" />
        </mxCell>
        <mxCell id="haFOG0XA0pnnrHGQ7bNb-13" value="+ setId(id: int)" style="text;strokeColor=none;fillColor=none;align=left;verticalAlign=top;spacingLeft=4;spacingRight=4;overflow=hidden;rotatable=0;points=[[0,0.5],[1,0.5]];portConstraint=eastwest;whiteSpace=wrap;html=1;" parent="haFOG0XA0pnnrHGQ7bNb-1" vertex="1">
          <mxGeometry y="294" width="190" height="26" as="geometry" />
        </mxCell>
        <mxCell id="haFOG0XA0pnnrHGQ7bNb-14" value="+ getNombre(): str&amp;nbsp;" style="text;strokeColor=none;fillColor=none;align=left;verticalAlign=top;spacingLeft=4;spacingRight=4;overflow=hidden;rotatable=0;points=[[0,0.5],[1,0.5]];portConstraint=eastwest;whiteSpace=wrap;html=1;" parent="haFOG0XA0pnnrHGQ7bNb-1" vertex="1">
          <mxGeometry y="320" width="190" height="26" as="geometry" />
        </mxCell>
        <mxCell id="haFOG0XA0pnnrHGQ7bNb-15" value="+ setNombre(nombre: str)" style="text;strokeColor=none;fillColor=none;align=left;verticalAlign=top;spacingLeft=4;spacingRight=4;overflow=hidden;rotatable=0;points=[[0,0.5],[1,0.5]];portConstraint=eastwest;whiteSpace=wrap;html=1;" parent="haFOG0XA0pnnrHGQ7bNb-1" vertex="1">
          <mxGeometry y="346" width="190" height="26" as="geometry" />
        </mxCell>
        <mxCell id="haFOG0XA0pnnrHGQ7bNb-16" value="+ getApellidoP(): str" style="text;strokeColor=none;fillColor=none;align=left;verticalAlign=top;spacingLeft=4;spacingRight=4;overflow=hidden;rotatable=0;points=[[0,0.5],[1,0.5]];portConstraint=eastwest;whiteSpace=wrap;html=1;" parent="haFOG0XA0pnnrHGQ7bNb-1" vertex="1">
          <mxGeometry y="372" width="190" height="26" as="geometry" />
        </mxCell>
        <mxCell id="haFOG0XA0pnnrHGQ7bNb-17" value="+ setApellidoP(apellidoP: str)" style="text;strokeColor=none;fillColor=none;align=left;verticalAlign=top;spacingLeft=4;spacingRight=4;overflow=hidden;rotatable=0;points=[[0,0.5],[1,0.5]];portConstraint=eastwest;whiteSpace=wrap;html=1;" parent="haFOG0XA0pnnrHGQ7bNb-1" vertex="1">
          <mxGeometry y="398" width="190" height="26" as="geometry" />
        </mxCell>
        <mxCell id="haFOG0XA0pnnrHGQ7bNb-18" value="+ getApellidoM(): str" style="text;strokeColor=none;fillColor=none;align=left;verticalAlign=top;spacingLeft=4;spacingRight=4;overflow=hidden;rotatable=0;points=[[0,0.5],[1,0.5]];portConstraint=eastwest;whiteSpace=wrap;html=1;" parent="haFOG0XA0pnnrHGQ7bNb-1" vertex="1">
          <mxGeometry y="424" width="190" height="26" as="geometry" />
        </mxCell>
        <mxCell id="haFOG0XA0pnnrHGQ7bNb-19" value="+ setApellidoM(apellidoM: str)" style="text;strokeColor=none;fillColor=none;align=left;verticalAlign=top;spacingLeft=4;spacingRight=4;overflow=hidden;rotatable=0;points=[[0,0.5],[1,0.5]];portConstraint=eastwest;whiteSpace=wrap;html=1;" parent="haFOG0XA0pnnrHGQ7bNb-1" vertex="1">
          <mxGeometry y="450" width="190" height="26" as="geometry" />
        </mxCell>
        <mxCell id="haFOG0XA0pnnrHGQ7bNb-20" value="+ getRut(): str" style="text;strokeColor=none;fillColor=none;align=left;verticalAlign=top;spacingLeft=4;spacingRight=4;overflow=hidden;rotatable=0;points=[[0,0.5],[1,0.5]];portConstraint=eastwest;whiteSpace=wrap;html=1;" parent="haFOG0XA0pnnrHGQ7bNb-1" vertex="1">
          <mxGeometry y="476" width="190" height="26" as="geometry" />
        </mxCell>
        <mxCell id="haFOG0XA0pnnrHGQ7bNb-21" value="+ setRut(rut: str)" style="text;strokeColor=none;fillColor=none;align=left;verticalAlign=top;spacingLeft=4;spacingRight=4;overflow=hidden;rotatable=0;points=[[0,0.5],[1,0.5]];portConstraint=eastwest;whiteSpace=wrap;html=1;" parent="haFOG0XA0pnnrHGQ7bNb-1" vertex="1">
          <mxGeometry y="502" width="190" height="26" as="geometry" />
        </mxCell>
        <mxCell id="haFOG0XA0pnnrHGQ7bNb-22" value="+ getEdad(): int" style="text;strokeColor=none;fillColor=none;align=left;verticalAlign=top;spacingLeft=4;spacingRight=4;overflow=hidden;rotatable=0;points=[[0,0.5],[1,0.5]];portConstraint=eastwest;whiteSpace=wrap;html=1;" parent="haFOG0XA0pnnrHGQ7bNb-1" vertex="1">
          <mxGeometry y="528" width="190" height="26" as="geometry" />
        </mxCell>
        <mxCell id="haFOG0XA0pnnrHGQ7bNb-23" value="+ setEdad(edad: int)" style="text;strokeColor=none;fillColor=none;align=left;verticalAlign=top;spacingLeft=4;spacingRight=4;overflow=hidden;rotatable=0;points=[[0,0.5],[1,0.5]];portConstraint=eastwest;whiteSpace=wrap;html=1;" parent="haFOG0XA0pnnrHGQ7bNb-1" vertex="1">
          <mxGeometry y="554" width="190" height="26" as="geometry" />
        </mxCell>
        <mxCell id="haFOG0XA0pnnrHGQ7bNb-24" value="+ getDireccion(): str" style="text;strokeColor=none;fillColor=none;align=left;verticalAlign=top;spacingLeft=4;spacingRight=4;overflow=hidden;rotatable=0;points=[[0,0.5],[1,0.5]];portConstraint=eastwest;whiteSpace=wrap;html=1;" parent="haFOG0XA0pnnrHGQ7bNb-1" vertex="1">
          <mxGeometry y="580" width="190" height="26" as="geometry" />
        </mxCell>
        <mxCell id="haFOG0XA0pnnrHGQ7bNb-25" value="+ setDireccion(direccion: str)" style="text;strokeColor=none;fillColor=none;align=left;verticalAlign=top;spacingLeft=4;spacingRight=4;overflow=hidden;rotatable=0;points=[[0,0.5],[1,0.5]];portConstraint=eastwest;whiteSpace=wrap;html=1;" parent="haFOG0XA0pnnrHGQ7bNb-1" vertex="1">
          <mxGeometry y="606" width="190" height="26" as="geometry" />
        </mxCell>
        <mxCell id="haFOG0XA0pnnrHGQ7bNb-26" value="+ getTelefono(): int" style="text;strokeColor=none;fillColor=none;align=left;verticalAlign=top;spacingLeft=4;spacingRight=4;overflow=hidden;rotatable=0;points=[[0,0.5],[1,0.5]];portConstraint=eastwest;whiteSpace=wrap;html=1;" parent="haFOG0XA0pnnrHGQ7bNb-1" vertex="1">
          <mxGeometry y="632" width="190" height="26" as="geometry" />
        </mxCell>
        <mxCell id="haFOG0XA0pnnrHGQ7bNb-27" value="+ setTelefono(telefono: int)" style="text;strokeColor=none;fillColor=none;align=left;verticalAlign=top;spacingLeft=4;spacingRight=4;overflow=hidden;rotatable=0;points=[[0,0.5],[1,0.5]];portConstraint=eastwest;whiteSpace=wrap;html=1;" parent="haFOG0XA0pnnrHGQ7bNb-1" vertex="1">
          <mxGeometry y="658" width="190" height="26" as="geometry" />
        </mxCell>
        <mxCell id="haFOG0XA0pnnrHGQ7bNb-28" style="edgeStyle=orthogonalEdgeStyle;rounded=0;orthogonalLoop=1;jettySize=auto;html=1;endArrow=block;endFill=0;" parent="1" source="haFOG0XA0pnnrHGQ7bNb-29" target="haFOG0XA0pnnrHGQ7bNb-1" edge="1">
          <mxGeometry relative="1" as="geometry">
            <Array as="points">
              <mxPoint x="875" y="1050" />
              <mxPoint x="875" y="982" />
            </Array>
          </mxGeometry>
        </mxCell>
        <mxCell id="haFOG0XA0pnnrHGQ7bNb-29" value="Paciente" style="swimlane;fontStyle=1;align=center;verticalAlign=top;childLayout=stackLayout;horizontal=1;startSize=26;horizontalStack=0;resizeParent=1;resizeParentMax=0;resizeLast=0;collapsible=1;marginBottom=0;whiteSpace=wrap;html=1;" parent="1" vertex="1">
          <mxGeometry x="400" y="780" width="300" height="996" as="geometry" />
        </mxCell>
        <mxCell id="haFOG0XA0pnnrHGQ7bNb-30" value="+ prevision: str" style="text;strokeColor=none;fillColor=none;align=left;verticalAlign=top;spacingLeft=4;spacingRight=4;overflow=hidden;rotatable=0;points=[[0,0.5],[1,0.5]];portConstraint=eastwest;whiteSpace=wrap;html=1;" parent="haFOG0XA0pnnrHGQ7bNb-29" vertex="1">
          <mxGeometry y="26" width="300" height="26" as="geometry" />
        </mxCell>
        <mxCell id="FV3a8bCMoMqEvrclolRB-21" value="- id: int" style="text;strokeColor=none;fillColor=none;align=left;verticalAlign=top;spacingLeft=4;spacingRight=4;overflow=hidden;rotatable=0;points=[[0,0.5],[1,0.5]];portConstraint=eastwest;whiteSpace=wrap;html=1;" parent="haFOG0XA0pnnrHGQ7bNb-29" vertex="1">
          <mxGeometry y="52" width="300" height="26" as="geometry" />
        </mxCell>
        <mxCell id="haFOG0XA0pnnrHGQ7bNb-31" value="+ AccidenteLaboral: bool" style="text;strokeColor=none;fillColor=none;align=left;verticalAlign=top;spacingLeft=4;spacingRight=4;overflow=hidden;rotatable=0;points=[[0,0.5],[1,0.5]];portConstraint=eastwest;whiteSpace=wrap;html=1;" parent="haFOG0XA0pnnrHGQ7bNb-29" vertex="1">
          <mxGeometry y="78" width="300" height="26" as="geometry" />
        </mxCell>
        <mxCell id="haFOG0XA0pnnrHGQ7bNb-32" value="+ comorbilidades: str" style="text;strokeColor=none;fillColor=none;align=left;verticalAlign=top;spacingLeft=4;spacingRight=4;overflow=hidden;rotatable=0;points=[[0,0.5],[1,0.5]];portConstraint=eastwest;whiteSpace=wrap;html=1;" parent="haFOG0XA0pnnrHGQ7bNb-29" vertex="1">
          <mxGeometry y="104" width="300" height="26" as="geometry" />
        </mxCell>
        <mxCell id="haFOG0XA0pnnrHGQ7bNb-33" value="+ alergia: str" style="text;strokeColor=none;fillColor=none;align=left;verticalAlign=top;spacingLeft=4;spacingRight=4;overflow=hidden;rotatable=0;points=[[0,0.5],[1,0.5]];portConstraint=eastwest;whiteSpace=wrap;html=1;" parent="haFOG0XA0pnnrHGQ7bNb-29" vertex="1">
          <mxGeometry y="130" width="300" height="26" as="geometry" />
        </mxCell>
        <mxCell id="haFOG0XA0pnnrHGQ7bNb-34" value="+ motivoConsulta: str" style="text;strokeColor=none;fillColor=none;align=left;verticalAlign=top;spacingLeft=4;spacingRight=4;overflow=hidden;rotatable=0;points=[[0,0.5],[1,0.5]];portConstraint=eastwest;whiteSpace=wrap;html=1;" parent="haFOG0XA0pnnrHGQ7bNb-29" vertex="1">
          <mxGeometry y="156" width="300" height="26" as="geometry" />
        </mxCell>
        <mxCell id="haFOG0XA0pnnrHGQ7bNb-35" value="+ csv: str" style="text;strokeColor=none;fillColor=none;align=left;verticalAlign=top;spacingLeft=4;spacingRight=4;overflow=hidden;rotatable=0;points=[[0,0.5],[1,0.5]];portConstraint=eastwest;whiteSpace=wrap;html=1;" parent="haFOG0XA0pnnrHGQ7bNb-29" vertex="1">
          <mxGeometry y="182" width="300" height="26" as="geometry" />
        </mxCell>
        <mxCell id="haFOG0XA0pnnrHGQ7bNb-36" value="+ fc: int" style="text;strokeColor=none;fillColor=none;align=left;verticalAlign=top;spacingLeft=4;spacingRight=4;overflow=hidden;rotatable=0;points=[[0,0.5],[1,0.5]];portConstraint=eastwest;whiteSpace=wrap;html=1;" parent="haFOG0XA0pnnrHGQ7bNb-29" vertex="1">
          <mxGeometry y="208" width="300" height="26" as="geometry" />
        </mxCell>
        <mxCell id="haFOG0XA0pnnrHGQ7bNb-37" value="+ fr: int" style="text;strokeColor=none;fillColor=none;align=left;verticalAlign=top;spacingLeft=4;spacingRight=4;overflow=hidden;rotatable=0;points=[[0,0.5],[1,0.5]];portConstraint=eastwest;whiteSpace=wrap;html=1;" parent="haFOG0XA0pnnrHGQ7bNb-29" vertex="1">
          <mxGeometry y="234" width="300" height="26" as="geometry" />
        </mxCell>
        <mxCell id="haFOG0XA0pnnrHGQ7bNb-38" value="+ satO2: int" style="text;strokeColor=none;fillColor=none;align=left;verticalAlign=top;spacingLeft=4;spacingRight=4;overflow=hidden;rotatable=0;points=[[0,0.5],[1,0.5]];portConstraint=eastwest;whiteSpace=wrap;html=1;" parent="haFOG0XA0pnnrHGQ7bNb-29" vertex="1">
          <mxGeometry y="260" width="300" height="26" as="geometry" />
        </mxCell>
        <mxCell id="haFOG0XA0pnnrHGQ7bNb-39" value="+ temperaturaC: int" style="text;strokeColor=none;fillColor=none;align=left;verticalAlign=top;spacingLeft=4;spacingRight=4;overflow=hidden;rotatable=0;points=[[0,0.5],[1,0.5]];portConstraint=eastwest;whiteSpace=wrap;html=1;" parent="haFOG0XA0pnnrHGQ7bNb-29" vertex="1">
          <mxGeometry y="286" width="300" height="26" as="geometry" />
        </mxCell>
        <mxCell id="haFOG0XA0pnnrHGQ7bNb-40" value="+ solicitudes: str" style="text;strokeColor=none;fillColor=none;align=left;verticalAlign=top;spacingLeft=4;spacingRight=4;overflow=hidden;rotatable=0;points=[[0,0.5],[1,0.5]];portConstraint=eastwest;whiteSpace=wrap;html=1;" parent="haFOG0XA0pnnrHGQ7bNb-29" vertex="1">
          <mxGeometry y="312" width="300" height="26" as="geometry" />
        </mxCell>
        <mxCell id="haFOG0XA0pnnrHGQ7bNb-41" value="" style="line;strokeWidth=1;fillColor=none;align=left;verticalAlign=middle;spacingTop=-1;spacingLeft=3;spacingRight=3;rotatable=0;labelPosition=right;points=[];portConstraint=eastwest;strokeColor=inherit;" parent="haFOG0XA0pnnrHGQ7bNb-29" vertex="1">
          <mxGeometry y="338" width="300" height="8" as="geometry" />
        </mxCell>
        <mxCell id="haFOG0XA0pnnrHGQ7bNb-42" value="+ Paciente()" style="text;strokeColor=none;fillColor=none;align=left;verticalAlign=top;spacingLeft=4;spacingRight=4;overflow=hidden;rotatable=0;points=[[0,0.5],[1,0.5]];portConstraint=eastwest;whiteSpace=wrap;html=1;" parent="haFOG0XA0pnnrHGQ7bNb-29" vertex="1">
          <mxGeometry y="346" width="300" height="26" as="geometry" />
        </mxCell>
        <mxCell id="FV3a8bCMoMqEvrclolRB-19" value="+ getId(): int" style="text;strokeColor=none;fillColor=none;align=left;verticalAlign=top;spacingLeft=4;spacingRight=4;overflow=hidden;rotatable=0;points=[[0,0.5],[1,0.5]];portConstraint=eastwest;whiteSpace=wrap;html=1;" parent="haFOG0XA0pnnrHGQ7bNb-29" vertex="1">
          <mxGeometry y="372" width="300" height="26" as="geometry" />
        </mxCell>
        <mxCell id="FV3a8bCMoMqEvrclolRB-20" value="+ setId(id: int)" style="text;strokeColor=none;fillColor=none;align=left;verticalAlign=top;spacingLeft=4;spacingRight=4;overflow=hidden;rotatable=0;points=[[0,0.5],[1,0.5]];portConstraint=eastwest;whiteSpace=wrap;html=1;" parent="haFOG0XA0pnnrHGQ7bNb-29" vertex="1">
          <mxGeometry y="398" width="300" height="26" as="geometry" />
        </mxCell>
        <mxCell id="haFOG0XA0pnnrHGQ7bNb-43" value="+ getPrevision(): str" style="text;strokeColor=none;fillColor=none;align=left;verticalAlign=top;spacingLeft=4;spacingRight=4;overflow=hidden;rotatable=0;points=[[0,0.5],[1,0.5]];portConstraint=eastwest;whiteSpace=wrap;html=1;" parent="haFOG0XA0pnnrHGQ7bNb-29" vertex="1">
          <mxGeometry y="424" width="300" height="26" as="geometry" />
        </mxCell>
        <mxCell id="haFOG0XA0pnnrHGQ7bNb-44" value="+ setPrevision(prevision: str)" style="text;strokeColor=none;fillColor=none;align=left;verticalAlign=top;spacingLeft=4;spacingRight=4;overflow=hidden;rotatable=0;points=[[0,0.5],[1,0.5]];portConstraint=eastwest;whiteSpace=wrap;html=1;" parent="haFOG0XA0pnnrHGQ7bNb-29" vertex="1">
          <mxGeometry y="450" width="300" height="26" as="geometry" />
        </mxCell>
        <mxCell id="haFOG0XA0pnnrHGQ7bNb-45" value="+ getAccidenteLaboral(): bool" style="text;strokeColor=none;fillColor=none;align=left;verticalAlign=top;spacingLeft=4;spacingRight=4;overflow=hidden;rotatable=0;points=[[0,0.5],[1,0.5]];portConstraint=eastwest;whiteSpace=wrap;html=1;" parent="haFOG0XA0pnnrHGQ7bNb-29" vertex="1">
          <mxGeometry y="476" width="300" height="26" as="geometry" />
        </mxCell>
        <mxCell id="haFOG0XA0pnnrHGQ7bNb-46" value="+ setAccidennteLaboral(accidenteLaboral: str)" style="text;strokeColor=none;fillColor=none;align=left;verticalAlign=top;spacingLeft=4;spacingRight=4;overflow=hidden;rotatable=0;points=[[0,0.5],[1,0.5]];portConstraint=eastwest;whiteSpace=wrap;html=1;" parent="haFOG0XA0pnnrHGQ7bNb-29" vertex="1">
          <mxGeometry y="502" width="300" height="26" as="geometry" />
        </mxCell>
        <mxCell id="haFOG0XA0pnnrHGQ7bNb-47" value="+ getComorbilidades(): str" style="text;strokeColor=none;fillColor=none;align=left;verticalAlign=top;spacingLeft=4;spacingRight=4;overflow=hidden;rotatable=0;points=[[0,0.5],[1,0.5]];portConstraint=eastwest;whiteSpace=wrap;html=1;" parent="haFOG0XA0pnnrHGQ7bNb-29" vertex="1">
          <mxGeometry y="528" width="300" height="26" as="geometry" />
        </mxCell>
        <mxCell id="haFOG0XA0pnnrHGQ7bNb-48" value="+ setComorbilidades(comorbilidades: str)" style="text;strokeColor=none;fillColor=none;align=left;verticalAlign=top;spacingLeft=4;spacingRight=4;overflow=hidden;rotatable=0;points=[[0,0.5],[1,0.5]];portConstraint=eastwest;whiteSpace=wrap;html=1;" parent="haFOG0XA0pnnrHGQ7bNb-29" vertex="1">
          <mxGeometry y="554" width="300" height="26" as="geometry" />
        </mxCell>
        <mxCell id="haFOG0XA0pnnrHGQ7bNb-49" value="+ getAlergia(): str" style="text;strokeColor=none;fillColor=none;align=left;verticalAlign=top;spacingLeft=4;spacingRight=4;overflow=hidden;rotatable=0;points=[[0,0.5],[1,0.5]];portConstraint=eastwest;whiteSpace=wrap;html=1;" parent="haFOG0XA0pnnrHGQ7bNb-29" vertex="1">
          <mxGeometry y="580" width="300" height="26" as="geometry" />
        </mxCell>
        <mxCell id="haFOG0XA0pnnrHGQ7bNb-50" value="+ setAlergia(alergia: str)" style="text;strokeColor=none;fillColor=none;align=left;verticalAlign=top;spacingLeft=4;spacingRight=4;overflow=hidden;rotatable=0;points=[[0,0.5],[1,0.5]];portConstraint=eastwest;whiteSpace=wrap;html=1;" parent="haFOG0XA0pnnrHGQ7bNb-29" vertex="1">
          <mxGeometry y="606" width="300" height="26" as="geometry" />
        </mxCell>
        <mxCell id="haFOG0XA0pnnrHGQ7bNb-51" value="+ getMotivoConsulta(): str" style="text;strokeColor=none;fillColor=none;align=left;verticalAlign=top;spacingLeft=4;spacingRight=4;overflow=hidden;rotatable=0;points=[[0,0.5],[1,0.5]];portConstraint=eastwest;whiteSpace=wrap;html=1;" parent="haFOG0XA0pnnrHGQ7bNb-29" vertex="1">
          <mxGeometry y="632" width="300" height="26" as="geometry" />
        </mxCell>
        <mxCell id="haFOG0XA0pnnrHGQ7bNb-52" value="+ setMotivoConsulta(motivoConsulta: str)" style="text;strokeColor=none;fillColor=none;align=left;verticalAlign=top;spacingLeft=4;spacingRight=4;overflow=hidden;rotatable=0;points=[[0,0.5],[1,0.5]];portConstraint=eastwest;whiteSpace=wrap;html=1;" parent="haFOG0XA0pnnrHGQ7bNb-29" vertex="1">
          <mxGeometry y="658" width="300" height="26" as="geometry" />
        </mxCell>
        <mxCell id="haFOG0XA0pnnrHGQ7bNb-53" value="+ getCsv(): str" style="text;strokeColor=none;fillColor=none;align=left;verticalAlign=top;spacingLeft=4;spacingRight=4;overflow=hidden;rotatable=0;points=[[0,0.5],[1,0.5]];portConstraint=eastwest;whiteSpace=wrap;html=1;" parent="haFOG0XA0pnnrHGQ7bNb-29" vertex="1">
          <mxGeometry y="684" width="300" height="26" as="geometry" />
        </mxCell>
        <mxCell id="haFOG0XA0pnnrHGQ7bNb-54" value="+ setCsv(csv: str)" style="text;strokeColor=none;fillColor=none;align=left;verticalAlign=top;spacingLeft=4;spacingRight=4;overflow=hidden;rotatable=0;points=[[0,0.5],[1,0.5]];portConstraint=eastwest;whiteSpace=wrap;html=1;" parent="haFOG0XA0pnnrHGQ7bNb-29" vertex="1">
          <mxGeometry y="710" width="300" height="26" as="geometry" />
        </mxCell>
        <mxCell id="haFOG0XA0pnnrHGQ7bNb-55" value="+ getFc(): int" style="text;strokeColor=none;fillColor=none;align=left;verticalAlign=top;spacingLeft=4;spacingRight=4;overflow=hidden;rotatable=0;points=[[0,0.5],[1,0.5]];portConstraint=eastwest;whiteSpace=wrap;html=1;" parent="haFOG0XA0pnnrHGQ7bNb-29" vertex="1">
          <mxGeometry y="736" width="300" height="26" as="geometry" />
        </mxCell>
        <mxCell id="haFOG0XA0pnnrHGQ7bNb-56" value="+ setFc(fc: int)" style="text;strokeColor=none;fillColor=none;align=left;verticalAlign=top;spacingLeft=4;spacingRight=4;overflow=hidden;rotatable=0;points=[[0,0.5],[1,0.5]];portConstraint=eastwest;whiteSpace=wrap;html=1;" parent="haFOG0XA0pnnrHGQ7bNb-29" vertex="1">
          <mxGeometry y="762" width="300" height="26" as="geometry" />
        </mxCell>
        <mxCell id="haFOG0XA0pnnrHGQ7bNb-57" value="+ getFr(): int" style="text;strokeColor=none;fillColor=none;align=left;verticalAlign=top;spacingLeft=4;spacingRight=4;overflow=hidden;rotatable=0;points=[[0,0.5],[1,0.5]];portConstraint=eastwest;whiteSpace=wrap;html=1;" parent="haFOG0XA0pnnrHGQ7bNb-29" vertex="1">
          <mxGeometry y="788" width="300" height="26" as="geometry" />
        </mxCell>
        <mxCell id="haFOG0XA0pnnrHGQ7bNb-58" value="+ setFr(fr: int)" style="text;strokeColor=none;fillColor=none;align=left;verticalAlign=top;spacingLeft=4;spacingRight=4;overflow=hidden;rotatable=0;points=[[0,0.5],[1,0.5]];portConstraint=eastwest;whiteSpace=wrap;html=1;" parent="haFOG0XA0pnnrHGQ7bNb-29" vertex="1">
          <mxGeometry y="814" width="300" height="26" as="geometry" />
        </mxCell>
        <mxCell id="haFOG0XA0pnnrHGQ7bNb-59" value="+ getSatO2(): int" style="text;strokeColor=none;fillColor=none;align=left;verticalAlign=top;spacingLeft=4;spacingRight=4;overflow=hidden;rotatable=0;points=[[0,0.5],[1,0.5]];portConstraint=eastwest;whiteSpace=wrap;html=1;" parent="haFOG0XA0pnnrHGQ7bNb-29" vertex="1">
          <mxGeometry y="840" width="300" height="26" as="geometry" />
        </mxCell>
        <mxCell id="haFOG0XA0pnnrHGQ7bNb-60" value="+ setSatO2(satO2: int)" style="text;strokeColor=none;fillColor=none;align=left;verticalAlign=top;spacingLeft=4;spacingRight=4;overflow=hidden;rotatable=0;points=[[0,0.5],[1,0.5]];portConstraint=eastwest;whiteSpace=wrap;html=1;" parent="haFOG0XA0pnnrHGQ7bNb-29" vertex="1">
          <mxGeometry y="866" width="300" height="26" as="geometry" />
        </mxCell>
        <mxCell id="haFOG0XA0pnnrHGQ7bNb-61" value="+ getTemperaturaC(): int" style="text;strokeColor=none;fillColor=none;align=left;verticalAlign=top;spacingLeft=4;spacingRight=4;overflow=hidden;rotatable=0;points=[[0,0.5],[1,0.5]];portConstraint=eastwest;whiteSpace=wrap;html=1;" parent="haFOG0XA0pnnrHGQ7bNb-29" vertex="1">
          <mxGeometry y="892" width="300" height="26" as="geometry" />
        </mxCell>
        <mxCell id="haFOG0XA0pnnrHGQ7bNb-62" value="+ setTemperaturaC(temperaturaC: int)" style="text;strokeColor=none;fillColor=none;align=left;verticalAlign=top;spacingLeft=4;spacingRight=4;overflow=hidden;rotatable=0;points=[[0,0.5],[1,0.5]];portConstraint=eastwest;whiteSpace=wrap;html=1;" parent="haFOG0XA0pnnrHGQ7bNb-29" vertex="1">
          <mxGeometry y="918" width="300" height="26" as="geometry" />
        </mxCell>
        <mxCell id="haFOG0XA0pnnrHGQ7bNb-63" value="+ getSolicitudes(); str" style="text;strokeColor=none;fillColor=none;align=left;verticalAlign=top;spacingLeft=4;spacingRight=4;overflow=hidden;rotatable=0;points=[[0,0.5],[1,0.5]];portConstraint=eastwest;whiteSpace=wrap;html=1;" parent="haFOG0XA0pnnrHGQ7bNb-29" vertex="1">
          <mxGeometry y="944" width="300" height="26" as="geometry" />
        </mxCell>
        <mxCell id="haFOG0XA0pnnrHGQ7bNb-64" value="+ setSolicitudes(solicitudes; str)" style="text;strokeColor=none;fillColor=none;align=left;verticalAlign=top;spacingLeft=4;spacingRight=4;overflow=hidden;rotatable=0;points=[[0,0.5],[1,0.5]];portConstraint=eastwest;whiteSpace=wrap;html=1;" parent="haFOG0XA0pnnrHGQ7bNb-29" vertex="1">
          <mxGeometry y="970" width="300" height="26" as="geometry" />
        </mxCell>
        <mxCell id="haFOG0XA0pnnrHGQ7bNb-65" style="edgeStyle=orthogonalEdgeStyle;rounded=0;orthogonalLoop=1;jettySize=auto;html=1;endArrow=block;endFill=0;entryX=0;entryY=0.5;entryDx=0;entryDy=0;" parent="1" source="haFOG0XA0pnnrHGQ7bNb-67" target="haFOG0XA0pnnrHGQ7bNb-25" edge="1">
          <mxGeometry relative="1" as="geometry">
            <mxPoint x="1140" y="1300" as="targetPoint" />
          </mxGeometry>
        </mxCell>
        <mxCell id="haFOG0XA0pnnrHGQ7bNb-66" style="edgeStyle=orthogonalEdgeStyle;rounded=0;orthogonalLoop=1;jettySize=auto;html=1;endArrow=none;endFill=0;" parent="1" source="haFOG0XA0pnnrHGQ7bNb-67" target="haFOG0XA0pnnrHGQ7bNb-114" edge="1">
          <mxGeometry relative="1" as="geometry">
            <Array as="points">
              <mxPoint x="875" y="2210" />
            </Array>
            <mxPoint x="875" y="2058" as="targetPoint" />
          </mxGeometry>
        </mxCell>
        <mxCell id="haFOG0XA0pnnrHGQ7bNb-67" value="ParamÃ©dico" style="swimlane;fontStyle=1;align=center;verticalAlign=top;childLayout=stackLayout;horizontal=1;startSize=26;horizontalStack=0;resizeParent=1;resizeParentMax=0;resizeLast=0;collapsible=1;marginBottom=0;whiteSpace=wrap;html=1;" parent="1" vertex="1">
          <mxGeometry x="750" y="1514" width="240" height="450" as="geometry" />
        </mxCell>
        <mxCell id="haFOG0XA0pnnrHGQ7bNb-68" value="- id: str" style="text;strokeColor=none;fillColor=none;align=left;verticalAlign=top;spacingLeft=4;spacingRight=4;overflow=hidden;rotatable=0;points=[[0,0.5],[1,0.5]];portConstraint=eastwest;whiteSpace=wrap;html=1;" parent="haFOG0XA0pnnrHGQ7bNb-67" vertex="1">
          <mxGeometry y="26" width="240" height="26" as="geometry" />
        </mxCell>
        <mxCell id="haFOG0XA0pnnrHGQ7bNb-69" value="+ ambulancia: str" style="text;strokeColor=none;fillColor=none;align=left;verticalAlign=top;spacingLeft=4;spacingRight=4;overflow=hidden;rotatable=0;points=[[0,0.5],[1,0.5]];portConstraint=eastwest;whiteSpace=wrap;html=1;" parent="haFOG0XA0pnnrHGQ7bNb-67" vertex="1">
          <mxGeometry y="52" width="240" height="26" as="geometry" />
        </mxCell>
        <mxCell id="haFOG0XA0pnnrHGQ7bNb-70" value="+ turno: str" style="text;strokeColor=none;fillColor=none;align=left;verticalAlign=top;spacingLeft=4;spacingRight=4;overflow=hidden;rotatable=0;points=[[0,0.5],[1,0.5]];portConstraint=eastwest;whiteSpace=wrap;html=1;" parent="haFOG0XA0pnnrHGQ7bNb-67" vertex="1">
          <mxGeometry y="78" width="240" height="26" as="geometry" />
        </mxCell>
        <mxCell id="haFOG0XA0pnnrHGQ7bNb-71" value="+ equipoTrabajo: str" style="text;strokeColor=none;fillColor=none;align=left;verticalAlign=top;spacingLeft=4;spacingRight=4;overflow=hidden;rotatable=0;points=[[0,0.5],[1,0.5]];portConstraint=eastwest;whiteSpace=wrap;html=1;" parent="haFOG0XA0pnnrHGQ7bNb-67" vertex="1">
          <mxGeometry y="104" width="240" height="26" as="geometry" />
        </mxCell>
        <mxCell id="haFOG0XA0pnnrHGQ7bNb-72" value="- contraseÃ±a: str" style="text;strokeColor=none;fillColor=none;align=left;verticalAlign=top;spacingLeft=4;spacingRight=4;overflow=hidden;rotatable=0;points=[[0,0.5],[1,0.5]];portConstraint=eastwest;whiteSpace=wrap;html=1;" parent="haFOG0XA0pnnrHGQ7bNb-67" vertex="1">
          <mxGeometry y="130" width="240" height="26" as="geometry" />
        </mxCell>
        <mxCell id="haFOG0XA0pnnrHGQ7bNb-73" value="" style="line;strokeWidth=1;fillColor=none;align=left;verticalAlign=middle;spacingTop=-1;spacingLeft=3;spacingRight=3;rotatable=0;labelPosition=right;points=[];portConstraint=eastwest;strokeColor=inherit;" parent="haFOG0XA0pnnrHGQ7bNb-67" vertex="1">
          <mxGeometry y="156" width="240" height="8" as="geometry" />
        </mxCell>
        <mxCell id="haFOG0XA0pnnrHGQ7bNb-74" value="+ ParamÃ©dico()" style="text;strokeColor=none;fillColor=none;align=left;verticalAlign=top;spacingLeft=4;spacingRight=4;overflow=hidden;rotatable=0;points=[[0,0.5],[1,0.5]];portConstraint=eastwest;whiteSpace=wrap;html=1;" parent="haFOG0XA0pnnrHGQ7bNb-67" vertex="1">
          <mxGeometry y="164" width="240" height="26" as="geometry" />
        </mxCell>
        <mxCell id="FV3a8bCMoMqEvrclolRB-18" value="+ setId(id: int)" style="text;strokeColor=none;fillColor=none;align=left;verticalAlign=top;spacingLeft=4;spacingRight=4;overflow=hidden;rotatable=0;points=[[0,0.5],[1,0.5]];portConstraint=eastwest;whiteSpace=wrap;html=1;" parent="haFOG0XA0pnnrHGQ7bNb-67" vertex="1">
          <mxGeometry y="190" width="240" height="26" as="geometry" />
        </mxCell>
        <mxCell id="FV3a8bCMoMqEvrclolRB-17" value="+ getId(): int" style="text;strokeColor=none;fillColor=none;align=left;verticalAlign=top;spacingLeft=4;spacingRight=4;overflow=hidden;rotatable=0;points=[[0,0.5],[1,0.5]];portConstraint=eastwest;whiteSpace=wrap;html=1;" parent="haFOG0XA0pnnrHGQ7bNb-67" vertex="1">
          <mxGeometry y="216" width="240" height="26" as="geometry" />
        </mxCell>
        <mxCell id="haFOG0XA0pnnrHGQ7bNb-75" value="+ getAmbulancia(): str" style="text;strokeColor=none;fillColor=none;align=left;verticalAlign=top;spacingLeft=4;spacingRight=4;overflow=hidden;rotatable=0;points=[[0,0.5],[1,0.5]];portConstraint=eastwest;whiteSpace=wrap;html=1;" parent="haFOG0XA0pnnrHGQ7bNb-67" vertex="1">
          <mxGeometry y="242" width="240" height="26" as="geometry" />
        </mxCell>
        <mxCell id="haFOG0XA0pnnrHGQ7bNb-76" value="+ setAmbulancia(ambulancia: str)" style="text;strokeColor=none;fillColor=none;align=left;verticalAlign=top;spacingLeft=4;spacingRight=4;overflow=hidden;rotatable=0;points=[[0,0.5],[1,0.5]];portConstraint=eastwest;whiteSpace=wrap;html=1;" parent="haFOG0XA0pnnrHGQ7bNb-67" vertex="1">
          <mxGeometry y="268" width="240" height="26" as="geometry" />
        </mxCell>
        <mxCell id="haFOG0XA0pnnrHGQ7bNb-77" value="+ getTurno(): str" style="text;strokeColor=none;fillColor=none;align=left;verticalAlign=top;spacingLeft=4;spacingRight=4;overflow=hidden;rotatable=0;points=[[0,0.5],[1,0.5]];portConstraint=eastwest;whiteSpace=wrap;html=1;" parent="haFOG0XA0pnnrHGQ7bNb-67" vertex="1">
          <mxGeometry y="294" width="240" height="26" as="geometry" />
        </mxCell>
        <mxCell id="haFOG0XA0pnnrHGQ7bNb-78" value="+ setTurno(turno: str)" style="text;strokeColor=none;fillColor=none;align=left;verticalAlign=top;spacingLeft=4;spacingRight=4;overflow=hidden;rotatable=0;points=[[0,0.5],[1,0.5]];portConstraint=eastwest;whiteSpace=wrap;html=1;" parent="haFOG0XA0pnnrHGQ7bNb-67" vertex="1">
          <mxGeometry y="320" width="240" height="26" as="geometry" />
        </mxCell>
        <mxCell id="haFOG0XA0pnnrHGQ7bNb-79" value="+ getEquipoTrabajo(): str" style="text;strokeColor=none;fillColor=none;align=left;verticalAlign=top;spacingLeft=4;spacingRight=4;overflow=hidden;rotatable=0;points=[[0,0.5],[1,0.5]];portConstraint=eastwest;whiteSpace=wrap;html=1;" parent="haFOG0XA0pnnrHGQ7bNb-67" vertex="1">
          <mxGeometry y="346" width="240" height="26" as="geometry" />
        </mxCell>
        <mxCell id="haFOG0XA0pnnrHGQ7bNb-80" value="+ setEquipoTrabajo(equipoTrabajo: str)" style="text;strokeColor=none;fillColor=none;align=left;verticalAlign=top;spacingLeft=4;spacingRight=4;overflow=hidden;rotatable=0;points=[[0,0.5],[1,0.5]];portConstraint=eastwest;whiteSpace=wrap;html=1;" parent="haFOG0XA0pnnrHGQ7bNb-67" vertex="1">
          <mxGeometry y="372" width="240" height="26" as="geometry" />
        </mxCell>
        <mxCell id="haFOG0XA0pnnrHGQ7bNb-81" value="+ getContraseÃ±a(): str" style="text;strokeColor=none;fillColor=none;align=left;verticalAlign=top;spacingLeft=4;spacingRight=4;overflow=hidden;rotatable=0;points=[[0,0.5],[1,0.5]];portConstraint=eastwest;whiteSpace=wrap;html=1;" parent="haFOG0XA0pnnrHGQ7bNb-67" vertex="1">
          <mxGeometry y="398" width="240" height="26" as="geometry" />
        </mxCell>
        <mxCell id="haFOG0XA0pnnrHGQ7bNb-82" value="+ setContraseÃ±a(contraseÃ±a: str)" style="text;strokeColor=none;fillColor=none;align=left;verticalAlign=top;spacingLeft=4;spacingRight=4;overflow=hidden;rotatable=0;points=[[0,0.5],[1,0.5]];portConstraint=eastwest;whiteSpace=wrap;html=1;" parent="haFOG0XA0pnnrHGQ7bNb-67" vertex="1">
          <mxGeometry y="424" width="240" height="26" as="geometry" />
        </mxCell>
        <mxCell id="haFOG0XA0pnnrHGQ7bNb-83" style="edgeStyle=orthogonalEdgeStyle;rounded=0;orthogonalLoop=1;jettySize=auto;html=1;endArrow=block;endFill=0;" parent="1" source="haFOG0XA0pnnrHGQ7bNb-86" target="haFOG0XA0pnnrHGQ7bNb-1" edge="1">
          <mxGeometry relative="1" as="geometry">
            <Array as="points">
              <mxPoint x="1145" y="1590" />
              <mxPoint x="1145" y="1590" />
            </Array>
          </mxGeometry>
        </mxCell>
        <mxCell id="haFOG0XA0pnnrHGQ7bNb-84" style="edgeStyle=orthogonalEdgeStyle;rounded=0;orthogonalLoop=1;jettySize=auto;html=1;entryX=0.25;entryY=0;entryDx=0;entryDy=0;endArrow=none;endFill=0;" parent="1" source="haFOG0XA0pnnrHGQ7bNb-86" target="haFOG0XA0pnnrHGQ7bNb-114" edge="1">
          <mxGeometry relative="1" as="geometry">
            <Array as="points">
              <mxPoint x="1140" y="2140" />
            </Array>
          </mxGeometry>
        </mxCell>
        <mxCell id="haFOG0XA0pnnrHGQ7bNb-85" style="edgeStyle=orthogonalEdgeStyle;rounded=0;orthogonalLoop=1;jettySize=auto;html=1;endArrow=diamondThin;endFill=1;" parent="1" source="haFOG0XA0pnnrHGQ7bNb-86" target="haFOG0XA0pnnrHGQ7bNb-130" edge="1">
          <mxGeometry relative="1" as="geometry">
            <Array as="points">
              <mxPoint x="1220" y="1410" />
              <mxPoint x="1610" y="1410" />
              <mxPoint x="1610" y="1630" />
            </Array>
          </mxGeometry>
        </mxCell>
        <mxCell id="haFOG0XA0pnnrHGQ7bNb-86" value="Recepcionista" style="swimlane;fontStyle=1;align=center;verticalAlign=top;childLayout=stackLayout;horizontal=1;startSize=26;horizontalStack=0;resizeParent=1;resizeParentMax=0;resizeLast=0;collapsible=1;marginBottom=0;whiteSpace=wrap;html=1;" parent="1" vertex="1">
          <mxGeometry x="1060" y="1670" width="200" height="294" as="geometry" />
        </mxCell>
        <mxCell id="haFOG0XA0pnnrHGQ7bNb-87" value="- id: str" style="text;strokeColor=none;fillColor=none;align=left;verticalAlign=top;spacingLeft=4;spacingRight=4;overflow=hidden;rotatable=0;points=[[0,0.5],[1,0.5]];portConstraint=eastwest;whiteSpace=wrap;html=1;" parent="haFOG0XA0pnnrHGQ7bNb-86" vertex="1">
          <mxGeometry y="26" width="200" height="26" as="geometry" />
        </mxCell>
        <mxCell id="haFOG0XA0pnnrHGQ7bNb-88" value="+ turno: str" style="text;strokeColor=none;fillColor=none;align=left;verticalAlign=top;spacingLeft=4;spacingRight=4;overflow=hidden;rotatable=0;points=[[0,0.5],[1,0.5]];portConstraint=eastwest;whiteSpace=wrap;html=1;" parent="haFOG0XA0pnnrHGQ7bNb-86" vertex="1">
          <mxGeometry y="52" width="200" height="26" as="geometry" />
        </mxCell>
        <mxCell id="haFOG0XA0pnnrHGQ7bNb-89" value="- contraseÃ±a: str" style="text;strokeColor=none;fillColor=none;align=left;verticalAlign=top;spacingLeft=4;spacingRight=4;overflow=hidden;rotatable=0;points=[[0,0.5],[1,0.5]];portConstraint=eastwest;whiteSpace=wrap;html=1;" parent="haFOG0XA0pnnrHGQ7bNb-86" vertex="1">
          <mxGeometry y="78" width="200" height="26" as="geometry" />
        </mxCell>
        <mxCell id="haFOG0XA0pnnrHGQ7bNb-90" value="" style="line;strokeWidth=1;fillColor=none;align=left;verticalAlign=middle;spacingTop=-1;spacingLeft=3;spacingRight=3;rotatable=0;labelPosition=right;points=[];portConstraint=eastwest;strokeColor=inherit;" parent="haFOG0XA0pnnrHGQ7bNb-86" vertex="1">
          <mxGeometry y="104" width="200" height="8" as="geometry" />
        </mxCell>
        <mxCell id="haFOG0XA0pnnrHGQ7bNb-91" value="+ Recepcionista()" style="text;strokeColor=none;fillColor=none;align=left;verticalAlign=top;spacingLeft=4;spacingRight=4;overflow=hidden;rotatable=0;points=[[0,0.5],[1,0.5]];portConstraint=eastwest;whiteSpace=wrap;html=1;" parent="haFOG0XA0pnnrHGQ7bNb-86" vertex="1">
          <mxGeometry y="112" width="200" height="26" as="geometry" />
        </mxCell>
        <mxCell id="FV3a8bCMoMqEvrclolRB-13" value="+ getId(): int" style="text;strokeColor=none;fillColor=none;align=left;verticalAlign=top;spacingLeft=4;spacingRight=4;overflow=hidden;rotatable=0;points=[[0,0.5],[1,0.5]];portConstraint=eastwest;whiteSpace=wrap;html=1;" parent="haFOG0XA0pnnrHGQ7bNb-86" vertex="1">
          <mxGeometry y="138" width="200" height="26" as="geometry" />
        </mxCell>
        <mxCell id="FV3a8bCMoMqEvrclolRB-14" value="+ setId(id: int)" style="text;strokeColor=none;fillColor=none;align=left;verticalAlign=top;spacingLeft=4;spacingRight=4;overflow=hidden;rotatable=0;points=[[0,0.5],[1,0.5]];portConstraint=eastwest;whiteSpace=wrap;html=1;" parent="haFOG0XA0pnnrHGQ7bNb-86" vertex="1">
          <mxGeometry y="164" width="200" height="26" as="geometry" />
        </mxCell>
        <mxCell id="haFOG0XA0pnnrHGQ7bNb-92" value="+ getTurno(): str" style="text;strokeColor=none;fillColor=none;align=left;verticalAlign=top;spacingLeft=4;spacingRight=4;overflow=hidden;rotatable=0;points=[[0,0.5],[1,0.5]];portConstraint=eastwest;whiteSpace=wrap;html=1;" parent="haFOG0XA0pnnrHGQ7bNb-86" vertex="1">
          <mxGeometry y="190" width="200" height="26" as="geometry" />
        </mxCell>
        <mxCell id="haFOG0XA0pnnrHGQ7bNb-93" value="+ setTurno(turno: str)" style="text;strokeColor=none;fillColor=none;align=left;verticalAlign=top;spacingLeft=4;spacingRight=4;overflow=hidden;rotatable=0;points=[[0,0.5],[1,0.5]];portConstraint=eastwest;whiteSpace=wrap;html=1;" parent="haFOG0XA0pnnrHGQ7bNb-86" vertex="1">
          <mxGeometry y="216" width="200" height="26" as="geometry" />
        </mxCell>
        <mxCell id="haFOG0XA0pnnrHGQ7bNb-94" value="+ getContraseÃ±a(): str" style="text;strokeColor=none;fillColor=none;align=left;verticalAlign=top;spacingLeft=4;spacingRight=4;overflow=hidden;rotatable=0;points=[[0,0.5],[1,0.5]];portConstraint=eastwest;whiteSpace=wrap;html=1;" parent="haFOG0XA0pnnrHGQ7bNb-86" vertex="1">
          <mxGeometry y="242" width="200" height="26" as="geometry" />
        </mxCell>
        <mxCell id="haFOG0XA0pnnrHGQ7bNb-95" value="+ setContraseÃ±a(contraseÃ±a: str)" style="text;strokeColor=none;fillColor=none;align=left;verticalAlign=top;spacingLeft=4;spacingRight=4;overflow=hidden;rotatable=0;points=[[0,0.5],[1,0.5]];portConstraint=eastwest;whiteSpace=wrap;html=1;" parent="haFOG0XA0pnnrHGQ7bNb-86" vertex="1">
          <mxGeometry y="268" width="200" height="26" as="geometry" />
        </mxCell>
        <mxCell id="haFOG0XA0pnnrHGQ7bNb-96" style="edgeStyle=orthogonalEdgeStyle;rounded=0;orthogonalLoop=1;jettySize=auto;html=1;entryX=0.999;entryY=0.678;entryDx=0;entryDy=0;entryPerimeter=0;endArrow=block;endFill=0;" parent="1" source="haFOG0XA0pnnrHGQ7bNb-98" target="haFOG0XA0pnnrHGQ7bNb-24" edge="1">
          <mxGeometry relative="1" as="geometry" />
        </mxCell>
        <mxCell id="haFOG0XA0pnnrHGQ7bNb-97" style="edgeStyle=orthogonalEdgeStyle;rounded=0;orthogonalLoop=1;jettySize=auto;html=1;entryX=0.75;entryY=0;entryDx=0;entryDy=0;endArrow=none;endFill=0;" parent="1" source="haFOG0XA0pnnrHGQ7bNb-98" target="haFOG0XA0pnnrHGQ7bNb-114" edge="1">
          <mxGeometry relative="1" as="geometry">
            <Array as="points">
              <mxPoint x="1440" y="2060" />
              <mxPoint x="1200" y="2060" />
              <mxPoint x="1200" y="2140" />
            </Array>
          </mxGeometry>
        </mxCell>
        <mxCell id="haFOG0XA0pnnrHGQ7bNb-98" value="Doctor" style="swimlane;fontStyle=1;align=center;verticalAlign=top;childLayout=stackLayout;horizontal=1;startSize=26;horizontalStack=0;resizeParent=1;resizeParentMax=0;resizeLast=0;collapsible=1;marginBottom=0;whiteSpace=wrap;html=1;" parent="1" vertex="1">
          <mxGeometry x="1320" y="1493" width="240" height="450" as="geometry" />
        </mxCell>
        <mxCell id="haFOG0XA0pnnrHGQ7bNb-99" value="- id: str" style="text;strokeColor=none;fillColor=none;align=left;verticalAlign=top;spacingLeft=4;spacingRight=4;overflow=hidden;rotatable=0;points=[[0,0.5],[1,0.5]];portConstraint=eastwest;whiteSpace=wrap;html=1;" parent="haFOG0XA0pnnrHGQ7bNb-98" vertex="1">
          <mxGeometry y="26" width="240" height="26" as="geometry" />
        </mxCell>
        <mxCell id="haFOG0XA0pnnrHGQ7bNb-100" value="+ especialidades: str" style="text;strokeColor=none;fillColor=none;align=left;verticalAlign=top;spacingLeft=4;spacingRight=4;overflow=hidden;rotatable=0;points=[[0,0.5],[1,0.5]];portConstraint=eastwest;whiteSpace=wrap;html=1;" parent="haFOG0XA0pnnrHGQ7bNb-98" vertex="1">
          <mxGeometry y="52" width="240" height="26" as="geometry" />
        </mxCell>
        <mxCell id="haFOG0XA0pnnrHGQ7bNb-101" value="+ boxActual: str" style="text;strokeColor=none;fillColor=none;align=left;verticalAlign=top;spacingLeft=4;spacingRight=4;overflow=hidden;rotatable=0;points=[[0,0.5],[1,0.5]];portConstraint=eastwest;whiteSpace=wrap;html=1;" parent="haFOG0XA0pnnrHGQ7bNb-98" vertex="1">
          <mxGeometry y="78" width="240" height="26" as="geometry" />
        </mxCell>
        <mxCell id="haFOG0XA0pnnrHGQ7bNb-102" value="+ turno: str" style="text;strokeColor=none;fillColor=none;align=left;verticalAlign=top;spacingLeft=4;spacingRight=4;overflow=hidden;rotatable=0;points=[[0,0.5],[1,0.5]];portConstraint=eastwest;whiteSpace=wrap;html=1;" parent="haFOG0XA0pnnrHGQ7bNb-98" vertex="1">
          <mxGeometry y="104" width="240" height="26" as="geometry" />
        </mxCell>
        <mxCell id="haFOG0XA0pnnrHGQ7bNb-103" value="- contraseÃ±a: str" style="text;strokeColor=none;fillColor=none;align=left;verticalAlign=top;spacingLeft=4;spacingRight=4;overflow=hidden;rotatable=0;points=[[0,0.5],[1,0.5]];portConstraint=eastwest;whiteSpace=wrap;html=1;" parent="haFOG0XA0pnnrHGQ7bNb-98" vertex="1">
          <mxGeometry y="130" width="240" height="26" as="geometry" />
        </mxCell>
        <mxCell id="haFOG0XA0pnnrHGQ7bNb-104" value="" style="line;strokeWidth=1;fillColor=none;align=left;verticalAlign=middle;spacingTop=-1;spacingLeft=3;spacingRight=3;rotatable=0;labelPosition=right;points=[];portConstraint=eastwest;strokeColor=inherit;" parent="haFOG0XA0pnnrHGQ7bNb-98" vertex="1">
          <mxGeometry y="156" width="240" height="8" as="geometry" />
        </mxCell>
        <mxCell id="haFOG0XA0pnnrHGQ7bNb-105" value="+ Doctor()" style="text;strokeColor=none;fillColor=none;align=left;verticalAlign=top;spacingLeft=4;spacingRight=4;overflow=hidden;rotatable=0;points=[[0,0.5],[1,0.5]];portConstraint=eastwest;whiteSpace=wrap;html=1;" parent="haFOG0XA0pnnrHGQ7bNb-98" vertex="1">
          <mxGeometry y="164" width="240" height="26" as="geometry" />
        </mxCell>
        <mxCell id="FV3a8bCMoMqEvrclolRB-12" value="+ setId(id: int)" style="text;strokeColor=none;fillColor=none;align=left;verticalAlign=top;spacingLeft=4;spacingRight=4;overflow=hidden;rotatable=0;points=[[0,0.5],[1,0.5]];portConstraint=eastwest;whiteSpace=wrap;html=1;" parent="haFOG0XA0pnnrHGQ7bNb-98" vertex="1">
          <mxGeometry y="190" width="240" height="26" as="geometry" />
        </mxCell>
        <mxCell id="FV3a8bCMoMqEvrclolRB-11" value="+ getId(): int" style="text;strokeColor=none;fillColor=none;align=left;verticalAlign=top;spacingLeft=4;spacingRight=4;overflow=hidden;rotatable=0;points=[[0,0.5],[1,0.5]];portConstraint=eastwest;whiteSpace=wrap;html=1;" parent="haFOG0XA0pnnrHGQ7bNb-98" vertex="1">
          <mxGeometry y="216" width="240" height="26" as="geometry" />
        </mxCell>
        <mxCell id="haFOG0XA0pnnrHGQ7bNb-106" value="+ getEspecialidades(): str" style="text;strokeColor=none;fillColor=none;align=left;verticalAlign=top;spacingLeft=4;spacingRight=4;overflow=hidden;rotatable=0;points=[[0,0.5],[1,0.5]];portConstraint=eastwest;whiteSpace=wrap;html=1;" parent="haFOG0XA0pnnrHGQ7bNb-98" vertex="1">
          <mxGeometry y="242" width="240" height="26" as="geometry" />
        </mxCell>
        <mxCell id="haFOG0XA0pnnrHGQ7bNb-107" value="+ setEspecialidades(especialidades: str)" style="text;strokeColor=none;fillColor=none;align=left;verticalAlign=top;spacingLeft=4;spacingRight=4;overflow=hidden;rotatable=0;points=[[0,0.5],[1,0.5]];portConstraint=eastwest;whiteSpace=wrap;html=1;" parent="haFOG0XA0pnnrHGQ7bNb-98" vertex="1">
          <mxGeometry y="268" width="240" height="26" as="geometry" />
        </mxCell>
        <mxCell id="haFOG0XA0pnnrHGQ7bNb-108" value="+ getBoxActual(): str" style="text;strokeColor=none;fillColor=none;align=left;verticalAlign=top;spacingLeft=4;spacingRight=4;overflow=hidden;rotatable=0;points=[[0,0.5],[1,0.5]];portConstraint=eastwest;whiteSpace=wrap;html=1;" parent="haFOG0XA0pnnrHGQ7bNb-98" vertex="1">
          <mxGeometry y="294" width="240" height="26" as="geometry" />
        </mxCell>
        <mxCell id="haFOG0XA0pnnrHGQ7bNb-109" value="+ setBoxActual(boxActual: str)" style="text;strokeColor=none;fillColor=none;align=left;verticalAlign=top;spacingLeft=4;spacingRight=4;overflow=hidden;rotatable=0;points=[[0,0.5],[1,0.5]];portConstraint=eastwest;whiteSpace=wrap;html=1;" parent="haFOG0XA0pnnrHGQ7bNb-98" vertex="1">
          <mxGeometry y="320" width="240" height="26" as="geometry" />
        </mxCell>
        <mxCell id="haFOG0XA0pnnrHGQ7bNb-110" value="+ getTurno(): str" style="text;strokeColor=none;fillColor=none;align=left;verticalAlign=top;spacingLeft=4;spacingRight=4;overflow=hidden;rotatable=0;points=[[0,0.5],[1,0.5]];portConstraint=eastwest;whiteSpace=wrap;html=1;" parent="haFOG0XA0pnnrHGQ7bNb-98" vertex="1">
          <mxGeometry y="346" width="240" height="26" as="geometry" />
        </mxCell>
        <mxCell id="haFOG0XA0pnnrHGQ7bNb-111" value="+ setTurno(turno: str)" style="text;strokeColor=none;fillColor=none;align=left;verticalAlign=top;spacingLeft=4;spacingRight=4;overflow=hidden;rotatable=0;points=[[0,0.5],[1,0.5]];portConstraint=eastwest;whiteSpace=wrap;html=1;" parent="haFOG0XA0pnnrHGQ7bNb-98" vertex="1">
          <mxGeometry y="372" width="240" height="26" as="geometry" />
        </mxCell>
        <mxCell id="haFOG0XA0pnnrHGQ7bNb-112" value="+ getContraseÃ±a(): str" style="text;strokeColor=none;fillColor=none;align=left;verticalAlign=top;spacingLeft=4;spacingRight=4;overflow=hidden;rotatable=0;points=[[0,0.5],[1,0.5]];portConstraint=eastwest;whiteSpace=wrap;html=1;" parent="haFOG0XA0pnnrHGQ7bNb-98" vertex="1">
          <mxGeometry y="398" width="240" height="26" as="geometry" />
        </mxCell>
        <mxCell id="haFOG0XA0pnnrHGQ7bNb-113" value="+ setContraseÃ±a(contraseÃ±a: str)" style="text;strokeColor=none;fillColor=none;align=left;verticalAlign=top;spacingLeft=4;spacingRight=4;overflow=hidden;rotatable=0;points=[[0,0.5],[1,0.5]];portConstraint=eastwest;whiteSpace=wrap;html=1;" parent="haFOG0XA0pnnrHGQ7bNb-98" vertex="1">
          <mxGeometry y="424" width="240" height="26" as="geometry" />
        </mxCell>
        <mxCell id="haFOG0XA0pnnrHGQ7bNb-114" value="Views" style="swimlane;fontStyle=1;align=center;verticalAlign=top;childLayout=stackLayout;horizontal=1;startSize=26;horizontalStack=0;resizeParent=1;resizeParentMax=0;resizeLast=0;collapsible=1;marginBottom=0;whiteSpace=wrap;html=1;" parent="1" vertex="1">
          <mxGeometry x="1015" y="2140" width="220" height="372" as="geometry" />
        </mxCell>
        <mxCell id="haFOG0XA0pnnrHGQ7bNb-115" value="+ recepcionista: Recepcionista" style="text;strokeColor=none;fillColor=none;align=left;verticalAlign=top;spacingLeft=4;spacingRight=4;overflow=hidden;rotatable=0;points=[[0,0.5],[1,0.5]];portConstraint=eastwest;whiteSpace=wrap;html=1;" parent="haFOG0XA0pnnrHGQ7bNb-114" vertex="1">
          <mxGeometry y="26" width="220" height="26" as="geometry" />
        </mxCell>
        <mxCell id="haFOG0XA0pnnrHGQ7bNb-116" value="+ doctor: Doctor" style="text;strokeColor=none;fillColor=none;align=left;verticalAlign=top;spacingLeft=4;spacingRight=4;overflow=hidden;rotatable=0;points=[[0,0.5],[1,0.5]];portConstraint=eastwest;whiteSpace=wrap;html=1;" parent="haFOG0XA0pnnrHGQ7bNb-114" vertex="1">
          <mxGeometry y="52" width="220" height="26" as="geometry" />
        </mxCell>
        <mxCell id="haFOG0XA0pnnrHGQ7bNb-117" value="" style="line;strokeWidth=1;fillColor=none;align=left;verticalAlign=middle;spacingTop=-1;spacingLeft=3;spacingRight=3;rotatable=0;labelPosition=right;points=[];portConstraint=eastwest;strokeColor=inherit;" parent="haFOG0XA0pnnrHGQ7bNb-114" vertex="1">
          <mxGeometry y="78" width="220" height="8" as="geometry" />
        </mxCell>
        <mxCell id="haFOG0XA0pnnrHGQ7bNb-118" value="+ FuncionesRD()" style="text;strokeColor=none;fillColor=none;align=left;verticalAlign=top;spacingLeft=4;spacingRight=4;overflow=hidden;rotatable=0;points=[[0,0.5],[1,0.5]];portConstraint=eastwest;whiteSpace=wrap;html=1;" parent="haFOG0XA0pnnrHGQ7bNb-114" vertex="1">
          <mxGeometry y="86" width="220" height="26" as="geometry" />
        </mxCell>
        <mxCell id="haFOG0XA0pnnrHGQ7bNb-119" value="+ index()" style="text;strokeColor=none;fillColor=none;align=left;verticalAlign=top;spacingLeft=4;spacingRight=4;overflow=hidden;rotatable=0;points=[[0,0.5],[1,0.5]];portConstraint=eastwest;whiteSpace=wrap;html=1;" parent="haFOG0XA0pnnrHGQ7bNb-114" vertex="1">
          <mxGeometry y="112" width="220" height="26" as="geometry" />
        </mxCell>
        <mxCell id="haFOG0XA0pnnrHGQ7bNb-120" value="+ loginAdmin()" style="text;strokeColor=none;fillColor=none;align=left;verticalAlign=top;spacingLeft=4;spacingRight=4;overflow=hidden;rotatable=0;points=[[0,0.5],[1,0.5]];portConstraint=eastwest;whiteSpace=wrap;html=1;" parent="haFOG0XA0pnnrHGQ7bNb-114" vertex="1">
          <mxGeometry y="138" width="220" height="26" as="geometry" />
        </mxCell>
        <mxCell id="haFOG0XA0pnnrHGQ7bNb-121" value="+ loginFuncionario()" style="text;strokeColor=none;fillColor=none;align=left;verticalAlign=top;spacingLeft=4;spacingRight=4;overflow=hidden;rotatable=0;points=[[0,0.5],[1,0.5]];portConstraint=eastwest;whiteSpace=wrap;html=1;" parent="haFOG0XA0pnnrHGQ7bNb-114" vertex="1">
          <mxGeometry y="164" width="220" height="26" as="geometry" />
        </mxCell>
        <mxCell id="haFOG0XA0pnnrHGQ7bNb-122" value="+ menuParamedico()" style="text;strokeColor=none;fillColor=none;align=left;verticalAlign=top;spacingLeft=4;spacingRight=4;overflow=hidden;rotatable=0;points=[[0,0.5],[1,0.5]];portConstraint=eastwest;whiteSpace=wrap;html=1;" parent="haFOG0XA0pnnrHGQ7bNb-114" vertex="1">
          <mxGeometry y="190" width="220" height="26" as="geometry" />
        </mxCell>
        <mxCell id="haFOG0XA0pnnrHGQ7bNb-123" value="+ menuHospital()" style="text;strokeColor=none;fillColor=none;align=left;verticalAlign=top;spacingLeft=4;spacingRight=4;overflow=hidden;rotatable=0;points=[[0,0.5],[1,0.5]];portConstraint=eastwest;whiteSpace=wrap;html=1;" parent="haFOG0XA0pnnrHGQ7bNb-114" vertex="1">
          <mxGeometry y="216" width="220" height="26" as="geometry" />
        </mxCell>
        <mxCell id="haFOG0XA0pnnrHGQ7bNb-124" value="+ verFormularios()" style="text;strokeColor=none;fillColor=none;align=left;verticalAlign=top;spacingLeft=4;spacingRight=4;overflow=hidden;rotatable=0;points=[[0,0.5],[1,0.5]];portConstraint=eastwest;whiteSpace=wrap;html=1;" parent="haFOG0XA0pnnrHGQ7bNb-114" vertex="1">
          <mxGeometry y="242" width="220" height="26" as="geometry" />
        </mxCell>
        <mxCell id="haFOG0XA0pnnrHGQ7bNb-125" value="+ editarDatos()" style="text;strokeColor=none;fillColor=none;align=left;verticalAlign=top;spacingLeft=4;spacingRight=4;overflow=hidden;rotatable=0;points=[[0,0.5],[1,0.5]];portConstraint=eastwest;whiteSpace=wrap;html=1;" parent="haFOG0XA0pnnrHGQ7bNb-114" vertex="1">
          <mxGeometry y="268" width="220" height="26" as="geometry" />
        </mxCell>
        <mxCell id="haFOG0XA0pnnrHGQ7bNb-126" value="+ convertirPDF()" style="text;strokeColor=none;fillColor=none;align=left;verticalAlign=top;spacingLeft=4;spacingRight=4;overflow=hidden;rotatable=0;points=[[0,0.5],[1,0.5]];portConstraint=eastwest;whiteSpace=wrap;html=1;" parent="haFOG0XA0pnnrHGQ7bNb-114" vertex="1">
          <mxGeometry y="294" width="220" height="26" as="geometry" />
        </mxCell>
        <mxCell id="haFOG0XA0pnnrHGQ7bNb-127" value="+ convertirExcel()" style="text;strokeColor=none;fillColor=none;align=left;verticalAlign=top;spacingLeft=4;spacingRight=4;overflow=hidden;rotatable=0;points=[[0,0.5],[1,0.5]];portConstraint=eastwest;whiteSpace=wrap;html=1;" parent="haFOG0XA0pnnrHGQ7bNb-114" vertex="1">
          <mxGeometry y="320" width="220" height="26" as="geometry" />
        </mxCell>
        <mxCell id="haFOG0XA0pnnrHGQ7bNb-128" value="+ derivarPaciente()" style="text;strokeColor=none;fillColor=none;align=left;verticalAlign=top;spacingLeft=4;spacingRight=4;overflow=hidden;rotatable=0;points=[[0,0.5],[1,0.5]];portConstraint=eastwest;whiteSpace=wrap;html=1;" parent="haFOG0XA0pnnrHGQ7bNb-114" vertex="1">
          <mxGeometry y="346" width="220" height="26" as="geometry" />
        </mxCell>
        <mxCell id="haFOG0XA0pnnrHGQ7bNb-129" style="edgeStyle=orthogonalEdgeStyle;rounded=0;orthogonalLoop=1;jettySize=auto;html=1;endArrow=none;endFill=0;startArrow=diamondThin;startFill=0;" parent="1" source="haFOG0XA0pnnrHGQ7bNb-64" target="haFOG0XA0pnnrHGQ7bNb-114" edge="1">
          <mxGeometry relative="1" as="geometry">
            <Array as="points">
              <mxPoint x="550" y="2270" />
            </Array>
            <mxPoint x="800" y="2130" as="targetPoint" />
          </mxGeometry>
        </mxCell>
        <mxCell id="haFOG0XA0pnnrHGQ7bNb-130" value="Hospital" style="swimlane;fontStyle=1;align=center;verticalAlign=top;childLayout=stackLayout;horizontal=1;startSize=26;horizontalStack=0;resizeParent=1;resizeParentMax=0;resizeLast=0;collapsible=1;marginBottom=0;whiteSpace=wrap;html=1;" parent="1" vertex="1">
          <mxGeometry x="1830" y="1568" width="270" height="528" as="geometry" />
        </mxCell>
        <mxCell id="haFOG0XA0pnnrHGQ7bNb-131" value="- id: int" style="text;strokeColor=none;fillColor=none;align=left;verticalAlign=top;spacingLeft=4;spacingRight=4;overflow=hidden;rotatable=0;points=[[0,0.5],[1,0.5]];portConstraint=eastwest;whiteSpace=wrap;html=1;" parent="haFOG0XA0pnnrHGQ7bNb-130" vertex="1">
          <mxGeometry y="26" width="270" height="26" as="geometry" />
        </mxCell>
        <mxCell id="haFOG0XA0pnnrHGQ7bNb-132" value="+ nombre: str" style="text;strokeColor=none;fillColor=none;align=left;verticalAlign=top;spacingLeft=4;spacingRight=4;overflow=hidden;rotatable=0;points=[[0,0.5],[1,0.5]];portConstraint=eastwest;whiteSpace=wrap;html=1;" parent="haFOG0XA0pnnrHGQ7bNb-130" vertex="1">
          <mxGeometry y="52" width="270" height="26" as="geometry" />
        </mxCell>
        <mxCell id="haFOG0XA0pnnrHGQ7bNb-133" value="+ direccion: str" style="text;strokeColor=none;fillColor=none;align=left;verticalAlign=top;spacingLeft=4;spacingRight=4;overflow=hidden;rotatable=0;points=[[0,0.5],[1,0.5]];portConstraint=eastwest;whiteSpace=wrap;html=1;" parent="haFOG0XA0pnnrHGQ7bNb-130" vertex="1">
          <mxGeometry y="78" width="270" height="26" as="geometry" />
        </mxCell>
        <mxCell id="haFOG0XA0pnnrHGQ7bNb-134" value="+ disponibilidad: int" style="text;strokeColor=none;fillColor=none;align=left;verticalAlign=top;spacingLeft=4;spacingRight=4;overflow=hidden;rotatable=0;points=[[0,0.5],[1,0.5]];portConstraint=eastwest;whiteSpace=wrap;html=1;" parent="haFOG0XA0pnnrHGQ7bNb-130" vertex="1">
          <mxGeometry y="104" width="270" height="26" as="geometry" />
        </mxCell>
        <mxCell id="haFOG0XA0pnnrHGQ7bNb-135" value="+ especialidades []" style="text;strokeColor=none;fillColor=none;align=left;verticalAlign=top;spacingLeft=4;spacingRight=4;overflow=hidden;rotatable=0;points=[[0,0.5],[1,0.5]];portConstraint=eastwest;whiteSpace=wrap;html=1;" parent="haFOG0XA0pnnrHGQ7bNb-130" vertex="1">
          <mxGeometry y="130" width="270" height="26" as="geometry" />
        </mxCell>
        <mxCell id="haFOG0XA0pnnrHGQ7bNb-136" value="+ cantidadDoctores: int" style="text;strokeColor=none;fillColor=none;align=left;verticalAlign=top;spacingLeft=4;spacingRight=4;overflow=hidden;rotatable=0;points=[[0,0.5],[1,0.5]];portConstraint=eastwest;whiteSpace=wrap;html=1;" parent="haFOG0XA0pnnrHGQ7bNb-130" vertex="1">
          <mxGeometry y="156" width="270" height="26" as="geometry" />
        </mxCell>
        <mxCell id="haFOG0XA0pnnrHGQ7bNb-137" value="" style="line;strokeWidth=1;fillColor=none;align=left;verticalAlign=middle;spacingTop=-1;spacingLeft=3;spacingRight=3;rotatable=0;labelPosition=right;points=[];portConstraint=eastwest;strokeColor=inherit;" parent="haFOG0XA0pnnrHGQ7bNb-130" vertex="1">
          <mxGeometry y="182" width="270" height="8" as="geometry" />
        </mxCell>
        <mxCell id="haFOG0XA0pnnrHGQ7bNb-138" value="+ Hospital()" style="text;strokeColor=none;fillColor=none;align=left;verticalAlign=top;spacingLeft=4;spacingRight=4;overflow=hidden;rotatable=0;points=[[0,0.5],[1,0.5]];portConstraint=eastwest;whiteSpace=wrap;html=1;" parent="haFOG0XA0pnnrHGQ7bNb-130" vertex="1">
          <mxGeometry y="190" width="270" height="26" as="geometry" />
        </mxCell>
        <mxCell id="haFOG0XA0pnnrHGQ7bNb-139" value="+ getId(): int" style="text;strokeColor=none;fillColor=none;align=left;verticalAlign=top;spacingLeft=4;spacingRight=4;overflow=hidden;rotatable=0;points=[[0,0.5],[1,0.5]];portConstraint=eastwest;whiteSpace=wrap;html=1;" parent="haFOG0XA0pnnrHGQ7bNb-130" vertex="1">
          <mxGeometry y="216" width="270" height="26" as="geometry" />
        </mxCell>
        <mxCell id="haFOG0XA0pnnrHGQ7bNb-140" value="+ setId(id: int)" style="text;strokeColor=none;fillColor=none;align=left;verticalAlign=top;spacingLeft=4;spacingRight=4;overflow=hidden;rotatable=0;points=[[0,0.5],[1,0.5]];portConstraint=eastwest;whiteSpace=wrap;html=1;" parent="haFOG0XA0pnnrHGQ7bNb-130" vertex="1">
          <mxGeometry y="242" width="270" height="26" as="geometry" />
        </mxCell>
        <mxCell id="haFOG0XA0pnnrHGQ7bNb-141" value="+ getNombre(): str" style="text;strokeColor=none;fillColor=none;align=left;verticalAlign=top;spacingLeft=4;spacingRight=4;overflow=hidden;rotatable=0;points=[[0,0.5],[1,0.5]];portConstraint=eastwest;whiteSpace=wrap;html=1;" parent="haFOG0XA0pnnrHGQ7bNb-130" vertex="1">
          <mxGeometry y="268" width="270" height="26" as="geometry" />
        </mxCell>
        <mxCell id="haFOG0XA0pnnrHGQ7bNb-142" value="+ setNombre(nombre: str)" style="text;strokeColor=none;fillColor=none;align=left;verticalAlign=top;spacingLeft=4;spacingRight=4;overflow=hidden;rotatable=0;points=[[0,0.5],[1,0.5]];portConstraint=eastwest;whiteSpace=wrap;html=1;" parent="haFOG0XA0pnnrHGQ7bNb-130" vertex="1">
          <mxGeometry y="294" width="270" height="26" as="geometry" />
        </mxCell>
        <mxCell id="haFOG0XA0pnnrHGQ7bNb-143" value="+ getDireccion(): direccion" style="text;strokeColor=none;fillColor=none;align=left;verticalAlign=top;spacingLeft=4;spacingRight=4;overflow=hidden;rotatable=0;points=[[0,0.5],[1,0.5]];portConstraint=eastwest;whiteSpace=wrap;html=1;" parent="haFOG0XA0pnnrHGQ7bNb-130" vertex="1">
          <mxGeometry y="320" width="270" height="26" as="geometry" />
        </mxCell>
        <mxCell id="haFOG0XA0pnnrHGQ7bNb-144" value="+ setDireccion(direccion: str)" style="text;strokeColor=none;fillColor=none;align=left;verticalAlign=top;spacingLeft=4;spacingRight=4;overflow=hidden;rotatable=0;points=[[0,0.5],[1,0.5]];portConstraint=eastwest;whiteSpace=wrap;html=1;" parent="haFOG0XA0pnnrHGQ7bNb-130" vertex="1">
          <mxGeometry y="346" width="270" height="26" as="geometry" />
        </mxCell>
        <mxCell id="haFOG0XA0pnnrHGQ7bNb-145" value="+ getDisponibilidad(): int" style="text;strokeColor=none;fillColor=none;align=left;verticalAlign=top;spacingLeft=4;spacingRight=4;overflow=hidden;rotatable=0;points=[[0,0.5],[1,0.5]];portConstraint=eastwest;whiteSpace=wrap;html=1;" parent="haFOG0XA0pnnrHGQ7bNb-130" vertex="1">
          <mxGeometry y="372" width="270" height="26" as="geometry" />
        </mxCell>
        <mxCell id="haFOG0XA0pnnrHGQ7bNb-146" value="+ setDisponibilidad(disponibilidad: int)" style="text;strokeColor=none;fillColor=none;align=left;verticalAlign=top;spacingLeft=4;spacingRight=4;overflow=hidden;rotatable=0;points=[[0,0.5],[1,0.5]];portConstraint=eastwest;whiteSpace=wrap;html=1;" parent="haFOG0XA0pnnrHGQ7bNb-130" vertex="1">
          <mxGeometry y="398" width="270" height="26" as="geometry" />
        </mxCell>
        <mxCell id="haFOG0XA0pnnrHGQ7bNb-147" value="+ getEspecialidades(): []" style="text;strokeColor=none;fillColor=none;align=left;verticalAlign=top;spacingLeft=4;spacingRight=4;overflow=hidden;rotatable=0;points=[[0,0.5],[1,0.5]];portConstraint=eastwest;whiteSpace=wrap;html=1;" parent="haFOG0XA0pnnrHGQ7bNb-130" vertex="1">
          <mxGeometry y="424" width="270" height="26" as="geometry" />
        </mxCell>
        <mxCell id="haFOG0XA0pnnrHGQ7bNb-148" value="+ setEspecialidades(especialidades: [])" style="text;strokeColor=none;fillColor=none;align=left;verticalAlign=top;spacingLeft=4;spacingRight=4;overflow=hidden;rotatable=0;points=[[0,0.5],[1,0.5]];portConstraint=eastwest;whiteSpace=wrap;html=1;" parent="haFOG0XA0pnnrHGQ7bNb-130" vertex="1">
          <mxGeometry y="450" width="270" height="26" as="geometry" />
        </mxCell>
        <mxCell id="haFOG0XA0pnnrHGQ7bNb-149" value="+ getcantidadDoctores(): int" style="text;strokeColor=none;fillColor=none;align=left;verticalAlign=top;spacingLeft=4;spacingRight=4;overflow=hidden;rotatable=0;points=[[0,0.5],[1,0.5]];portConstraint=eastwest;whiteSpace=wrap;html=1;" parent="haFOG0XA0pnnrHGQ7bNb-130" vertex="1">
          <mxGeometry y="476" width="270" height="26" as="geometry" />
        </mxCell>
        <mxCell id="haFOG0XA0pnnrHGQ7bNb-150" value="+ setCantidadDoctores(cantidadDoctores: int)" style="text;strokeColor=none;fillColor=none;align=left;verticalAlign=top;spacingLeft=4;spacingRight=4;overflow=hidden;rotatable=0;points=[[0,0.5],[1,0.5]];portConstraint=eastwest;whiteSpace=wrap;html=1;" parent="haFOG0XA0pnnrHGQ7bNb-130" vertex="1">
          <mxGeometry y="502" width="270" height="26" as="geometry" />
        </mxCell>
        <mxCell id="haFOG0XA0pnnrHGQ7bNb-151" style="edgeStyle=orthogonalEdgeStyle;rounded=0;orthogonalLoop=1;jettySize=auto;html=1;endArrow=diamondThin;endFill=1;" parent="1" target="haFOG0XA0pnnrHGQ7bNb-133" edge="1">
          <mxGeometry relative="1" as="geometry">
            <mxPoint x="1560" y="1660" as="sourcePoint" />
            <Array as="points">
              <mxPoint x="1630" y="1660" />
              <mxPoint x="1630" y="1660" />
            </Array>
          </mxGeometry>
        </mxCell>
        <mxCell id="haFOG0XA0pnnrHGQ7bNb-152" style="edgeStyle=orthogonalEdgeStyle;rounded=0;orthogonalLoop=1;jettySize=auto;html=1;endArrow=diamondThin;endFill=1;" parent="1" source="haFOG0XA0pnnrHGQ7bNb-67" target="haFOG0XA0pnnrHGQ7bNb-130" edge="1">
          <mxGeometry relative="1" as="geometry">
            <Array as="points">
              <mxPoint x="940" y="1380" />
              <mxPoint x="1650" y="1380" />
              <mxPoint x="1650" y="1600" />
            </Array>
          </mxGeometry>
        </mxCell>
        <mxCell id="haFOG0XA0pnnrHGQ7bNb-153" value="1" style="text;align=center;fontStyle=1;verticalAlign=middle;spacingLeft=3;spacingRight=3;strokeColor=none;rotatable=0;points=[[0,0.5],[1,0.5]];portConstraint=eastwest;html=1;" parent="1" vertex="1">
          <mxGeometry x="680" y="1020" width="80" height="26" as="geometry" />
        </mxCell>
        <mxCell id="haFOG0XA0pnnrHGQ7bNb-154" value="1" style="text;align=center;fontStyle=1;verticalAlign=middle;spacingLeft=3;spacingRight=3;strokeColor=none;rotatable=0;points=[[0,0.5],[1,0.5]];portConstraint=eastwest;html=1;" parent="1" vertex="1">
          <mxGeometry x="990" y="950" width="80" height="26" as="geometry" />
        </mxCell>
        <mxCell id="haFOG0XA0pnnrHGQ7bNb-155" value="1" style="text;align=center;fontStyle=1;verticalAlign=middle;spacingLeft=3;spacingRight=3;strokeColor=none;rotatable=0;points=[[0,0.5],[1,0.5]];portConstraint=eastwest;html=1;" parent="1" vertex="1">
          <mxGeometry x="990" y="1226" width="80" height="26" as="geometry" />
        </mxCell>
        <mxCell id="haFOG0XA0pnnrHGQ7bNb-156" value="1" style="text;align=center;fontStyle=1;verticalAlign=middle;spacingLeft=3;spacingRight=3;strokeColor=none;rotatable=0;points=[[0,0.5],[1,0.5]];portConstraint=eastwest;html=1;" parent="1" vertex="1">
          <mxGeometry x="810" y="1488" width="80" height="26" as="geometry" />
        </mxCell>
        <mxCell id="haFOG0XA0pnnrHGQ7bNb-157" value="1" style="text;align=center;fontStyle=1;verticalAlign=middle;spacingLeft=3;spacingRight=3;strokeColor=none;rotatable=0;points=[[0,0.5],[1,0.5]];portConstraint=eastwest;html=1;" parent="1" vertex="1">
          <mxGeometry x="1220" y="1210" width="80" height="26" as="geometry" />
        </mxCell>
        <mxCell id="haFOG0XA0pnnrHGQ7bNb-158" value="1" style="text;align=center;fontStyle=1;verticalAlign=middle;spacingLeft=3;spacingRight=3;strokeColor=none;rotatable=0;points=[[0,0.5],[1,0.5]];portConstraint=eastwest;html=1;" parent="1" vertex="1">
          <mxGeometry x="1430" y="1467" width="80" height="26" as="geometry" />
        </mxCell>
        <mxCell id="haFOG0XA0pnnrHGQ7bNb-159" value="1" style="text;align=center;fontStyle=1;verticalAlign=middle;spacingLeft=3;spacingRight=3;strokeColor=none;rotatable=0;points=[[0,0.5],[1,0.5]];portConstraint=eastwest;html=1;" parent="1" vertex="1">
          <mxGeometry x="1085" y="1644" width="80" height="26" as="geometry" />
        </mxCell>
        <mxCell id="haFOG0XA0pnnrHGQ7bNb-160" value="1" style="text;align=center;fontStyle=1;verticalAlign=middle;spacingLeft=3;spacingRight=3;strokeColor=none;rotatable=0;points=[[0,0.5],[1,0.5]];portConstraint=eastwest;html=1;" parent="1" vertex="1">
          <mxGeometry x="1085" y="1330" width="80" height="26" as="geometry" />
        </mxCell>
        <mxCell id="haFOG0XA0pnnrHGQ7bNb-161" value="1..*" style="text;align=center;fontStyle=1;verticalAlign=middle;spacingLeft=3;spacingRight=3;strokeColor=none;rotatable=0;points=[[0,0.5],[1,0.5]];portConstraint=eastwest;html=1;" parent="1" vertex="1">
          <mxGeometry x="1200" y="1644" width="80" height="26" as="geometry" />
        </mxCell>
        <mxCell id="haFOG0XA0pnnrHGQ7bNb-162" value="1..*" style="text;align=center;fontStyle=1;verticalAlign=middle;spacingLeft=3;spacingRight=3;strokeColor=none;rotatable=0;points=[[0,0.5],[1,0.5]];portConstraint=eastwest;html=1;" parent="1" vertex="1">
          <mxGeometry x="1770" y="1636" width="80" height="26" as="geometry" />
        </mxCell>
        <mxCell id="haFOG0XA0pnnrHGQ7bNb-163" value="1" style="text;align=center;fontStyle=1;verticalAlign=middle;spacingLeft=3;spacingRight=3;strokeColor=none;rotatable=0;points=[[0,0.5],[1,0.5]];portConstraint=eastwest;html=1;" parent="1" vertex="1">
          <mxGeometry x="1770" y="1610" width="80" height="26" as="geometry" />
        </mxCell>
        <mxCell id="haFOG0XA0pnnrHGQ7bNb-164" value="1..*" style="text;align=center;fontStyle=1;verticalAlign=middle;spacingLeft=3;spacingRight=3;strokeColor=none;rotatable=0;points=[[0,0.5],[1,0.5]];portConstraint=eastwest;html=1;" parent="1" vertex="1">
          <mxGeometry x="1770" y="1570" width="80" height="26" as="geometry" />
        </mxCell>
        <mxCell id="haFOG0XA0pnnrHGQ7bNb-165" value="*" style="text;align=center;fontStyle=1;verticalAlign=middle;spacingLeft=3;spacingRight=3;strokeColor=none;rotatable=0;points=[[0,0.5],[1,0.5]];portConstraint=eastwest;html=1;" parent="1" vertex="1">
          <mxGeometry x="1530" y="1636" width="80" height="26" as="geometry" />
        </mxCell>
        <mxCell id="haFOG0XA0pnnrHGQ7bNb-166" value="*" style="text;align=center;fontStyle=1;verticalAlign=middle;spacingLeft=3;spacingRight=3;strokeColor=none;rotatable=0;points=[[0,0.5],[1,0.5]];portConstraint=eastwest;html=1;" parent="1" vertex="1">
          <mxGeometry x="920" y="1488" width="80" height="26" as="geometry" />
        </mxCell>
        <mxCell id="haFOG0XA0pnnrHGQ7bNb-167" value="1" style="text;align=center;fontStyle=1;verticalAlign=middle;spacingLeft=3;spacingRight=3;strokeColor=none;rotatable=0;points=[[0,0.5],[1,0.5]];portConstraint=eastwest;html=1;" parent="1" vertex="1">
          <mxGeometry x="1420" y="1891" width="80" height="26" as="geometry" />
        </mxCell>
        <mxCell id="haFOG0XA0pnnrHGQ7bNb-168" value="1" style="text;align=center;fontStyle=1;verticalAlign=middle;spacingLeft=3;spacingRight=3;strokeColor=none;rotatable=0;points=[[0,0.5],[1,0.5]];portConstraint=eastwest;html=1;" parent="1" vertex="1">
          <mxGeometry x="1184" y="2114" width="80" height="26" as="geometry" />
        </mxCell>
        <mxCell id="haFOG0XA0pnnrHGQ7bNb-169" value="1" style="text;align=center;fontStyle=1;verticalAlign=middle;spacingLeft=3;spacingRight=3;strokeColor=none;rotatable=0;points=[[0,0.5],[1,0.5]];portConstraint=eastwest;html=1;" parent="1" vertex="1">
          <mxGeometry x="1085" y="1912" width="80" height="26" as="geometry" />
        </mxCell>
        <mxCell id="haFOG0XA0pnnrHGQ7bNb-170" value="1" style="text;align=center;fontStyle=1;verticalAlign=middle;spacingLeft=3;spacingRight=3;strokeColor=none;rotatable=0;points=[[0,0.5],[1,0.5]];portConstraint=eastwest;html=1;" parent="1" vertex="1">
          <mxGeometry x="1080" y="2114" width="80" height="26" as="geometry" />
        </mxCell>
        <mxCell id="haFOG0XA0pnnrHGQ7bNb-171" value="*" style="text;align=center;fontStyle=1;verticalAlign=middle;spacingLeft=3;spacingRight=3;strokeColor=none;rotatable=0;points=[[0,0.5],[1,0.5]];portConstraint=eastwest;html=1;" parent="1" vertex="1">
          <mxGeometry x="1184" y="1917" width="80" height="26" as="geometry" />
        </mxCell>
        <mxCell id="haFOG0XA0pnnrHGQ7bNb-172" value="1" style="text;align=center;fontStyle=1;verticalAlign=middle;spacingLeft=3;spacingRight=3;strokeColor=none;rotatable=0;points=[[0,0.5],[1,0.5]];portConstraint=eastwest;html=1;" parent="1" vertex="1">
          <mxGeometry x="820" y="1917" width="80" height="26" as="geometry" />
        </mxCell>
        <mxCell id="haFOG0XA0pnnrHGQ7bNb-173" value="1" style="text;align=center;fontStyle=1;verticalAlign=middle;spacingLeft=3;spacingRight=3;strokeColor=none;rotatable=0;points=[[0,0.5],[1,0.5]];portConstraint=eastwest;html=1;" parent="1" vertex="1">
          <mxGeometry x="960" y="2170" width="80" height="26" as="geometry" />
        </mxCell>
        <mxCell id="haFOG0XA0pnnrHGQ7bNb-174" value="1" style="text;align=center;fontStyle=1;verticalAlign=middle;spacingLeft=3;spacingRight=3;strokeColor=none;rotatable=0;points=[[0,0.5],[1,0.5]];portConstraint=eastwest;html=1;" parent="1" vertex="1">
          <mxGeometry x="950" y="2240" width="80" height="26" as="geometry" />
        </mxCell>
        <mxCell id="haFOG0XA0pnnrHGQ7bNb-175" value="1..*" style="text;align=center;fontStyle=1;verticalAlign=middle;spacingLeft=3;spacingRight=3;strokeColor=none;rotatable=0;points=[[0,0.5],[1,0.5]];portConstraint=eastwest;html=1;" parent="1" vertex="1">
          <mxGeometry x="490" y="1700" width="80" height="26" as="geometry" />
        </mxCell>
        <mxCell id="FV3a8bCMoMqEvrclolRB-22" style="edgeStyle=orthogonalEdgeStyle;rounded=0;orthogonalLoop=1;jettySize=auto;html=1;endArrow=block;endFill=0;" parent="1" source="FV3a8bCMoMqEvrclolRB-1" target="haFOG0XA0pnnrHGQ7bNb-1" edge="1">
          <mxGeometry relative="1" as="geometry" />
        </mxCell>
        <mxCell id="FV3a8bCMoMqEvrclolRB-23" style="edgeStyle=orthogonalEdgeStyle;rounded=0;orthogonalLoop=1;jettySize=auto;html=1;endArrow=none;endFill=0;" parent="1" source="FV3a8bCMoMqEvrclolRB-1" target="haFOG0XA0pnnrHGQ7bNb-114" edge="1">
          <mxGeometry relative="1" as="geometry">
            <Array as="points">
              <mxPoint x="1650" y="2200" />
            </Array>
          </mxGeometry>
        </mxCell>
        <mxCell id="FV3a8bCMoMqEvrclolRB-1" value="Administrador" style="swimlane;fontStyle=1;align=center;verticalAlign=top;childLayout=stackLayout;horizontal=1;startSize=26;horizontalStack=0;resizeParent=1;resizeParentMax=0;resizeLast=0;collapsible=1;marginBottom=0;whiteSpace=wrap;html=1;" parent="1" vertex="1">
          <mxGeometry x="1550" y="1070" width="200" height="216" as="geometry" />
        </mxCell>
        <mxCell id="FV3a8bCMoMqEvrclolRB-2" value="- id: str" style="text;strokeColor=none;fillColor=none;align=left;verticalAlign=top;spacingLeft=4;spacingRight=4;overflow=hidden;rotatable=0;points=[[0,0.5],[1,0.5]];portConstraint=eastwest;whiteSpace=wrap;html=1;" parent="FV3a8bCMoMqEvrclolRB-1" vertex="1">
          <mxGeometry y="26" width="200" height="26" as="geometry" />
        </mxCell>
        <mxCell id="FV3a8bCMoMqEvrclolRB-4" value="- contraseÃ±a: str" style="text;strokeColor=none;fillColor=none;align=left;verticalAlign=top;spacingLeft=4;spacingRight=4;overflow=hidden;rotatable=0;points=[[0,0.5],[1,0.5]];portConstraint=eastwest;whiteSpace=wrap;html=1;" parent="FV3a8bCMoMqEvrclolRB-1" vertex="1">
          <mxGeometry y="52" width="200" height="26" as="geometry" />
        </mxCell>
        <mxCell id="FV3a8bCMoMqEvrclolRB-5" value="" style="line;strokeWidth=1;fillColor=none;align=left;verticalAlign=middle;spacingTop=-1;spacingLeft=3;spacingRight=3;rotatable=0;labelPosition=right;points=[];portConstraint=eastwest;strokeColor=inherit;" parent="FV3a8bCMoMqEvrclolRB-1" vertex="1">
          <mxGeometry y="78" width="200" height="8" as="geometry" />
        </mxCell>
        <mxCell id="FV3a8bCMoMqEvrclolRB-6" value="+ Administrador()" style="text;strokeColor=none;fillColor=none;align=left;verticalAlign=top;spacingLeft=4;spacingRight=4;overflow=hidden;rotatable=0;points=[[0,0.5],[1,0.5]];portConstraint=eastwest;whiteSpace=wrap;html=1;" parent="FV3a8bCMoMqEvrclolRB-1" vertex="1">
          <mxGeometry y="86" width="200" height="26" as="geometry" />
        </mxCell>
        <mxCell id="FV3a8bCMoMqEvrclolRB-15" value="+ getId(): int" style="text;strokeColor=none;fillColor=none;align=left;verticalAlign=top;spacingLeft=4;spacingRight=4;overflow=hidden;rotatable=0;points=[[0,0.5],[1,0.5]];portConstraint=eastwest;whiteSpace=wrap;html=1;" parent="FV3a8bCMoMqEvrclolRB-1" vertex="1">
          <mxGeometry y="112" width="200" height="26" as="geometry" />
        </mxCell>
        <mxCell id="FV3a8bCMoMqEvrclolRB-16" value="+ setId(id: int)" style="text;strokeColor=none;fillColor=none;align=left;verticalAlign=top;spacingLeft=4;spacingRight=4;overflow=hidden;rotatable=0;points=[[0,0.5],[1,0.5]];portConstraint=eastwest;whiteSpace=wrap;html=1;" parent="FV3a8bCMoMqEvrclolRB-1" vertex="1">
          <mxGeometry y="138" width="200" height="26" as="geometry" />
        </mxCell>
        <mxCell id="FV3a8bCMoMqEvrclolRB-9" value="+ getContraseÃ±a(): str" style="text;strokeColor=none;fillColor=none;align=left;verticalAlign=top;spacingLeft=4;spacingRight=4;overflow=hidden;rotatable=0;points=[[0,0.5],[1,0.5]];portConstraint=eastwest;whiteSpace=wrap;html=1;" parent="FV3a8bCMoMqEvrclolRB-1" vertex="1">
          <mxGeometry y="164" width="200" height="26" as="geometry" />
        </mxCell>
        <mxCell id="FV3a8bCMoMqEvrclolRB-10" value="+ setContraseÃ±a(contraseÃ±a: str)" style="text;strokeColor=none;fillColor=none;align=left;verticalAlign=top;spacingLeft=4;spacingRight=4;overflow=hidden;rotatable=0;points=[[0,0.5],[1,0.5]];portConstraint=eastwest;whiteSpace=wrap;html=1;" parent="FV3a8bCMoMqEvrclolRB-1" vertex="1">
          <mxGeometry y="190" width="200" height="26" as="geometry" />
        </mxCell>
        <mxCell id="FV3a8bCMoMqEvrclolRB-24" value="1" style="text;align=center;fontStyle=1;verticalAlign=middle;spacingLeft=3;spacingRight=3;strokeColor=none;rotatable=0;points=[[0,0.5],[1,0.5]];portConstraint=eastwest;html=1;" parent="1" vertex="1">
          <mxGeometry x="1220" y="2170" width="80" height="26" as="geometry" />
        </mxCell>
        <mxCell id="kdS5jwb8vFETjUeZA6DS-2" value="1" style="text;align=center;fontStyle=1;verticalAlign=middle;spacingLeft=3;spacingRight=3;strokeColor=none;rotatable=0;points=[[0,0.5],[1,0.5]];portConstraint=eastwest;html=1;" vertex="1" parent="1">
          <mxGeometry x="1480" y="1143" width="80" height="26" as="geometry" />
        </mxCell>
        <mxCell id="kdS5jwb8vFETjUeZA6DS-3" value="1" style="text;align=center;fontStyle=1;verticalAlign=middle;spacingLeft=3;spacingRight=3;strokeColor=none;rotatable=0;points=[[0,0.5],[1,0.5]];portConstraint=eastwest;html=1;" vertex="1" parent="1">
          <mxGeometry x="1264" y="950" width="80" height="26" as="geometry" />
        </mxCell>
      </root>
    </mxGraphModel>
  </diagram>
  <diagram id="6Sjd_wy3QC4CFOv9HiTe" name="Componentes">
    <mxGraphModel dx="978" dy="542" grid="1" gridSize="10" guides="1" tooltips="1" connect="1" arrows="1" fold="1" page="1" pageScale="1" pageWidth="827" pageHeight="1169" math="0" shadow="0">
      <root>
        <mxCell id="0" />
        <mxCell id="1" parent="0" />
        <mxCell id="9ejOmEFdvyf6x5FGGjas-1" value="Plataforma&amp;nbsp;&lt;div&gt;Hospital&lt;/div&gt;" style="shape=module;align=center;spacingLeft=20;align=center;verticalAlign=top;whiteSpace=wrap;html=1;fillColor=#FFFFFF;gradientColor=#EDEDED;strokeColor=#000000;jettyWidth=11;jettyHeight=8;" vertex="1" parent="1">
          <mxGeometry x="150" y="280" width="90" height="40" as="geometry" />
        </mxCell>
        <mxCell id="6gW4oPfLnSNj3YtsGaci-3" style="edgeStyle=orthogonalEdgeStyle;rounded=0;orthogonalLoop=1;jettySize=auto;html=1;endArrow=none;endFill=0;sourcePerimeterSpacing=3;targetPerimeterSpacing=3;" edge="1" parent="1" source="6gW4oPfLnSNj3YtsGaci-1" target="9ejOmEFdvyf6x5FGGjas-1">
          <mxGeometry relative="1" as="geometry" />
        </mxCell>
        <mxCell id="6gW4oPfLnSNj3YtsGaci-1" value="" style="ellipse;whiteSpace=wrap;html=1;" vertex="1" parent="1">
          <mxGeometry x="80" y="280" width="40" height="40" as="geometry" />
        </mxCell>
        <mxCell id="6gW4oPfLnSNj3YtsGaci-2" value="Iniciar&lt;div&gt;sesion&lt;/div&gt;" style="text;html=1;whiteSpace=wrap;strokeColor=none;fillColor=none;align=center;verticalAlign=middle;rounded=0;" vertex="1" parent="1">
          <mxGeometry x="70" y="320" width="60" height="30" as="geometry" />
        </mxCell>
        <mxCell id="6gW4oPfLnSNj3YtsGaci-23" style="edgeStyle=orthogonalEdgeStyle;rounded=0;orthogonalLoop=1;jettySize=auto;html=1;endArrow=none;endFill=0;" edge="1" parent="1" source="6gW4oPfLnSNj3YtsGaci-4">
          <mxGeometry relative="1" as="geometry">
            <mxPoint x="700" y="260" as="targetPoint" />
            <Array as="points">
              <mxPoint x="670" y="220" />
              <mxPoint x="670" y="260" />
              <mxPoint x="700" y="260" />
            </Array>
          </mxGeometry>
        </mxCell>
        <mxCell id="6gW4oPfLnSNj3YtsGaci-4" value="Modulo&lt;div&gt;Rellenar Formulario&lt;/div&gt;" style="shape=module;align=center;spacingLeft=20;align=center;verticalAlign=top;whiteSpace=wrap;html=1;fillColor=#FFFFFF;gradientColor=#EDEDED;strokeColor=#000000;jettyWidth=11;jettyHeight=8;" vertex="1" parent="1">
          <mxGeometry x="390" y="200" width="130" height="40" as="geometry" />
        </mxCell>
        <mxCell id="6gW4oPfLnSNj3YtsGaci-6" style="edgeStyle=orthogonalEdgeStyle;rounded=0;orthogonalLoop=1;jettySize=auto;html=1;endArrow=none;endFill=0;sourcePerimeterSpacing=3;targetPerimeterSpacing=3;" edge="1" parent="1" target="6gW4oPfLnSNj3YtsGaci-4">
          <mxGeometry relative="1" as="geometry">
            <mxPoint x="327" y="220" as="sourcePoint" />
            <mxPoint x="174" y="290" as="targetPoint" />
            <Array as="points">
              <mxPoint x="360" y="220" />
              <mxPoint x="360" y="220" />
            </Array>
          </mxGeometry>
        </mxCell>
        <mxCell id="6gW4oPfLnSNj3YtsGaci-8" value="" style="ellipse;whiteSpace=wrap;html=1;align=center;aspect=fixed;fillColor=none;strokeColor=none;resizable=0;perimeter=centerPerimeter;rotatable=0;allowArrows=0;points=[];outlineConnect=1;" vertex="1" parent="1">
          <mxGeometry x="150" y="220" width="10" height="10" as="geometry" />
        </mxCell>
        <mxCell id="6gW4oPfLnSNj3YtsGaci-12" value="" style="edgeStyle=orthogonalEdgeStyle;rounded=0;orthogonalLoop=1;jettySize=auto;html=1;endArrow=none;endFill=0;sourcePerimeterSpacing=3;targetPerimeterSpacing=3;" edge="1" parent="1">
          <mxGeometry relative="1" as="geometry">
            <mxPoint x="240" y="300" as="sourcePoint" />
            <mxPoint x="327" y="220" as="targetPoint" />
            <Array as="points">
              <mxPoint x="320" y="300" />
              <mxPoint x="320" y="220" />
            </Array>
          </mxGeometry>
        </mxCell>
        <mxCell id="6gW4oPfLnSNj3YtsGaci-24" style="edgeStyle=orthogonalEdgeStyle;rounded=0;orthogonalLoop=1;jettySize=auto;html=1;endArrow=none;endFill=0;" edge="1" parent="1" source="6gW4oPfLnSNj3YtsGaci-13">
          <mxGeometry relative="1" as="geometry">
            <mxPoint x="700" y="380" as="targetPoint" />
          </mxGeometry>
        </mxCell>
        <mxCell id="6gW4oPfLnSNj3YtsGaci-13" value="Modulo&lt;div&gt;Ver Fichas&lt;/div&gt;" style="shape=module;align=center;spacingLeft=20;align=center;verticalAlign=top;whiteSpace=wrap;html=1;fillColor=#FFFFFF;gradientColor=#EDEDED;strokeColor=#000000;jettyWidth=11;jettyHeight=8;" vertex="1" parent="1">
          <mxGeometry x="390" y="360" width="130" height="40" as="geometry" />
        </mxCell>
        <mxCell id="6gW4oPfLnSNj3YtsGaci-14" value="" style="edgeStyle=orthogonalEdgeStyle;rounded=0;orthogonalLoop=1;jettySize=auto;html=1;endArrow=none;endFill=0;sourcePerimeterSpacing=3;targetPerimeterSpacing=3;" edge="1" parent="1">
          <mxGeometry relative="1" as="geometry">
            <mxPoint x="240" y="300" as="sourcePoint" />
            <mxPoint x="390" y="300" as="targetPoint" />
            <Array as="points">
              <mxPoint x="390" y="300" />
            </Array>
          </mxGeometry>
        </mxCell>
        <mxCell id="6gW4oPfLnSNj3YtsGaci-18" value="Entrar" style="text;html=1;whiteSpace=wrap;strokeColor=none;fillColor=none;align=center;verticalAlign=middle;rounded=0;" vertex="1" parent="1">
          <mxGeometry x="250" y="304" width="60" height="30" as="geometry" />
        </mxCell>
        <mxCell id="6gW4oPfLnSNj3YtsGaci-20" value="" style="edgeStyle=orthogonalEdgeStyle;rounded=0;orthogonalLoop=1;jettySize=auto;html=1;endArrow=none;endFill=0;sourcePerimeterSpacing=3;targetPerimeterSpacing=3;entryX=-0.015;entryY=0.533;entryDx=0;entryDy=0;entryPerimeter=0;" edge="1" parent="1">
          <mxGeometry relative="1" as="geometry">
            <mxPoint x="240" y="300" as="sourcePoint" />
            <mxPoint x="388.04999999999995" y="381.31999999999994" as="targetPoint" />
            <Array as="points">
              <mxPoint x="320" y="300" />
              <mxPoint x="320" y="380" />
              <mxPoint x="388" y="380" />
            </Array>
          </mxGeometry>
        </mxCell>
        <mxCell id="6gW4oPfLnSNj3YtsGaci-40" style="edgeStyle=orthogonalEdgeStyle;rounded=0;orthogonalLoop=1;jettySize=auto;html=1;dashed=1;" edge="1" parent="1" source="6gW4oPfLnSNj3YtsGaci-21">
          <mxGeometry relative="1" as="geometry">
            <mxPoint x="880" y="270" as="targetPoint" />
            <Array as="points">
              <mxPoint x="880" y="250" />
            </Array>
          </mxGeometry>
        </mxCell>
        <mxCell id="6gW4oPfLnSNj3YtsGaci-21" value="Ficha" style="shape=module;align=center;spacingLeft=20;align=center;verticalAlign=top;whiteSpace=wrap;html=1;fillColor=#FFFFFF;gradientColor=#EDEDED;strokeColor=#000000;jettyWidth=11;jettyHeight=8;" vertex="1" parent="1">
          <mxGeometry x="710" y="240" width="70" height="40" as="geometry" />
        </mxCell>
        <mxCell id="6gW4oPfLnSNj3YtsGaci-22" value="" style="shape=providedRequiredInterface;html=1;verticalLabelPosition=bottom;sketch=0;rotation=-180;" vertex="1" parent="1">
          <mxGeometry x="270" y="290" width="20" height="20" as="geometry" />
        </mxCell>
        <mxCell id="6gW4oPfLnSNj3YtsGaci-28" value="agregar&lt;div&gt;nueva ficha&lt;/div&gt;" style="text;html=1;whiteSpace=wrap;strokeColor=none;fillColor=none;align=center;verticalAlign=middle;rounded=0;" vertex="1" parent="1">
          <mxGeometry x="550" y="230" width="80" height="30" as="geometry" />
        </mxCell>
        <mxCell id="6gW4oPfLnSNj3YtsGaci-29" value="" style="shape=providedRequiredInterface;html=1;verticalLabelPosition=bottom;sketch=0;rotation=-180;" vertex="1" parent="1">
          <mxGeometry x="580" y="210" width="20" height="20" as="geometry" />
        </mxCell>
        <mxCell id="6gW4oPfLnSNj3YtsGaci-34" value="modificar ficha" style="text;html=1;whiteSpace=wrap;strokeColor=none;fillColor=none;align=center;verticalAlign=middle;rounded=0;" vertex="1" parent="1">
          <mxGeometry x="560" y="310" width="60" height="30" as="geometry" />
        </mxCell>
        <mxCell id="6gW4oPfLnSNj3YtsGaci-35" value="" style="shape=providedRequiredInterface;html=1;verticalLabelPosition=bottom;sketch=0;rotation=-180;" vertex="1" parent="1">
          <mxGeometry x="580" y="370" width="20" height="20" as="geometry" />
        </mxCell>
        <mxCell id="6gW4oPfLnSNj3YtsGaci-39" value="Base de Datos" style="shape=module;align=center;spacingLeft=20;align=center;verticalAlign=top;whiteSpace=wrap;html=1;fillColor=#FFFFFF;gradientColor=#EDEDED;strokeColor=#000000;jettyWidth=11;jettyHeight=8;" vertex="1" parent="1">
          <mxGeometry x="840" y="280" width="70" height="40" as="geometry" />
        </mxCell>
        <mxCell id="6gW4oPfLnSNj3YtsGaci-42" style="edgeStyle=orthogonalEdgeStyle;rounded=0;orthogonalLoop=1;jettySize=auto;html=1;endArrow=none;endFill=0;" edge="1" parent="1" source="6gW4oPfLnSNj3YtsGaci-41">
          <mxGeometry relative="1" as="geometry">
            <mxPoint x="700" y="260" as="targetPoint" />
            <Array as="points">
              <mxPoint x="670" y="300" />
              <mxPoint x="670" y="260" />
            </Array>
          </mxGeometry>
        </mxCell>
        <mxCell id="6gW4oPfLnSNj3YtsGaci-41" value="Modulo&lt;div&gt;Modificar Fichas&lt;/div&gt;" style="shape=module;align=center;spacingLeft=20;align=center;verticalAlign=top;whiteSpace=wrap;html=1;fillColor=#FFFFFF;gradientColor=#EDEDED;strokeColor=#000000;jettyWidth=11;jettyHeight=8;" vertex="1" parent="1">
          <mxGeometry x="390" y="280" width="130" height="40" as="geometry" />
        </mxCell>
        <mxCell id="6gW4oPfLnSNj3YtsGaci-43" value="mostrar listado de fichas" style="text;html=1;whiteSpace=wrap;strokeColor=none;fillColor=none;align=center;verticalAlign=middle;rounded=0;" vertex="1" parent="1">
          <mxGeometry x="540" y="390" width="100" height="30" as="geometry" />
        </mxCell>
        <mxCell id="6gW4oPfLnSNj3YtsGaci-44" value="" style="shape=providedRequiredInterface;html=1;verticalLabelPosition=bottom;sketch=0;rotation=-180;" vertex="1" parent="1">
          <mxGeometry x="580" y="290" width="20" height="20" as="geometry" />
        </mxCell>
        <mxCell id="nUiv-P2bvK2o7vnsCX8q-2" style="edgeStyle=orthogonalEdgeStyle;rounded=0;orthogonalLoop=1;jettySize=auto;html=1;dashed=1;" edge="1" parent="1" source="nUiv-P2bvK2o7vnsCX8q-3">
          <mxGeometry relative="1" as="geometry">
            <mxPoint x="880" y="330" as="targetPoint" />
            <Array as="points">
              <mxPoint x="880" y="370" />
            </Array>
          </mxGeometry>
        </mxCell>
        <mxCell id="nUiv-P2bvK2o7vnsCX8q-3" value="Listado&lt;div&gt;Fichas&lt;/div&gt;" style="shape=module;align=center;spacingLeft=20;align=center;verticalAlign=top;whiteSpace=wrap;html=1;fillColor=#FFFFFF;gradientColor=#EDEDED;strokeColor=#000000;jettyWidth=11;jettyHeight=8;" vertex="1" parent="1">
          <mxGeometry x="710" y="360" width="70" height="40" as="geometry" />
        </mxCell>
      </root>
    </mxGraphModel>
  </diagram>
</mxfile>
